<svg width="716" height="746" viewBox="0 0 716 746" fill="none" xmlns="http://www.w3.org/2000/svg">
<path d="M197.54 321.56C190.924 331.165 193.897 344.372 203.992 350.215L242.893 372.731C252.732 378.426 265.334 374.784 270.619 364.718L287.143 333.247C291.974 324.047 288.954 312.681 280.195 307.091L245.98 285.255C236.9 279.46 224.861 281.898 218.751 290.769L197.54 321.56Z" fill="#1FE49D" fill-opacity="0.5" style="mix-blend-mode:multiply"/>
<path d="M165.453 231.717L126.958 214.477L160.738 188.823L165.453 231.717ZM142.582 212.765L156.305 218.913L154.616 203.627L142.582 212.765Z" fill="#12FF7F"/>
<path d="M437.617 171.476C440.688 182.728 452.698 188.975 463.675 185.03L576.658 144.424C587.357 140.579 592.703 128.6 588.421 118.069L550.835 25.6383C546.92 16.0126 536.287 10.9879 526.365 14.0753L423.396 46.1173C413.111 49.3179 407.208 60.0897 410.045 70.4813L437.617 171.476Z" fill="#1FE49D" fill-opacity="0.5" style="mix-blend-mode:multiply"/>
<path d="M465.335 356.066C465.335 484.594 361.388 588.783 233.167 588.783C104.947 588.783 1 484.594 1 356.066C1 227.538 104.947 123.349 233.167 123.349C361.388 123.349 465.335 227.538 465.335 356.066Z" stroke="url(#paint0_linear_1333_5)" stroke-opacity="0.7" stroke-width="2"/>
<circle cx="443.238" cy="425.906" r="233.167" fill="url(#paint1_linear_1333_5)" fill-opacity="0.2" style="mix-blend-mode:soft-light"/>
<path d="M376.223 250.475L377.779 259.29L359.904 262.449L359.593 284.323L338.057 288.13L337.751 309.99L316.215 313.798L315.918 335.677L294.367 339.479L294.076 361.345L268.877 365.801L267.321 356.986L285.215 353.818L285.512 331.939L307.062 328.137L307.359 306.258L328.891 302.464L329.201 280.59L350.738 276.783L351.029 254.917L376.223 250.475Z" fill="url(#paint2_linear_1333_5)"/>
<path d="M189.646 495.429L187.108 501.015L175.837 494.047L167.195 505.879L153.615 497.484L144.982 509.311L131.401 500.916L122.765 512.757L109.178 504.353L100.551 516.189L84.6603 506.368L87.1977 500.782L98.483 507.755L107.119 495.914L120.705 504.318L129.341 492.477L142.914 500.876L151.555 489.045L165.136 497.439L173.763 485.603L189.646 495.429Z" fill="url(#paint3_linear_1333_5)"/>
<path d="M213.588 196.963L213.597 193.734C213.599 193.335 213.765 192.951 214.057 192.668C214.349 192.385 214.744 192.225 215.156 192.224C215.567 192.222 215.961 192.38 216.251 192.661C216.54 192.942 216.702 193.325 216.7 193.724L216.689 196.945C216.689 197.344 216.524 197.728 216.233 198.012C215.941 198.296 215.546 198.457 215.135 198.459C214.724 198.461 214.33 198.305 214.04 198.024C213.75 197.744 213.587 197.362 213.588 196.963V196.963ZM213.621 186.141L213.633 182.34C213.635 181.941 213.8 181.557 214.093 181.274C214.385 180.991 214.78 180.831 215.192 180.83C215.603 180.828 215.997 180.986 216.286 181.267C216.576 181.548 216.737 181.931 216.735 182.33L216.724 186.131C216.723 186.328 216.682 186.524 216.603 186.707C216.524 186.89 216.409 187.056 216.264 187.197C216.12 187.337 215.948 187.448 215.759 187.525C215.571 187.601 215.369 187.64 215.165 187.641C214.962 187.642 214.76 187.603 214.572 187.528C214.384 187.453 214.214 187.343 214.071 187.204C213.927 187.064 213.814 186.899 213.737 186.716C213.66 186.534 213.62 186.338 213.621 186.141V186.141Z" fill="#1FE0EC" style="mix-blend-mode:multiply"/>
<path d="M206.283 189.69C206.275 189.489 206.309 189.289 206.382 189.102C206.455 188.914 206.565 188.743 206.707 188.599C206.849 188.454 207.019 188.34 207.207 188.262C207.395 188.184 207.596 188.145 207.8 188.146L211.625 188.135C212.027 188.135 212.412 188.292 212.695 188.571C212.978 188.851 213.137 189.231 213.136 189.627C213.135 190.024 212.974 190.404 212.689 190.684C212.404 190.965 212.019 191.123 211.617 191.123L207.829 191.129C207.631 191.136 207.434 191.103 207.249 191.034C207.064 190.966 206.895 190.861 206.751 190.727C206.608 190.594 206.492 190.433 206.412 190.255C206.332 190.077 206.288 189.885 206.283 189.69ZM217.752 189.673C217.749 189.474 217.787 189.277 217.863 189.093C217.939 188.909 218.051 188.741 218.194 188.6C218.337 188.46 218.506 188.349 218.693 188.274C218.88 188.199 219.08 188.162 219.281 188.165L222.53 188.155C222.932 188.154 223.317 188.311 223.601 188.591C223.884 188.871 224.043 189.251 224.042 189.647C224.04 190.043 223.88 190.424 223.595 190.704C223.31 190.985 222.924 191.142 222.522 191.143L219.273 191.153C219.072 191.156 218.872 191.12 218.685 191.046C218.499 190.972 218.329 190.861 218.187 190.721C218.045 190.581 217.933 190.414 217.858 190.23C217.783 190.046 217.746 189.849 217.749 189.651L217.752 189.673Z" fill="#1FE0EC" style="mix-blend-mode:multiply"/>
<path d="M505.705 196.963L505.714 193.734C505.716 193.335 505.881 192.951 506.174 192.668C506.466 192.385 506.861 192.225 507.273 192.224C507.684 192.222 508.078 192.38 508.367 192.661C508.657 192.942 508.818 193.325 508.816 193.724L508.806 196.945C508.805 197.344 508.641 197.728 508.349 198.012C508.058 198.296 507.663 198.457 507.252 198.459C506.841 198.461 506.447 198.305 506.156 198.024C505.866 197.744 505.704 197.362 505.705 196.963V196.963ZM505.738 186.141L505.75 182.34C505.752 181.941 505.917 181.557 506.209 181.274C506.502 180.991 506.897 180.831 507.308 180.83C507.72 180.828 508.113 180.986 508.403 181.267C508.693 181.548 508.854 181.931 508.852 182.33L508.841 186.131C508.84 186.328 508.799 186.524 508.72 186.707C508.641 186.89 508.526 187.056 508.381 187.197C508.236 187.337 508.065 187.448 507.876 187.525C507.688 187.601 507.486 187.64 507.282 187.641C507.078 187.642 506.877 187.603 506.689 187.528C506.501 187.453 506.331 187.343 506.187 187.204C506.044 187.064 505.93 186.899 505.853 186.716C505.776 186.534 505.737 186.338 505.738 186.141V186.141Z" fill="#1FE0EC" style="mix-blend-mode:multiply"/>
<path d="M498.4 189.69C498.392 189.489 498.426 189.289 498.498 189.102C498.571 188.914 498.682 188.743 498.824 188.599C498.966 188.454 499.136 188.34 499.324 188.262C499.511 188.184 499.713 188.145 499.917 188.146L503.741 188.135C504.143 188.135 504.528 188.292 504.812 188.571C505.095 188.851 505.254 189.231 505.253 189.627C505.251 190.024 505.091 190.404 504.806 190.684C504.521 190.965 504.135 191.123 503.733 191.123L499.946 191.129C499.748 191.136 499.551 191.103 499.366 191.034C499.181 190.966 499.012 190.861 498.868 190.727C498.724 190.594 498.609 190.433 498.529 190.255C498.448 190.077 498.405 189.885 498.4 189.69ZM509.869 189.673C509.866 189.474 509.904 189.277 509.98 189.093C510.055 188.909 510.168 188.741 510.311 188.6C510.453 188.46 510.623 188.349 510.81 188.274C510.997 188.199 511.197 188.162 511.398 188.165L514.647 188.155C515.049 188.154 515.434 188.311 515.717 188.591C516.001 188.871 516.159 189.251 516.158 189.647C516.157 190.043 515.997 190.424 515.712 190.704C515.427 190.985 515.041 191.142 514.639 191.143L511.39 191.153C511.189 191.156 510.989 191.12 510.802 191.046C510.616 190.972 510.446 190.861 510.304 190.721C510.162 190.581 510.05 190.414 509.975 190.23C509.899 190.046 509.863 189.849 509.866 189.651L509.869 189.673Z" fill="#1FE0EC" style="mix-blend-mode:multiply"/>
<path d="M213.588 386.037L213.598 382.809C213.6 382.41 213.765 382.026 214.057 381.743C214.35 381.46 214.745 381.3 215.156 381.299C215.568 381.297 215.962 381.455 216.251 381.736C216.541 382.017 216.702 382.4 216.7 382.799L216.69 386.02C216.689 386.419 216.525 386.803 216.233 387.087C215.942 387.371 215.547 387.532 215.136 387.534C214.724 387.536 214.33 387.38 214.04 387.099C213.75 386.819 213.588 386.437 213.588 386.037V386.037ZM213.622 375.215L213.633 371.415C213.635 371.016 213.801 370.632 214.093 370.349C214.385 370.066 214.781 369.906 215.192 369.905C215.603 369.903 215.997 370.061 216.287 370.342C216.576 370.623 216.738 371.006 216.736 371.405L216.724 375.206C216.723 375.403 216.682 375.599 216.603 375.782C216.525 375.965 216.41 376.131 216.265 376.272C216.12 376.412 215.949 376.523 215.76 376.6C215.571 376.676 215.37 376.715 215.166 376.716C214.962 376.717 214.761 376.678 214.573 376.603C214.385 376.528 214.214 376.418 214.071 376.279C213.928 376.139 213.814 375.974 213.737 375.791C213.66 375.609 213.621 375.413 213.622 375.215V375.215Z" fill="#1FE0EC" style="mix-blend-mode:multiply"/>
<path d="M206.284 378.766C206.276 378.565 206.309 378.365 206.382 378.177C206.455 377.99 206.566 377.819 206.708 377.674C206.849 377.53 207.019 377.415 207.207 377.338C207.395 377.26 207.597 377.22 207.8 377.222L211.625 377.211C212.027 377.21 212.412 377.367 212.695 377.647C212.979 377.927 213.137 378.307 213.136 378.703C213.135 379.099 212.975 379.479 212.69 379.76C212.405 380.04 212.019 380.198 211.617 380.199L207.83 380.205C207.632 380.211 207.435 380.179 207.25 380.11C207.065 380.041 206.896 379.937 206.752 379.803C206.608 379.669 206.493 379.509 206.413 379.331C206.332 379.153 206.288 378.961 206.284 378.766ZM217.753 378.748C217.75 378.55 217.787 378.353 217.863 378.168C217.939 377.984 218.052 377.817 218.194 377.676C218.337 377.535 218.507 377.424 218.694 377.349C218.88 377.275 219.08 377.237 219.282 377.24L222.531 377.231C222.933 377.23 223.318 377.387 223.601 377.667C223.884 377.947 224.043 378.327 224.042 378.723C224.041 379.119 223.88 379.499 223.595 379.78C223.31 380.06 222.925 380.218 222.523 380.218L219.274 380.228C219.072 380.232 218.872 380.196 218.686 380.122C218.499 380.047 218.33 379.937 218.188 379.797C218.046 379.657 217.934 379.49 217.858 379.306C217.783 379.122 217.746 378.925 217.75 378.726L217.753 378.748Z" fill="#1FE0EC" style="mix-blend-mode:multiply"/>
<path d="M505.704 386.037L505.713 382.809C505.715 382.41 505.881 382.026 506.173 381.743C506.465 381.46 506.861 381.3 507.272 381.299C507.683 381.297 508.077 381.455 508.367 381.736C508.656 382.017 508.818 382.4 508.816 382.799L508.806 386.02C508.805 386.419 508.64 386.803 508.349 387.087C508.057 387.371 507.663 387.532 507.251 387.534C506.84 387.536 506.446 387.38 506.156 387.099C505.866 386.819 505.703 386.437 505.704 386.037V386.037ZM505.738 375.215L505.749 371.415C505.751 371.016 505.916 370.632 506.209 370.349C506.501 370.066 506.896 369.906 507.308 369.905C507.719 369.903 508.113 370.061 508.403 370.342C508.692 370.623 508.854 371.006 508.852 371.405L508.84 375.206C508.839 375.403 508.798 375.599 508.719 375.782C508.64 375.965 508.525 376.131 508.381 376.272C508.236 376.412 508.064 376.523 507.876 376.6C507.687 376.676 507.485 376.715 507.282 376.716C507.078 376.717 506.876 376.678 506.688 376.603C506.501 376.528 506.33 376.418 506.187 376.279C506.043 376.139 505.93 375.974 505.853 375.791C505.776 375.609 505.737 375.413 505.738 375.215V375.215Z" fill="#1FE0EC" style="mix-blend-mode:multiply"/>
<path d="M498.399 378.766C498.392 378.565 498.425 378.365 498.498 378.177C498.571 377.99 498.682 377.819 498.823 377.674C498.965 377.53 499.135 377.415 499.323 377.338C499.511 377.26 499.713 377.22 499.916 377.222L503.741 377.211C504.143 377.21 504.528 377.367 504.811 377.647C505.095 377.927 505.253 378.307 505.252 378.703C505.251 379.099 505.09 379.479 504.805 379.76C504.521 380.04 504.135 380.198 503.733 380.199L499.945 380.205C499.747 380.211 499.55 380.179 499.365 380.11C499.18 380.041 499.011 379.937 498.868 379.803C498.724 379.669 498.609 379.509 498.528 379.331C498.448 379.153 498.404 378.961 498.399 378.766ZM509.869 378.748C509.866 378.55 509.903 378.353 509.979 378.168C510.055 377.984 510.167 377.817 510.31 377.676C510.453 377.535 510.623 377.424 510.809 377.349C510.996 377.275 511.196 377.237 511.397 377.24L514.647 377.231C515.048 377.23 515.433 377.387 515.717 377.667C516 377.947 516.159 378.327 516.158 378.723C516.157 379.119 515.996 379.499 515.711 379.78C515.426 380.06 515.04 380.218 514.639 380.218L511.389 380.228C511.188 380.232 510.988 380.196 510.802 380.122C510.615 380.047 510.446 379.937 510.304 379.797C510.161 379.657 510.049 379.49 509.974 379.306C509.899 379.122 509.862 378.925 509.866 378.726L509.869 378.748Z" fill="#1FE0EC" style="mix-blend-mode:multiply"/>
<rect x="702.802" y="745.96" width="13.1982" height="13.1982" transform="rotate(-90 702.802 745.96)" fill="#022A2F" fill-opacity="0.35"/>
<rect x="702.802" y="731.663" width="13.1982" height="13.1982" transform="rotate(-90 702.802 731.663)" fill="#022A2F" fill-opacity="0.25"/>
<path d="M615.511 191.996L603.884 200.387L586.864 176.814L555.105 191.619L534.596 163.218L502.86 178.021L482.352 149.619L450.594 164.449L430.083 136.023L398.349 150.85L374.352 117.62L385.978 109.229L403.023 132.825L434.781 117.995L455.292 146.421L487.05 131.592L507.534 159.995L539.294 145.19L559.803 173.592L591.537 158.764L615.511 191.996Z" fill="url(#paint4_linear_1333_5)"/>
<defs>
<linearGradient id="paint0_linear_1333_5" x1="144.342" y1="122.349" x2="307.874" y2="589.544" gradientUnits="userSpaceOnUse">
<stop stop-color="#FFEE53"/>
<stop offset="1" stop-color="#FF2E00"/>
</linearGradient>
<linearGradient id="paint1_linear_1333_5" x1="443.238" y1="192.739" x2="443.238" y2="659.073" gradientUnits="userSpaceOnUse">
<stop stop-color="#00F0FF"/>
<stop offset="1" stop-color="#FEC8FF"/>
</linearGradient>
<linearGradient id="paint2_linear_1333_5" x1="295.275" y1="376.355" x2="349.824" y2="239.921" gradientUnits="userSpaceOnUse">
<stop stop-color="#1EEEA3"/>
<stop offset="1" stop-color="#32D7FB" stop-opacity="0.75"/>
</linearGradient>
<linearGradient id="paint3_linear_1333_5" x1="95.415" y1="524.996" x2="178.891" y2="476.801" gradientUnits="userSpaceOnUse">
<stop stop-color="#1EEEA3"/>
<stop offset="1" stop-color="#32D7FB" stop-opacity="0.75"/>
</linearGradient>
<linearGradient id="paint4_linear_1333_5" x1="377.54" y1="163.047" x2="612.322" y2="146.569" gradientUnits="userSpaceOnUse">
<stop stop-color="#1E8AEE"/>
<stop offset="1" stop-color="#FF94E7" stop-opacity="0.75"/>
</linearGradient>
</defs>
</svg>
