<svg width="2603" height="612" viewBox="0 0 2603 612" fill="none" xmlns="http://www.w3.org/2000/svg">
<mask id="path-1-outside-1_287_13" maskUnits="userSpaceOnUse" x="0" y="0" width="2603" height="612" fill="black">
<rect fill="white" width="2603" height="612"/>
<path d="M37.8025 142.383V104.967H84.4191C90.3484 104.967 95.7665 103.74 100.674 101.287C105.581 98.8331 109.465 95.2551 112.328 90.5525C115.19 85.85 116.621 80.1252 116.621 73.3781C116.621 66.8354 115.19 61.2129 112.328 56.5103C109.465 51.8078 105.581 48.2298 100.674 45.7763C95.7665 43.3228 90.3484 42.096 84.4191 42.096H37.8025V4.68025H91.4729C105.172 4.68025 117.541 7.44043 128.582 12.9608C139.623 18.4812 148.312 26.455 154.651 36.8824C161.193 47.1053 164.465 59.2705 164.465 73.3781C164.465 87.4857 161.193 99.7531 154.651 110.18C148.312 120.403 139.623 128.377 128.582 134.102C117.541 139.622 105.172 142.383 91.4729 142.383H37.8025ZM1 221.201V4.68025H49.15V221.201H1ZM211.417 131.955V96.3796H257.113C266.723 96.3796 274.083 93.9261 279.195 89.0191C284.51 84.1121 287.168 77.4672 287.168 69.0845C287.168 61.3151 284.613 54.8746 279.501 49.7632C274.39 44.6518 267.029 42.096 257.42 42.096H211.417V4.68025H262.94C277.252 4.68025 289.826 7.44043 300.663 12.9608C311.499 18.2767 319.984 25.7394 326.118 35.3489C332.252 44.9584 335.318 55.9992 335.318 68.4711C335.318 81.1475 332.252 92.2904 326.118 101.9C319.984 111.305 311.397 118.665 300.356 123.981C289.315 129.297 276.332 131.955 261.407 131.955H211.417ZM174.614 221.201V4.68025H222.764V221.201H174.614ZM292.382 221.201L224.911 127.968L269.074 116.008L349.426 221.201H292.382ZM455.775 224.881C439.418 224.881 424.288 222.019 410.385 216.294C396.686 210.569 384.623 202.595 374.196 192.373C363.769 182.15 355.692 170.291 349.968 156.797C344.243 143.098 341.38 128.377 341.38 112.634C341.38 96.6863 344.243 81.9653 349.968 68.4711C355.692 54.9769 363.666 43.2206 373.889 33.2021C384.112 22.9792 396.073 15.1076 409.772 9.58723C423.675 3.86241 438.805 1 455.161 1C471.314 1 486.239 3.86241 499.938 9.58723C513.841 15.1076 525.904 22.9792 536.127 33.2021C546.554 43.2206 554.631 55.0791 560.355 68.7778C566.08 82.272 568.943 96.993 568.943 112.941C568.943 128.684 566.08 143.405 560.355 157.104C554.631 170.598 546.657 182.456 536.434 192.679C526.211 202.698 514.148 210.569 500.245 216.294C486.546 222.019 471.723 224.881 455.775 224.881ZM455.161 181.025C468.042 181.025 479.288 178.163 488.897 172.438C498.711 166.713 506.276 158.739 511.592 148.516C516.908 138.089 519.566 126.128 519.566 112.634C519.566 102.411 518.032 93.2105 514.966 85.0322C511.899 76.6494 507.503 69.4934 501.778 63.5641C496.053 57.4304 489.204 52.8301 481.23 49.7632C473.461 46.4919 464.771 44.8562 455.161 44.8562C442.281 44.8562 430.933 47.7186 421.119 53.4434C411.51 58.9638 404.047 66.8354 398.731 77.0583C393.415 87.0768 390.757 98.9353 390.757 112.634C390.757 122.857 392.29 132.16 395.357 140.542C398.424 148.925 402.718 156.184 408.238 162.317C413.963 168.247 420.812 172.847 428.786 176.118C436.76 179.389 445.552 181.025 455.161 181.025ZM615.149 221.201V178.878H668.82C681.905 178.878 693.355 176.323 703.169 171.211C712.983 165.895 720.548 158.228 725.864 148.21C731.18 138.191 733.838 126.333 733.838 112.634C733.838 98.9353 731.077 87.179 725.557 77.365C720.241 67.551 712.676 59.9861 702.862 54.6702C693.253 49.3543 681.905 46.6963 668.82 46.6963H613.616V4.68025H669.433C685.79 4.68025 700.818 7.3382 714.516 12.6541C728.419 17.7656 740.483 25.2283 750.706 35.0422C761.133 44.6518 769.107 56.1014 774.627 69.3912C780.352 82.4765 783.214 96.993 783.214 112.941C783.214 128.684 780.352 143.2 774.627 156.49C769.107 169.78 761.235 181.23 751.012 190.839C740.789 200.449 728.726 207.911 714.823 213.227C701.124 218.543 686.199 221.201 670.047 221.201H615.149ZM582.641 221.201V4.68025H630.791V221.201H582.641ZM884.086 224.575C866.298 224.575 850.555 220.792 836.856 213.227C823.362 205.662 812.73 195.235 804.961 181.945C797.396 168.451 793.613 153.117 793.613 135.942V4.68025H842.07V138.702C842.07 147.29 843.91 154.752 847.59 161.09C851.27 167.429 856.28 172.336 862.618 175.811C869.16 179.083 876.316 180.718 884.086 180.718C892.264 180.718 899.42 179.083 905.554 175.811C911.688 172.336 916.493 167.531 919.968 161.397C923.649 155.059 925.489 147.596 925.489 139.009V4.68025H973.945V136.249C973.945 153.423 970.163 168.655 962.598 181.945C955.033 195.235 944.503 205.662 931.009 213.227C917.515 220.792 901.874 224.575 884.086 224.575ZM1098.2 224.575C1082.05 224.575 1067.02 221.814 1053.12 216.294C1039.42 210.569 1027.35 202.595 1016.93 192.373C1006.7 182.15 998.73 170.291 993.006 156.797C987.281 143.098 984.418 128.377 984.418 112.634C984.418 96.8907 987.281 82.272 993.006 68.7778C998.73 55.0791 1006.7 43.2206 1016.93 33.2021C1027.15 23.1837 1039.11 15.4143 1052.81 9.89393C1066.71 4.16911 1081.74 1.3067 1097.89 1.3067C1115.07 1.3067 1130.3 4.06688 1143.59 9.58723C1157.08 15.1076 1168.84 22.6725 1178.86 32.282L1146.66 64.7908C1140.93 58.6571 1133.98 53.8524 1125.8 50.3766C1117.83 46.9008 1108.52 45.1629 1097.89 45.1629C1088.49 45.1629 1079.8 46.7986 1071.82 50.0699C1064.05 53.1368 1057.31 57.6348 1051.58 63.5641C1046.06 69.4934 1041.67 76.6494 1038.4 85.0322C1035.33 93.4149 1033.8 102.616 1033.8 112.634C1033.8 122.857 1035.33 132.16 1038.4 140.542C1041.67 148.925 1046.06 156.081 1051.58 162.011C1057.31 167.94 1064.05 172.54 1071.82 175.811C1079.8 179.083 1088.49 180.718 1097.89 180.718C1108.93 180.718 1118.54 178.981 1126.72 175.505C1134.9 172.029 1141.95 167.224 1147.88 161.09L1180.39 193.599C1169.96 203.209 1158 210.774 1144.51 216.294C1131.22 221.814 1115.78 224.575 1098.2 224.575ZM1239.5 221.201V7.74711H1287.65V221.201H1239.5ZM1171.72 46.6963V4.68025H1355.43V46.6963H1171.72ZM1537.44 221.201L1438.07 112.021C1430.3 103.433 1424.68 95.3573 1421.21 87.7924C1417.73 80.023 1415.99 71.538 1415.99 62.3374C1415.99 51.2966 1418.75 41.176 1424.27 31.9754C1430 22.5703 1437.67 15.1076 1447.27 9.58723C1457.09 3.86241 1468.44 1 1481.32 1C1491.34 1 1500.23 2.53344 1508 5.60032C1515.77 8.46272 1522.52 12.2452 1528.24 16.9477C1533.97 21.4458 1538.36 26.2505 1541.43 31.362L1510.15 61.1106C1506.06 55.5903 1501.76 51.3989 1497.27 48.5365C1492.97 45.674 1487.86 44.2428 1481.93 44.2428C1475.8 44.2428 1470.69 46.083 1466.6 49.7632C1462.71 53.239 1460.77 57.6348 1460.77 62.9507C1460.77 67.4488 1461.69 71.4357 1463.53 74.9115C1465.57 78.3873 1468.44 82.272 1472.12 86.5656L1592.34 221.201H1537.44ZM1466.29 224.575C1451.57 224.575 1438.69 221.712 1427.65 215.987C1416.81 210.058 1408.33 202.084 1402.19 192.066C1396.26 181.843 1393.3 170.496 1393.3 158.024C1393.3 144.529 1396.88 132.569 1404.03 122.141C1411.19 111.509 1421.92 102.922 1436.23 96.3796L1456.17 126.742C1450.04 129.604 1445.43 133.386 1442.37 138.089C1439.3 142.792 1437.77 148.414 1437.77 154.957C1437.77 160.273 1438.89 164.975 1441.14 169.064C1443.59 172.949 1447.07 176.016 1451.57 178.265C1456.07 180.514 1461.38 181.639 1467.52 181.639C1474.47 181.639 1480.4 180.207 1485.3 177.345C1490.42 174.278 1494.71 170.087 1498.19 164.771L1529.77 197.28C1526.3 201.778 1521.29 206.173 1514.75 210.467C1508.41 214.556 1501.05 217.93 1492.66 220.588C1484.49 223.246 1475.69 224.575 1466.29 224.575ZM1694.7 221.201L1611.28 4.68025H1662.8L1726.28 179.798H1705.12L1769.53 4.68025H1820.44L1736.1 221.201H1694.7ZM1828.99 221.201V4.68025H1877.14V221.201H1828.99ZM1962.8 224.575C1945.01 224.575 1929.68 221.712 1916.79 215.987C1904.12 210.058 1892.46 201.164 1881.83 189.306L1913.11 158.33C1920.07 166.304 1927.73 172.54 1936.12 177.038C1944.7 181.332 1954.62 183.479 1965.86 183.479C1976.09 183.479 1983.96 181.639 1989.48 177.958C1995.2 174.278 1998.07 169.167 1998.07 162.624C1998.07 156.695 1996.23 151.89 1992.55 148.21C1988.87 144.529 1983.96 141.36 1977.83 138.702C1971.9 136.044 1965.25 133.489 1957.89 131.035C1950.73 128.582 1943.58 125.822 1936.42 122.755C1929.27 119.483 1922.62 115.496 1916.49 110.794C1910.56 105.887 1905.75 99.8554 1902.07 92.6993C1898.39 85.3389 1896.55 76.1383 1896.55 65.0975C1896.55 51.8078 1899.72 40.3581 1906.06 30.7486C1912.6 21.1391 1921.6 13.8808 1933.05 8.97386C1944.5 3.86242 1957.69 1.3067 1972.61 1.3067C1987.74 1.3067 2001.54 3.96465 2014.01 9.28055C2026.69 14.5965 2037.12 21.8547 2045.3 31.0553L2014.01 62.0307C2007.47 55.2836 2000.83 50.2743 1994.08 47.003C1987.54 43.7317 1980.07 42.096 1971.69 42.096C1963.31 42.096 1956.66 43.7317 1951.76 47.003C1946.85 50.0699 1944.4 54.568 1944.4 60.4972C1944.4 66.0176 1946.24 70.5157 1949.92 73.9915C1953.6 77.2628 1958.4 80.1252 1964.33 82.5787C1970.47 85.0322 1977.11 87.4857 1984.27 89.9392C1991.63 92.3927 1998.88 95.2551 2006.04 98.5264C2013.2 101.798 2019.74 105.989 2025.67 111.101C2031.8 116.008 2036.71 122.346 2040.39 130.115C2044.07 137.68 2045.91 147.085 2045.91 158.33C2045.91 178.981 2038.55 195.235 2023.83 207.094C2009.11 218.748 1988.76 224.575 1962.8 224.575ZM2150.41 224.575C2132.62 224.575 2116.88 220.792 2103.18 213.227C2089.68 205.662 2079.05 195.235 2071.28 181.945C2063.72 168.451 2059.93 153.117 2059.93 135.942V4.68025H2108.39V138.702C2108.39 147.29 2110.23 154.752 2113.91 161.09C2117.59 167.429 2122.6 172.336 2128.94 175.811C2135.48 179.083 2142.64 180.718 2150.41 180.718C2158.59 180.718 2165.74 179.083 2171.88 175.811C2178.01 172.336 2182.81 167.531 2186.29 161.397C2189.97 155.059 2191.81 147.596 2191.81 139.009V4.68025H2240.27V136.249C2240.27 153.423 2236.48 168.655 2228.92 181.945C2221.35 195.235 2210.82 205.662 2197.33 213.227C2183.84 220.792 2168.19 224.575 2150.41 224.575ZM2237.44 221.201L2323.31 4.68025H2366.86L2451.81 221.201H2400.9L2335.89 41.4827H2353.37L2287.43 221.201H2237.44ZM2286.2 181.945V142.689H2404.28V181.945H2286.2ZM2457.86 221.201V4.68025H2506.01V221.201H2457.86ZM2494.97 221.201V178.878H2602V221.201H2494.97ZM33.5089 607.626V565.304H87.1793C100.265 565.304 111.714 562.748 121.528 557.636C131.342 552.321 138.907 544.653 144.223 534.635C149.539 524.617 152.197 512.758 152.197 499.059C152.197 485.361 149.437 473.604 143.917 463.79C138.601 453.976 131.036 446.411 121.222 441.095C111.612 435.78 100.265 433.122 87.1793 433.122H31.9755V391.106H87.7926C104.149 391.106 119.177 393.764 132.876 399.079C146.779 404.191 158.842 411.654 169.065 421.468C179.492 431.077 187.466 442.527 192.987 455.816C198.711 468.902 201.574 483.418 201.574 499.366C201.574 515.109 198.711 529.626 192.987 542.915C187.466 556.205 179.595 567.655 169.372 577.264C159.149 586.874 147.086 594.337 133.182 599.653C119.484 604.969 104.558 607.626 88.406 607.626H33.5089ZM1 607.626V391.106H49.15V607.626H1ZM215.346 607.626V391.106H263.496V607.626H215.346ZM252.149 607.626V565.917H370.837V607.626H252.149ZM252.149 517.154V476.978H360.103V517.154H252.149ZM252.149 432.508V391.106H369.303V432.508H252.149ZM446.79 611C429.002 611 413.668 608.138 400.787 602.413C388.11 596.483 376.456 587.59 365.824 575.731L397.106 544.756C404.058 552.729 411.725 558.965 420.108 563.464C428.695 567.757 438.612 569.904 449.857 569.904C460.08 569.904 467.951 568.064 473.472 564.384C479.197 560.703 482.059 555.592 482.059 549.049C482.059 543.12 480.219 538.315 476.539 534.635C472.858 530.955 467.951 527.786 461.818 525.128C455.888 522.47 449.243 519.914 441.883 517.461C434.727 515.007 427.571 512.247 420.415 509.18C413.259 505.909 406.614 501.922 400.48 497.219C394.551 492.312 389.746 486.281 386.066 479.125C382.385 471.764 380.545 462.564 380.545 451.523C380.545 438.233 383.714 426.783 390.053 417.174C396.595 407.564 405.591 400.306 417.041 395.399C428.491 390.288 441.678 387.732 456.604 387.732C471.734 387.732 485.535 390.39 498.007 395.706C510.683 401.022 521.111 408.28 529.289 417.481L498.007 448.456C491.464 441.709 484.819 436.7 478.072 433.428C471.529 430.157 464.067 428.521 455.684 428.521C447.301 428.521 440.656 430.157 435.749 433.428C430.842 436.495 428.389 440.993 428.389 446.923C428.389 452.443 430.229 456.941 433.909 460.417C437.589 463.688 442.394 466.551 448.323 469.004C454.457 471.458 461.102 473.911 468.258 476.364C475.618 478.818 482.877 481.68 490.033 484.952C497.189 488.223 503.732 492.414 509.661 497.526C515.795 502.433 520.702 508.771 524.382 516.54C528.062 524.105 529.902 533.51 529.902 544.756C529.902 565.406 522.542 581.66 507.821 593.519C493.1 605.173 472.756 611 446.79 611ZM543.706 607.626V391.106H591.856V607.626H543.706ZM718.815 611C703.071 611 688.248 608.138 674.345 602.413C660.646 596.688 648.685 588.816 638.463 578.798C628.24 568.575 620.164 556.716 614.234 543.222C608.509 529.523 605.647 514.803 605.647 499.059C605.647 483.316 608.612 468.697 614.541 455.203C620.47 441.709 628.649 429.953 639.076 419.934C649.708 409.711 662.078 401.84 676.185 396.319C690.293 390.594 705.423 387.732 721.575 387.732C740.181 387.732 757.048 391.106 772.178 397.853C787.513 404.6 800.189 413.903 810.208 425.761L777.392 458.577C770.44 449.58 762.262 442.833 752.857 438.335C743.452 433.837 732.82 431.588 720.962 431.588C708.285 431.588 696.938 434.451 686.919 440.175C676.901 445.696 669.029 453.567 663.304 463.79C657.784 473.809 655.024 485.565 655.024 499.059C655.024 512.554 657.784 524.412 663.304 534.635C668.825 544.858 676.39 552.832 685.999 558.557C695.609 564.281 706.649 567.144 719.121 567.144C731.798 567.144 742.532 564.792 751.324 560.09C760.32 555.183 767.169 548.231 771.872 539.235C776.779 530.035 779.232 518.892 779.232 505.806L811.128 527.274L714.521 525.741V484.952H828.302V492.006C828.302 517.972 823.6 539.849 814.195 557.636C804.994 575.22 792.113 588.51 775.552 597.506C759.195 606.502 740.283 611 718.815 611ZM840.618 607.626V391.106H874.353L888.768 434.348V607.626H840.618ZM989.975 607.626L862.393 444.162L874.353 391.106L1001.94 554.57L989.975 607.626ZM989.975 607.626L977.094 564.384V391.106H1025.24V607.626H989.975ZM1050.17 607.626V391.106H1098.32V607.626H1050.17ZM1086.97 607.626V565.917H1205.66V607.626H1086.97ZM1086.97 517.154V476.978H1194.93V517.154H1086.97ZM1086.97 432.508V391.106H1204.13V432.508H1086.97ZM1258.79 518.381V482.805H1304.49C1314.1 482.805 1321.46 480.351 1326.57 475.444C1331.89 470.537 1334.54 463.893 1334.54 455.51C1334.54 447.74 1331.99 441.3 1326.88 436.189C1321.76 431.077 1314.4 428.521 1304.79 428.521H1258.79V391.106H1310.31C1324.63 391.106 1337.2 393.866 1348.04 399.386C1358.87 404.702 1367.36 412.165 1373.49 421.774C1379.63 431.384 1382.69 442.424 1382.69 454.896C1382.69 467.573 1379.63 478.716 1373.49 488.325C1367.36 497.73 1358.77 505.091 1347.73 510.407C1336.69 515.723 1323.71 518.381 1308.78 518.381H1258.79ZM1221.99 607.626V391.106H1270.14V607.626H1221.99ZM1339.76 607.626L1272.29 514.394L1316.45 502.433L1396.8 607.626H1339.76Z"/>
</mask>
<path d="M37.8025 142.383V104.967H84.4191C90.3484 104.967 95.7665 103.74 100.674 101.287C105.581 98.8331 109.465 95.2551 112.328 90.5525C115.19 85.85 116.621 80.1252 116.621 73.3781C116.621 66.8354 115.19 61.2129 112.328 56.5103C109.465 51.8078 105.581 48.2298 100.674 45.7763C95.7665 43.3228 90.3484 42.096 84.4191 42.096H37.8025V4.68025H91.4729C105.172 4.68025 117.541 7.44043 128.582 12.9608C139.623 18.4812 148.312 26.455 154.651 36.8824C161.193 47.1053 164.465 59.2705 164.465 73.3781C164.465 87.4857 161.193 99.7531 154.651 110.18C148.312 120.403 139.623 128.377 128.582 134.102C117.541 139.622 105.172 142.383 91.4729 142.383H37.8025ZM1 221.201V4.68025H49.15V221.201H1ZM211.417 131.955V96.3796H257.113C266.723 96.3796 274.083 93.9261 279.195 89.0191C284.51 84.1121 287.168 77.4672 287.168 69.0845C287.168 61.3151 284.613 54.8746 279.501 49.7632C274.39 44.6518 267.029 42.096 257.42 42.096H211.417V4.68025H262.94C277.252 4.68025 289.826 7.44043 300.663 12.9608C311.499 18.2767 319.984 25.7394 326.118 35.3489C332.252 44.9584 335.318 55.9992 335.318 68.4711C335.318 81.1475 332.252 92.2904 326.118 101.9C319.984 111.305 311.397 118.665 300.356 123.981C289.315 129.297 276.332 131.955 261.407 131.955H211.417ZM174.614 221.201V4.68025H222.764V221.201H174.614ZM292.382 221.201L224.911 127.968L269.074 116.008L349.426 221.201H292.382ZM455.775 224.881C439.418 224.881 424.288 222.019 410.385 216.294C396.686 210.569 384.623 202.595 374.196 192.373C363.769 182.15 355.692 170.291 349.968 156.797C344.243 143.098 341.38 128.377 341.38 112.634C341.38 96.6863 344.243 81.9653 349.968 68.4711C355.692 54.9769 363.666 43.2206 373.889 33.2021C384.112 22.9792 396.073 15.1076 409.772 9.58723C423.675 3.86241 438.805 1 455.161 1C471.314 1 486.239 3.86241 499.938 9.58723C513.841 15.1076 525.904 22.9792 536.127 33.2021C546.554 43.2206 554.631 55.0791 560.355 68.7778C566.08 82.272 568.943 96.993 568.943 112.941C568.943 128.684 566.08 143.405 560.355 157.104C554.631 170.598 546.657 182.456 536.434 192.679C526.211 202.698 514.148 210.569 500.245 216.294C486.546 222.019 471.723 224.881 455.775 224.881ZM455.161 181.025C468.042 181.025 479.288 178.163 488.897 172.438C498.711 166.713 506.276 158.739 511.592 148.516C516.908 138.089 519.566 126.128 519.566 112.634C519.566 102.411 518.032 93.2105 514.966 85.0322C511.899 76.6494 507.503 69.4934 501.778 63.5641C496.053 57.4304 489.204 52.8301 481.23 49.7632C473.461 46.4919 464.771 44.8562 455.161 44.8562C442.281 44.8562 430.933 47.7186 421.119 53.4434C411.51 58.9638 404.047 66.8354 398.731 77.0583C393.415 87.0768 390.757 98.9353 390.757 112.634C390.757 122.857 392.29 132.16 395.357 140.542C398.424 148.925 402.718 156.184 408.238 162.317C413.963 168.247 420.812 172.847 428.786 176.118C436.76 179.389 445.552 181.025 455.161 181.025ZM615.149 221.201V178.878H668.82C681.905 178.878 693.355 176.323 703.169 171.211C712.983 165.895 720.548 158.228 725.864 148.21C731.18 138.191 733.838 126.333 733.838 112.634C733.838 98.9353 731.077 87.179 725.557 77.365C720.241 67.551 712.676 59.9861 702.862 54.6702C693.253 49.3543 681.905 46.6963 668.82 46.6963H613.616V4.68025H669.433C685.79 4.68025 700.818 7.3382 714.516 12.6541C728.419 17.7656 740.483 25.2283 750.706 35.0422C761.133 44.6518 769.107 56.1014 774.627 69.3912C780.352 82.4765 783.214 96.993 783.214 112.941C783.214 128.684 780.352 143.2 774.627 156.49C769.107 169.78 761.235 181.23 751.012 190.839C740.789 200.449 728.726 207.911 714.823 213.227C701.124 218.543 686.199 221.201 670.047 221.201H615.149ZM582.641 221.201V4.68025H630.791V221.201H582.641ZM884.086 224.575C866.298 224.575 850.555 220.792 836.856 213.227C823.362 205.662 812.73 195.235 804.961 181.945C797.396 168.451 793.613 153.117 793.613 135.942V4.68025H842.07V138.702C842.07 147.29 843.91 154.752 847.59 161.09C851.27 167.429 856.28 172.336 862.618 175.811C869.16 179.083 876.316 180.718 884.086 180.718C892.264 180.718 899.42 179.083 905.554 175.811C911.688 172.336 916.493 167.531 919.968 161.397C923.649 155.059 925.489 147.596 925.489 139.009V4.68025H973.945V136.249C973.945 153.423 970.163 168.655 962.598 181.945C955.033 195.235 944.503 205.662 931.009 213.227C917.515 220.792 901.874 224.575 884.086 224.575ZM1098.2 224.575C1082.05 224.575 1067.02 221.814 1053.12 216.294C1039.42 210.569 1027.35 202.595 1016.93 192.373C1006.7 182.15 998.73 170.291 993.006 156.797C987.281 143.098 984.418 128.377 984.418 112.634C984.418 96.8907 987.281 82.272 993.006 68.7778C998.73 55.0791 1006.7 43.2206 1016.93 33.2021C1027.15 23.1837 1039.11 15.4143 1052.81 9.89393C1066.71 4.16911 1081.74 1.3067 1097.89 1.3067C1115.07 1.3067 1130.3 4.06688 1143.59 9.58723C1157.08 15.1076 1168.84 22.6725 1178.86 32.282L1146.66 64.7908C1140.93 58.6571 1133.98 53.8524 1125.8 50.3766C1117.83 46.9008 1108.52 45.1629 1097.89 45.1629C1088.49 45.1629 1079.8 46.7986 1071.82 50.0699C1064.05 53.1368 1057.31 57.6348 1051.58 63.5641C1046.06 69.4934 1041.67 76.6494 1038.4 85.0322C1035.33 93.4149 1033.8 102.616 1033.8 112.634C1033.8 122.857 1035.33 132.16 1038.4 140.542C1041.67 148.925 1046.06 156.081 1051.58 162.011C1057.31 167.94 1064.05 172.54 1071.82 175.811C1079.8 179.083 1088.49 180.718 1097.89 180.718C1108.93 180.718 1118.54 178.981 1126.72 175.505C1134.9 172.029 1141.95 167.224 1147.88 161.09L1180.39 193.599C1169.96 203.209 1158 210.774 1144.51 216.294C1131.22 221.814 1115.78 224.575 1098.2 224.575ZM1239.5 221.201V7.74711H1287.65V221.201H1239.5ZM1171.72 46.6963V4.68025H1355.43V46.6963H1171.72ZM1537.44 221.201L1438.07 112.021C1430.3 103.433 1424.68 95.3573 1421.21 87.7924C1417.73 80.023 1415.99 71.538 1415.99 62.3374C1415.99 51.2966 1418.75 41.176 1424.27 31.9754C1430 22.5703 1437.67 15.1076 1447.27 9.58723C1457.09 3.86241 1468.44 1 1481.32 1C1491.34 1 1500.23 2.53344 1508 5.60032C1515.77 8.46272 1522.52 12.2452 1528.24 16.9477C1533.97 21.4458 1538.36 26.2505 1541.43 31.362L1510.15 61.1106C1506.06 55.5903 1501.76 51.3989 1497.27 48.5365C1492.97 45.674 1487.86 44.2428 1481.93 44.2428C1475.8 44.2428 1470.69 46.083 1466.6 49.7632C1462.71 53.239 1460.77 57.6348 1460.77 62.9507C1460.77 67.4488 1461.69 71.4357 1463.53 74.9115C1465.57 78.3873 1468.44 82.272 1472.12 86.5656L1592.34 221.201H1537.44ZM1466.29 224.575C1451.57 224.575 1438.69 221.712 1427.65 215.987C1416.81 210.058 1408.33 202.084 1402.19 192.066C1396.26 181.843 1393.3 170.496 1393.3 158.024C1393.3 144.529 1396.88 132.569 1404.03 122.141C1411.19 111.509 1421.92 102.922 1436.23 96.3796L1456.17 126.742C1450.04 129.604 1445.43 133.386 1442.37 138.089C1439.3 142.792 1437.77 148.414 1437.77 154.957C1437.77 160.273 1438.89 164.975 1441.14 169.064C1443.59 172.949 1447.07 176.016 1451.57 178.265C1456.07 180.514 1461.38 181.639 1467.52 181.639C1474.47 181.639 1480.4 180.207 1485.3 177.345C1490.42 174.278 1494.71 170.087 1498.19 164.771L1529.77 197.28C1526.3 201.778 1521.29 206.173 1514.75 210.467C1508.41 214.556 1501.05 217.93 1492.66 220.588C1484.49 223.246 1475.69 224.575 1466.29 224.575ZM1694.7 221.201L1611.28 4.68025H1662.8L1726.28 179.798H1705.12L1769.53 4.68025H1820.44L1736.1 221.201H1694.7ZM1828.99 221.201V4.68025H1877.14V221.201H1828.99ZM1962.8 224.575C1945.01 224.575 1929.68 221.712 1916.79 215.987C1904.12 210.058 1892.46 201.164 1881.83 189.306L1913.11 158.33C1920.07 166.304 1927.73 172.54 1936.12 177.038C1944.7 181.332 1954.62 183.479 1965.86 183.479C1976.09 183.479 1983.96 181.639 1989.48 177.958C1995.2 174.278 1998.07 169.167 1998.07 162.624C1998.07 156.695 1996.23 151.89 1992.55 148.21C1988.87 144.529 1983.96 141.36 1977.83 138.702C1971.9 136.044 1965.25 133.489 1957.89 131.035C1950.73 128.582 1943.58 125.822 1936.42 122.755C1929.27 119.483 1922.62 115.496 1916.49 110.794C1910.56 105.887 1905.75 99.8554 1902.07 92.6993C1898.39 85.3389 1896.55 76.1383 1896.55 65.0975C1896.55 51.8078 1899.72 40.3581 1906.06 30.7486C1912.6 21.1391 1921.6 13.8808 1933.05 8.97386C1944.5 3.86242 1957.69 1.3067 1972.61 1.3067C1987.74 1.3067 2001.54 3.96465 2014.01 9.28055C2026.69 14.5965 2037.12 21.8547 2045.3 31.0553L2014.01 62.0307C2007.47 55.2836 2000.83 50.2743 1994.08 47.003C1987.54 43.7317 1980.07 42.096 1971.69 42.096C1963.31 42.096 1956.66 43.7317 1951.76 47.003C1946.85 50.0699 1944.4 54.568 1944.4 60.4972C1944.4 66.0176 1946.24 70.5157 1949.92 73.9915C1953.6 77.2628 1958.4 80.1252 1964.33 82.5787C1970.47 85.0322 1977.11 87.4857 1984.27 89.9392C1991.63 92.3927 1998.88 95.2551 2006.04 98.5264C2013.2 101.798 2019.74 105.989 2025.67 111.101C2031.8 116.008 2036.71 122.346 2040.39 130.115C2044.07 137.68 2045.91 147.085 2045.91 158.33C2045.91 178.981 2038.55 195.235 2023.83 207.094C2009.11 218.748 1988.76 224.575 1962.8 224.575ZM2150.41 224.575C2132.62 224.575 2116.88 220.792 2103.18 213.227C2089.68 205.662 2079.05 195.235 2071.28 181.945C2063.72 168.451 2059.93 153.117 2059.93 135.942V4.68025H2108.39V138.702C2108.39 147.29 2110.23 154.752 2113.91 161.09C2117.59 167.429 2122.6 172.336 2128.94 175.811C2135.48 179.083 2142.64 180.718 2150.41 180.718C2158.59 180.718 2165.74 179.083 2171.88 175.811C2178.01 172.336 2182.81 167.531 2186.29 161.397C2189.97 155.059 2191.81 147.596 2191.81 139.009V4.68025H2240.27V136.249C2240.27 153.423 2236.48 168.655 2228.92 181.945C2221.35 195.235 2210.82 205.662 2197.33 213.227C2183.84 220.792 2168.19 224.575 2150.41 224.575ZM2237.44 221.201L2323.31 4.68025H2366.86L2451.81 221.201H2400.9L2335.89 41.4827H2353.37L2287.43 221.201H2237.44ZM2286.2 181.945V142.689H2404.28V181.945H2286.2ZM2457.86 221.201V4.68025H2506.01V221.201H2457.86ZM2494.97 221.201V178.878H2602V221.201H2494.97ZM33.5089 607.626V565.304H87.1793C100.265 565.304 111.714 562.748 121.528 557.636C131.342 552.321 138.907 544.653 144.223 534.635C149.539 524.617 152.197 512.758 152.197 499.059C152.197 485.361 149.437 473.604 143.917 463.79C138.601 453.976 131.036 446.411 121.222 441.095C111.612 435.78 100.265 433.122 87.1793 433.122H31.9755V391.106H87.7926C104.149 391.106 119.177 393.764 132.876 399.079C146.779 404.191 158.842 411.654 169.065 421.468C179.492 431.077 187.466 442.527 192.987 455.816C198.711 468.902 201.574 483.418 201.574 499.366C201.574 515.109 198.711 529.626 192.987 542.915C187.466 556.205 179.595 567.655 169.372 577.264C159.149 586.874 147.086 594.337 133.182 599.653C119.484 604.969 104.558 607.626 88.406 607.626H33.5089ZM1 607.626V391.106H49.15V607.626H1ZM215.346 607.626V391.106H263.496V607.626H215.346ZM252.149 607.626V565.917H370.837V607.626H252.149ZM252.149 517.154V476.978H360.103V517.154H252.149ZM252.149 432.508V391.106H369.303V432.508H252.149ZM446.79 611C429.002 611 413.668 608.138 400.787 602.413C388.11 596.483 376.456 587.59 365.824 575.731L397.106 544.756C404.058 552.729 411.725 558.965 420.108 563.464C428.695 567.757 438.612 569.904 449.857 569.904C460.08 569.904 467.951 568.064 473.472 564.384C479.197 560.703 482.059 555.592 482.059 549.049C482.059 543.12 480.219 538.315 476.539 534.635C472.858 530.955 467.951 527.786 461.818 525.128C455.888 522.47 449.243 519.914 441.883 517.461C434.727 515.007 427.571 512.247 420.415 509.18C413.259 505.909 406.614 501.922 400.48 497.219C394.551 492.312 389.746 486.281 386.066 479.125C382.385 471.764 380.545 462.564 380.545 451.523C380.545 438.233 383.714 426.783 390.053 417.174C396.595 407.564 405.591 400.306 417.041 395.399C428.491 390.288 441.678 387.732 456.604 387.732C471.734 387.732 485.535 390.39 498.007 395.706C510.683 401.022 521.111 408.28 529.289 417.481L498.007 448.456C491.464 441.709 484.819 436.7 478.072 433.428C471.529 430.157 464.067 428.521 455.684 428.521C447.301 428.521 440.656 430.157 435.749 433.428C430.842 436.495 428.389 440.993 428.389 446.923C428.389 452.443 430.229 456.941 433.909 460.417C437.589 463.688 442.394 466.551 448.323 469.004C454.457 471.458 461.102 473.911 468.258 476.364C475.618 478.818 482.877 481.68 490.033 484.952C497.189 488.223 503.732 492.414 509.661 497.526C515.795 502.433 520.702 508.771 524.382 516.54C528.062 524.105 529.902 533.51 529.902 544.756C529.902 565.406 522.542 581.66 507.821 593.519C493.1 605.173 472.756 611 446.79 611ZM543.706 607.626V391.106H591.856V607.626H543.706ZM718.815 611C703.071 611 688.248 608.138 674.345 602.413C660.646 596.688 648.685 588.816 638.463 578.798C628.24 568.575 620.164 556.716 614.234 543.222C608.509 529.523 605.647 514.803 605.647 499.059C605.647 483.316 608.612 468.697 614.541 455.203C620.47 441.709 628.649 429.953 639.076 419.934C649.708 409.711 662.078 401.84 676.185 396.319C690.293 390.594 705.423 387.732 721.575 387.732C740.181 387.732 757.048 391.106 772.178 397.853C787.513 404.6 800.189 413.903 810.208 425.761L777.392 458.577C770.44 449.58 762.262 442.833 752.857 438.335C743.452 433.837 732.82 431.588 720.962 431.588C708.285 431.588 696.938 434.451 686.919 440.175C676.901 445.696 669.029 453.567 663.304 463.79C657.784 473.809 655.024 485.565 655.024 499.059C655.024 512.554 657.784 524.412 663.304 534.635C668.825 544.858 676.39 552.832 685.999 558.557C695.609 564.281 706.649 567.144 719.121 567.144C731.798 567.144 742.532 564.792 751.324 560.09C760.32 555.183 767.169 548.231 771.872 539.235C776.779 530.035 779.232 518.892 779.232 505.806L811.128 527.274L714.521 525.741V484.952H828.302V492.006C828.302 517.972 823.6 539.849 814.195 557.636C804.994 575.22 792.113 588.51 775.552 597.506C759.195 606.502 740.283 611 718.815 611ZM840.618 607.626V391.106H874.353L888.768 434.348V607.626H840.618ZM989.975 607.626L862.393 444.162L874.353 391.106L1001.94 554.57L989.975 607.626ZM989.975 607.626L977.094 564.384V391.106H1025.24V607.626H989.975ZM1050.17 607.626V391.106H1098.32V607.626H1050.17ZM1086.97 607.626V565.917H1205.66V607.626H1086.97ZM1086.97 517.154V476.978H1194.93V517.154H1086.97ZM1086.97 432.508V391.106H1204.13V432.508H1086.97ZM1258.79 518.381V482.805H1304.49C1314.1 482.805 1321.46 480.351 1326.57 475.444C1331.89 470.537 1334.54 463.893 1334.54 455.51C1334.54 447.74 1331.99 441.3 1326.88 436.189C1321.76 431.077 1314.4 428.521 1304.79 428.521H1258.79V391.106H1310.31C1324.63 391.106 1337.2 393.866 1348.04 399.386C1358.87 404.702 1367.36 412.165 1373.49 421.774C1379.63 431.384 1382.69 442.424 1382.69 454.896C1382.69 467.573 1379.63 478.716 1373.49 488.325C1367.36 497.73 1358.77 505.091 1347.73 510.407C1336.69 515.723 1323.71 518.381 1308.78 518.381H1258.79ZM1221.99 607.626V391.106H1270.14V607.626H1221.99ZM1339.76 607.626L1272.29 514.394L1316.45 502.433L1396.8 607.626H1339.76Z" fill="#262B33"/>
<path d="M37.8025 142.383H36.8025V143.383H37.8025V142.383ZM37.8025 104.967V103.967H36.8025V104.967H37.8025ZM100.674 101.287L100.226 100.392L100.674 101.287ZM100.674 45.7763L100.226 46.6707L100.674 45.7763ZM37.8025 42.096H36.8025V43.096H37.8025V42.096ZM37.8025 4.68025V3.68025H36.8025V4.68025H37.8025ZM154.651 36.8824L153.796 37.4018L153.802 37.4117L153.808 37.4214L154.651 36.8824ZM154.651 110.18L153.803 109.649L153.801 109.654L154.651 110.18ZM128.582 134.102L129.029 134.996L129.036 134.993L129.042 134.99L128.582 134.102ZM1 221.201H0V222.201H1V221.201ZM1 4.68025V3.68025H0V4.68025H1ZM49.15 4.68025H50.15V3.68025H49.15V4.68025ZM49.15 221.201V222.201H50.15V221.201H49.15ZM211.417 131.955H210.417V132.955H211.417V131.955ZM211.417 96.3796V95.3796H210.417V96.3796H211.417ZM279.195 89.0191L278.516 88.2843L278.509 88.2909L278.502 88.2977L279.195 89.0191ZM279.501 49.7632L278.794 50.4703L279.501 49.7632ZM211.417 42.096H210.417V43.096H211.417V42.096ZM211.417 4.68025V3.68025H210.417V4.68025H211.417ZM300.663 12.9608L300.209 13.8518L300.216 13.8553L300.222 13.8586L300.663 12.9608ZM326.118 35.3489L326.961 34.8109L326.118 35.3489ZM326.118 101.9L326.955 102.446L326.961 102.438L326.118 101.9ZM300.356 123.981L300.79 124.882L300.356 123.981ZM174.614 221.201H173.614V222.201H174.614V221.201ZM174.614 4.68025V3.68025H173.614V4.68025H174.614ZM222.764 4.68025H223.764V3.68025H222.764V4.68025ZM222.764 221.201V222.201H223.764V221.201H222.764ZM292.382 221.201L291.572 221.787L291.871 222.201H292.382V221.201ZM224.911 127.968L224.649 127.003L223.252 127.382L224.101 128.555L224.911 127.968ZM269.074 116.008L269.869 115.401L269.461 114.867L268.812 115.042L269.074 116.008ZM349.426 221.201V222.201H351.448L350.221 220.594L349.426 221.201ZM410.385 216.294L409.999 217.217L410.004 217.219L410.385 216.294ZM374.196 192.373L374.896 191.658L374.196 192.373ZM349.968 156.797L349.045 157.182L349.047 157.187L349.968 156.797ZM349.968 68.4711L349.047 68.0806L349.968 68.4711ZM373.889 33.2021L374.589 33.9164L374.596 33.9092L373.889 33.2021ZM409.772 9.58723L410.145 10.5148L410.152 10.5119L409.772 9.58723ZM499.938 9.58723L499.552 10.5099L499.561 10.5133L499.569 10.5166L499.938 9.58723ZM536.127 33.2021L535.42 33.9092L535.427 33.9163L535.434 33.9232L536.127 33.2021ZM560.355 68.7778L559.433 69.1634L559.435 69.1683L560.355 68.7778ZM560.355 157.104L561.276 157.494L561.278 157.489L560.355 157.104ZM536.434 192.679L537.134 193.393L537.141 193.386L536.434 192.679ZM500.245 216.294L499.864 215.369L499.859 215.371L500.245 216.294ZM488.897 172.438L488.393 171.574L488.385 171.579L488.897 172.438ZM511.592 148.516L512.479 148.978L512.483 148.971L511.592 148.516ZM514.966 85.0322L514.026 85.3758L514.029 85.3833L514.966 85.0322ZM501.778 63.5641L501.047 64.2464L501.053 64.2526L501.059 64.2587L501.778 63.5641ZM481.23 49.7632L480.842 50.6848L480.856 50.6909L480.871 50.6966L481.23 49.7632ZM421.119 53.4434L421.617 54.3106L421.623 54.3072L421.119 53.4434ZM398.731 77.0583L399.614 77.5271L399.618 77.5197L398.731 77.0583ZM395.357 140.542L394.418 140.886L395.357 140.542ZM408.238 162.317L407.495 162.986L407.507 162.999L407.519 163.012L408.238 162.317ZM428.786 176.118L428.407 177.043L428.786 176.118ZM615.149 221.201H614.149V222.201H615.149V221.201ZM615.149 178.878V177.878H614.149V178.878H615.149ZM703.169 171.211L703.631 172.098L703.638 172.094L703.645 172.09L703.169 171.211ZM725.557 77.365L724.678 77.8413L724.682 77.8483L724.686 77.8553L725.557 77.365ZM702.862 54.6702L702.378 55.5453L702.386 55.5495L702.862 54.6702ZM613.616 46.6963H612.616V47.6963H613.616V46.6963ZM613.616 4.68025V3.68025H612.616V4.68025H613.616ZM714.516 12.6541L714.155 13.5864L714.163 13.5896L714.171 13.5927L714.516 12.6541ZM750.706 35.0422L750.013 35.7636L750.02 35.7707L750.028 35.7776L750.706 35.0422ZM774.627 69.3912L773.704 69.7748L773.707 69.7834L773.711 69.792L774.627 69.3912ZM774.627 156.49L773.709 156.095L773.704 156.107L774.627 156.49ZM714.823 213.227L714.466 212.293L714.461 212.295L714.823 213.227ZM582.641 221.201H581.641V222.201H582.641V221.201ZM582.641 4.68025V3.68025H581.641V4.68025H582.641ZM630.791 4.68025H631.791V3.68025H630.791V4.68025ZM630.791 221.201V222.201H631.791V221.201H630.791ZM836.856 213.227L836.367 214.1L836.373 214.103L836.856 213.227ZM804.961 181.945L804.088 182.434L804.093 182.442L804.097 182.45L804.961 181.945ZM793.613 4.68025V3.68025H792.613V4.68025H793.613ZM842.07 4.68025H843.07V3.68025H842.07V4.68025ZM862.618 175.811L862.137 176.688L862.154 176.697L862.171 176.706L862.618 175.811ZM905.554 175.811L906.025 176.694L906.036 176.688L906.047 176.681L905.554 175.811ZM919.968 161.397L919.104 160.895L919.098 160.904L919.968 161.397ZM925.489 4.68025V3.68025H924.489V4.68025H925.489ZM973.945 4.68025H974.945V3.68025H973.945V4.68025ZM962.598 181.945L961.729 181.451L962.598 181.945ZM931.009 213.227L930.52 212.355L931.009 213.227ZM1053.12 216.294L1052.73 217.217L1052.74 217.22L1052.75 217.224L1053.12 216.294ZM1016.93 192.373L1016.22 193.08L1016.23 193.087L1016.93 192.373ZM993.006 156.797L992.083 157.182L992.085 157.187L993.006 156.797ZM993.006 68.7778L993.926 69.1683L993.928 69.1634L993.006 68.7778ZM1016.93 33.2021L1017.63 33.9163L1016.93 33.2021ZM1052.81 9.89393L1053.18 10.8215L1053.19 10.8186L1052.81 9.89393ZM1143.59 9.58723L1143.21 10.5107L1143.21 10.5128L1143.59 9.58723ZM1178.86 32.282L1179.57 32.9858L1180.28 32.2638L1179.55 31.5604L1178.86 32.282ZM1146.66 64.7908L1145.93 65.4732L1146.63 66.2335L1147.37 65.4946L1146.66 64.7908ZM1125.8 50.3766L1125.4 51.2933L1125.41 51.2969L1125.8 50.3766ZM1071.82 50.0699L1072.19 51.0001L1072.2 50.9951L1071.82 50.0699ZM1051.58 63.5641L1050.86 62.8695L1050.86 62.876L1050.85 62.8827L1051.58 63.5641ZM1038.4 85.0322L1037.46 84.6686L1037.46 84.6786L1037.46 84.6886L1038.4 85.0322ZM1038.4 140.542L1037.46 140.886L1037.46 140.896L1037.46 140.906L1038.4 140.542ZM1051.58 162.011L1050.85 162.692L1050.86 162.699L1050.86 162.705L1051.58 162.011ZM1071.82 175.811L1071.44 176.733L1071.44 176.737L1071.82 175.811ZM1147.88 161.09L1148.59 160.383L1147.87 159.664L1147.16 160.395L1147.88 161.09ZM1180.39 193.599L1181.07 194.335L1181.84 193.629L1181.1 192.892L1180.39 193.599ZM1144.51 216.294L1144.13 215.369L1144.13 215.371L1144.51 216.294ZM1239.5 221.201H1238.5V222.201H1239.5V221.201ZM1239.5 7.74711V6.74711H1238.5V7.74711H1239.5ZM1287.65 7.74711H1288.65V6.74711H1287.65V7.74711ZM1287.65 221.201V222.201H1288.65V221.201H1287.65ZM1171.72 46.6963H1170.72V47.6963H1171.72V46.6963ZM1171.72 4.68025V3.68025H1170.72V4.68025H1171.72ZM1355.43 4.68025H1356.43V3.68025H1355.43V4.68025ZM1355.43 46.6963V47.6963H1356.43V46.6963H1355.43ZM1537.44 221.201L1536.7 221.874L1537 222.201H1537.44V221.201ZM1438.07 112.021L1437.33 112.692L1437.33 112.694L1438.07 112.021ZM1421.21 87.7924L1420.29 88.2008L1420.3 88.2099L1421.21 87.7924ZM1424.27 31.9754L1423.42 31.4554L1423.42 31.4609L1424.27 31.9754ZM1447.27 9.58723L1447.77 10.4544L1447.78 10.451L1447.27 9.58723ZM1508 5.60032L1507.63 6.53047L1507.64 6.53469L1507.65 6.53866L1508 5.60032ZM1528.24 16.9477L1527.61 17.7205L1527.61 17.7273L1527.62 17.734L1528.24 16.9477ZM1541.43 31.362L1542.12 32.0866L1542.7 31.5345L1542.29 30.8475L1541.43 31.362ZM1510.15 61.1106L1509.34 61.7058L1510.02 62.6146L1510.84 61.8353L1510.15 61.1106ZM1497.27 48.5365L1496.71 49.3685L1496.72 49.3744L1496.73 49.3801L1497.27 48.5365ZM1466.6 49.7632L1467.26 50.5085L1467.27 50.5065L1466.6 49.7632ZM1463.53 74.9115L1462.65 75.3794L1462.66 75.3992L1462.67 75.4185L1463.53 74.9115ZM1472.12 86.5656L1471.36 87.2164L1471.36 87.2241L1471.37 87.2317L1472.12 86.5656ZM1592.34 221.201V222.201H1594.57L1593.08 220.535L1592.34 221.201ZM1427.65 215.987L1427.17 216.865L1427.18 216.87L1427.19 216.875L1427.65 215.987ZM1402.19 192.066L1401.33 192.568L1401.33 192.578L1401.34 192.588L1402.19 192.066ZM1404.03 122.141L1404.86 122.707L1404.86 122.7L1404.03 122.141ZM1436.23 96.3796L1437.07 95.8307L1436.6 95.1133L1435.82 95.4701L1436.23 96.3796ZM1456.17 126.742L1456.59 127.648L1457.64 127.159L1457 126.193L1456.17 126.742ZM1442.37 138.089L1441.53 137.543L1442.37 138.089ZM1441.14 169.064L1440.27 169.546L1440.28 169.573L1440.3 169.598L1441.14 169.064ZM1451.57 178.265L1451.12 179.159L1451.57 178.265ZM1485.3 177.345L1485.81 178.209L1485.82 178.202L1485.3 177.345ZM1498.19 164.771L1498.9 164.074L1498.03 163.178L1497.35 164.223L1498.19 164.771ZM1529.77 197.28L1530.57 197.891L1531.1 197.205L1530.49 196.583L1529.77 197.28ZM1514.75 210.467L1515.29 211.307L1515.29 211.303L1514.75 210.467ZM1492.66 220.588L1492.36 219.634L1492.36 219.637L1492.66 220.588ZM1694.7 221.201L1693.76 221.561L1694.01 222.201H1694.7V221.201ZM1611.28 4.68025V3.68025H1609.82L1610.34 5.03976L1611.28 4.68025ZM1662.8 4.68025L1663.74 4.33943L1663.5 3.68025H1662.8V4.68025ZM1726.28 179.798V180.798H1727.71L1727.22 179.458L1726.28 179.798ZM1705.12 179.798L1704.18 179.453L1703.69 180.798H1705.12V179.798ZM1769.53 4.68025V3.68025H1768.83L1768.59 4.33508L1769.53 4.68025ZM1820.44 4.68025L1821.37 5.04321L1821.9 3.68025H1820.44V4.68025ZM1736.1 221.201V222.201H1736.78L1737.03 221.564L1736.1 221.201ZM1828.99 221.201H1827.99V222.201H1828.99V221.201ZM1828.99 4.68025V3.68025H1827.99V4.68025H1828.99ZM1877.14 4.68025H1878.14V3.68025H1877.14V4.68025ZM1877.14 221.201V222.201H1878.14V221.201H1877.14ZM1916.79 215.987L1916.37 216.893L1916.38 216.897L1916.39 216.901L1916.79 215.987ZM1881.83 189.306L1881.13 188.595L1880.45 189.265L1881.09 189.973L1881.83 189.306ZM1913.11 158.33L1913.87 157.673L1913.17 156.87L1912.41 157.62L1913.11 158.33ZM1936.12 177.038L1935.64 177.919L1935.66 177.926L1935.67 177.933L1936.12 177.038ZM1989.48 177.958L1988.94 177.117L1988.93 177.122L1988.93 177.126L1989.48 177.958ZM1992.55 148.21L1991.84 148.917L1992.55 148.21ZM1977.83 138.702L1977.42 139.615L1977.43 139.62L1977.83 138.702ZM1957.89 131.035L1957.57 131.981L1957.57 131.984L1957.89 131.035ZM1936.42 122.755L1936.01 123.664L1936.02 123.669L1936.03 123.674L1936.42 122.755ZM1916.49 110.794L1915.85 111.564L1915.86 111.576L1915.88 111.587L1916.49 110.794ZM1902.07 92.6993L1901.18 93.1466L1901.18 93.1567L1902.07 92.6993ZM1906.06 30.7486L1905.23 30.1858L1905.23 30.1919L1905.23 30.198L1906.06 30.7486ZM1933.05 8.97386L1933.44 9.89301L1933.45 9.89006L1933.46 9.887L1933.05 8.97386ZM2014.01 9.28055L2013.62 10.2005L2013.63 10.2027L2014.01 9.28055ZM2045.3 31.0553L2046 31.7659L2046.67 31.0992L2046.04 30.391L2045.3 31.0553ZM2014.01 62.0307L2013.3 62.7268L2014 63.4523L2014.72 62.7412L2014.01 62.0307ZM1994.08 47.003L1993.63 47.8975L1993.64 47.9028L1994.08 47.003ZM1951.76 47.003L1952.29 47.851L1952.3 47.8432L1952.31 47.8351L1951.76 47.003ZM1949.92 73.9915L1949.23 74.7185L1949.24 74.7288L1949.25 74.7389L1949.92 73.9915ZM1964.33 82.5787L1963.95 83.5028L1963.96 83.5072L1964.33 82.5787ZM1984.27 89.9392L1983.94 90.8851L1983.95 90.8878L1984.27 89.9392ZM2006.04 98.5264L2006.46 97.6169L2006.04 98.5264ZM2025.67 111.101L2025.02 111.858L2025.03 111.87L2025.04 111.881L2025.67 111.101ZM2040.39 130.115L2039.49 130.543L2039.49 130.553L2040.39 130.115ZM2023.83 207.094L2024.45 207.878L2024.46 207.872L2023.83 207.094ZM2103.18 213.227L2102.69 214.1L2102.69 214.103L2103.18 213.227ZM2071.28 181.945L2070.41 182.434L2070.41 182.442L2070.42 182.45L2071.28 181.945ZM2059.93 4.68025V3.68025H2058.93V4.68025H2059.93ZM2108.39 4.68025H2109.39V3.68025H2108.39V4.68025ZM2128.94 175.811L2128.46 176.688L2128.47 176.697L2128.49 176.706L2128.94 175.811ZM2171.88 175.811L2172.35 176.694L2172.36 176.688L2172.37 176.681L2171.88 175.811ZM2186.29 161.397L2185.42 160.895L2185.42 160.904L2186.29 161.397ZM2191.81 4.68025V3.68025H2190.81V4.68025H2191.81ZM2240.27 4.68025H2241.27V3.68025H2240.27V4.68025ZM2228.92 181.945L2228.05 181.451L2228.92 181.945ZM2197.33 213.227L2196.84 212.355L2197.33 213.227ZM2237.44 221.201L2236.51 220.832L2235.97 222.201H2237.44V221.201ZM2323.31 4.68025V3.68025H2322.63L2322.38 4.31158L2323.31 4.68025ZM2366.86 4.68025L2367.79 4.315L2367.54 3.68025H2366.86V4.68025ZM2451.81 221.201V222.201H2453.28L2452.74 220.836L2451.81 221.201ZM2400.9 221.201L2399.96 221.541L2400.2 222.201H2400.9V221.201ZM2335.89 41.4827V40.4827H2334.46L2334.95 41.8229L2335.89 41.4827ZM2353.37 41.4827L2354.31 41.8271L2354.8 40.4827H2353.37V41.4827ZM2287.43 221.201V222.201H2288.13L2288.37 221.546L2287.43 221.201ZM2286.2 181.945H2285.2V182.945H2286.2V181.945ZM2286.2 142.689V141.689H2285.2V142.689H2286.2ZM2404.28 142.689H2405.28V141.689H2404.28V142.689ZM2404.28 181.945V182.945H2405.28V181.945H2404.28ZM2457.86 221.201H2456.86V222.201H2457.86V221.201ZM2457.86 4.68025V3.68025H2456.86V4.68025H2457.86ZM2506.01 4.68025H2507.01V3.68025H2506.01V4.68025ZM2506.01 221.201V222.201H2507.01V221.201H2506.01ZM2494.97 221.201H2493.97V222.201H2494.97V221.201ZM2494.97 178.878V177.878H2493.97V178.878H2494.97ZM2602 178.878H2603V177.878H2602V178.878ZM2602 221.201V222.201H2603V221.201H2602ZM33.5089 607.626H32.5089V608.626H33.5089V607.626ZM33.5089 565.304V564.304H32.5089V565.304H33.5089ZM121.528 557.636L121.99 558.523L121.997 558.52L122.005 558.516L121.528 557.636ZM143.917 463.79L143.037 464.267L143.041 464.274L143.045 464.281L143.917 463.79ZM121.222 441.095L120.738 441.971L120.745 441.975L121.222 441.095ZM31.9755 433.122H30.9755V434.122H31.9755V433.122ZM31.9755 391.106V390.106H30.9755V391.106H31.9755ZM132.876 399.079L132.514 400.012L132.522 400.015L132.531 400.018L132.876 399.079ZM169.065 421.468L168.372 422.189L168.38 422.196L168.387 422.203L169.065 421.468ZM192.987 455.816L192.063 456.2L192.067 456.209L192.07 456.217L192.987 455.816ZM192.987 542.915L192.068 542.52L192.063 542.532L192.987 542.915ZM133.182 599.653L132.825 598.719L132.821 598.72L133.182 599.653ZM1 607.626H0V608.626H1V607.626ZM1 391.106V390.106H0V391.106H1ZM49.15 391.106H50.15V390.106H49.15V391.106ZM49.15 607.626V608.626H50.15V607.626H49.15ZM215.346 607.626H214.346V608.626H215.346V607.626ZM215.346 391.106V390.106H214.346V391.106H215.346ZM263.496 391.106H264.496V390.106H263.496V391.106ZM263.496 607.626V608.626H264.496V607.626H263.496ZM252.149 607.626H251.149V608.626H252.149V607.626ZM252.149 565.917V564.917H251.149V565.917H252.149ZM370.837 565.917H371.837V564.917H370.837V565.917ZM370.837 607.626V608.626H371.837V607.626H370.837ZM252.149 517.154H251.149V518.154H252.149V517.154ZM252.149 476.978V475.978H251.149V476.978H252.149ZM360.103 476.978H361.103V475.978H360.103V476.978ZM360.103 517.154V518.154H361.103V517.154H360.103ZM252.149 432.508H251.149V433.508H252.149V432.508ZM252.149 391.106V390.106H251.149V391.106H252.149ZM369.303 391.106H370.303V390.106H369.303V391.106ZM369.303 432.508V433.508H370.303V432.508H369.303ZM400.787 602.413L400.363 603.319L400.372 603.323L400.381 603.327L400.787 602.413ZM365.824 575.731L365.121 575.02L364.444 575.69L365.08 576.399L365.824 575.731ZM397.106 544.756L397.86 544.099L397.16 543.295L396.403 544.045L397.106 544.756ZM420.108 563.464L419.635 564.345L419.648 564.352L419.661 564.358L420.108 563.464ZM473.472 564.384L472.931 563.542L472.924 563.547L472.917 563.552L473.472 564.384ZM476.539 534.635L475.831 535.342L476.539 534.635ZM461.818 525.128L461.409 526.04L461.42 526.045L461.818 525.128ZM441.883 517.461L441.559 518.406L441.567 518.409L441.883 517.461ZM420.415 509.18L419.999 510.089L420.01 510.094L420.021 510.099L420.415 509.18ZM400.48 497.219L399.842 497.99L399.857 498.001L399.872 498.013L400.48 497.219ZM386.066 479.125L385.171 479.572L385.176 479.582L386.066 479.125ZM390.053 417.174L389.226 416.611L389.222 416.617L389.218 416.623L390.053 417.174ZM417.041 395.399L417.435 396.318L417.442 396.315L417.449 396.312L417.041 395.399ZM498.007 395.706L497.615 396.626L497.62 396.628L498.007 395.706ZM529.289 417.481L529.992 418.191L530.666 417.524L530.036 416.816L529.289 417.481ZM498.007 448.456L497.289 449.152L497.992 449.878L498.71 449.167L498.007 448.456ZM478.072 433.428L477.625 434.323L477.636 434.328L478.072 433.428ZM435.749 433.428L436.279 434.276L436.292 434.269L436.304 434.26L435.749 433.428ZM433.909 460.417L433.222 461.144L433.233 461.154L433.245 461.164L433.909 460.417ZM448.323 469.004L447.941 469.928L447.952 469.932L448.323 469.004ZM468.258 476.364L467.934 477.31L467.942 477.313L468.258 476.364ZM490.033 484.952L490.449 484.042L490.033 484.952ZM509.661 497.526L509.008 498.283L509.022 498.295L509.036 498.307L509.661 497.526ZM524.382 516.54L523.478 516.969L523.483 516.978L524.382 516.54ZM507.821 593.519L508.441 594.303L508.448 594.298L507.821 593.519ZM543.706 607.626H542.706V608.626H543.706V607.626ZM543.706 391.106V390.106H542.706V391.106H543.706ZM591.856 391.106H592.856V390.106H591.856V391.106ZM591.856 607.626V608.626H592.856V607.626H591.856ZM674.345 602.413L673.959 603.335L673.964 603.337L674.345 602.413ZM638.463 578.798L637.755 579.505L637.763 579.512L638.463 578.798ZM614.234 543.222L613.312 543.608L613.315 543.616L613.319 543.624L614.234 543.222ZM614.541 455.203L615.456 455.605L614.541 455.203ZM639.076 419.934L639.769 420.655L639.769 420.655L639.076 419.934ZM676.185 396.319L676.55 397.251L676.561 397.246L676.185 396.319ZM772.178 397.853L771.771 398.766L771.776 398.768L772.178 397.853ZM810.208 425.761L810.915 426.468L811.565 425.818L810.972 425.116L810.208 425.761ZM777.392 458.577L776.601 459.188L777.296 460.087L778.099 459.284L777.392 458.577ZM752.857 438.335L753.289 437.433L752.857 438.335ZM686.919 440.175L687.402 441.051L687.409 441.048L687.415 441.044L686.919 440.175ZM663.304 463.79L662.432 463.302L662.428 463.308L663.304 463.79ZM663.304 534.635L664.184 534.16L663.304 534.635ZM685.999 558.557L685.487 559.416L685.999 558.557ZM751.324 560.09L751.795 560.972L751.803 560.968L751.324 560.09ZM771.872 539.235L770.989 538.765L770.986 538.772L771.872 539.235ZM779.232 505.806L779.791 504.977L778.232 503.928V505.806H779.232ZM811.128 527.274L811.112 528.274L814.484 528.328L811.686 526.445L811.128 527.274ZM714.521 525.741H713.521V526.725L714.505 526.741L714.521 525.741ZM714.521 484.952V483.952H713.521V484.952H714.521ZM828.302 484.952H829.302V483.952H828.302V484.952ZM814.195 557.636L813.311 557.169L813.309 557.173L814.195 557.636ZM775.552 597.506L775.075 596.627L775.07 596.63L775.552 597.506ZM840.618 607.626H839.618V608.626H840.618V607.626ZM840.618 391.106V390.106H839.618V391.106H840.618ZM874.353 391.106L875.142 390.49L874.841 390.106H874.353V391.106ZM888.768 434.348H889.768V434.186L889.716 434.032L888.768 434.348ZM888.768 607.626V608.626H889.768V607.626H888.768ZM989.975 607.626L989.186 608.242L989.487 608.626H989.975V607.626ZM862.393 444.162L861.417 443.942L861.313 444.404L861.604 444.778L862.393 444.162ZM1001.94 554.57L1002.91 554.789L1003.02 554.328L1002.72 553.954L1001.94 554.57ZM977.094 564.384H976.094V564.529L976.135 564.669L977.094 564.384ZM977.094 391.106V390.106H976.094V391.106H977.094ZM1025.24 391.106H1026.24V390.106H1025.24V391.106ZM1025.24 607.626V608.626H1026.24V607.626H1025.24ZM1050.17 607.626H1049.17V608.626H1050.17V607.626ZM1050.17 391.106V390.106H1049.17V391.106H1050.17ZM1098.32 391.106H1099.32V390.106H1098.32V391.106ZM1098.32 607.626V608.626H1099.32V607.626H1098.32ZM1086.97 607.626H1085.97V608.626H1086.97V607.626ZM1086.97 565.917V564.917H1085.97V565.917H1086.97ZM1205.66 565.917H1206.66V564.917H1205.66V565.917ZM1205.66 607.626V608.626H1206.66V607.626H1205.66ZM1086.97 517.154H1085.97V518.154H1086.97V517.154ZM1086.97 476.978V475.978H1085.97V476.978H1086.97ZM1194.93 476.978H1195.93V475.978H1194.93V476.978ZM1194.93 517.154V518.154H1195.93V517.154H1194.93ZM1086.97 432.508H1085.97V433.508H1086.97V432.508ZM1086.97 391.106V390.106H1085.97V391.106H1086.97ZM1204.13 391.106H1205.13V390.106H1204.13V391.106ZM1204.13 432.508V433.508H1205.13V432.508H1204.13ZM1258.79 518.381H1257.79V519.381H1258.79V518.381ZM1258.79 482.805V481.805H1257.79V482.805H1258.79ZM1326.57 475.444L1325.89 474.71L1325.88 474.716L1325.88 474.723L1326.57 475.444ZM1326.88 436.189L1326.17 436.896L1326.88 436.189ZM1258.79 428.521H1257.79V429.521H1258.79V428.521ZM1258.79 391.106V390.106H1257.79V391.106H1258.79ZM1348.04 399.386L1347.58 400.277L1347.59 400.281L1347.6 400.284L1348.04 399.386ZM1373.49 421.774L1374.34 421.236L1373.49 421.774ZM1373.49 488.325L1374.33 488.872L1374.34 488.863L1373.49 488.325ZM1347.73 510.407L1348.16 511.308L1347.73 510.407ZM1221.99 607.626H1220.99V608.626H1221.99V607.626ZM1221.99 391.106V390.106H1220.99V391.106H1221.99ZM1270.14 391.106H1271.14V390.106H1270.14V391.106ZM1270.14 607.626V608.626H1271.14V607.626H1270.14ZM1339.76 607.626L1338.95 608.213L1339.25 608.626H1339.76V607.626ZM1272.29 514.394L1272.02 513.428L1270.63 513.807L1271.48 514.98L1272.29 514.394ZM1316.45 502.433L1317.24 501.826L1316.84 501.292L1316.19 501.468L1316.45 502.433ZM1396.8 607.626V608.626H1398.82L1397.6 607.019L1396.8 607.626ZM38.8025 142.383V104.967H36.8025V142.383H38.8025ZM37.8025 105.967H84.4191V103.967H37.8025V105.967ZM84.4191 105.967C90.4908 105.967 96.0639 104.709 101.121 102.181L100.226 100.392C95.4692 102.771 90.2059 103.967 84.4191 103.967V105.967ZM101.121 102.181C106.197 99.6431 110.222 95.935 113.182 91.0725L111.473 90.0326C108.708 94.5751 104.965 98.023 100.226 100.392L101.121 102.181ZM113.182 91.0725C116.159 86.1814 117.621 80.2673 117.621 73.3781H115.621C115.621 79.9831 114.221 85.5186 111.473 90.0326L113.182 91.0725ZM117.621 73.3781C117.621 66.6869 116.156 60.8769 113.182 55.9904L111.473 57.0303C114.224 61.5488 115.621 66.984 115.621 73.3781H117.621ZM113.182 55.9904C110.222 51.1278 106.197 47.4197 101.121 44.8818L100.226 46.6707C104.965 49.0398 108.708 52.4878 111.473 57.0303L113.182 55.9904ZM101.121 44.8818C96.0639 42.3534 90.4908 41.096 84.4191 41.096V43.096C90.2059 43.096 95.4692 44.2921 100.226 46.6707L101.121 44.8818ZM84.4191 41.096H37.8025V43.096H84.4191V41.096ZM38.8025 42.096V4.68025H36.8025V42.096H38.8025ZM37.8025 5.68025H91.4729V3.68025H37.8025V5.68025ZM91.4729 5.68025C105.034 5.68025 117.248 8.41161 128.135 13.8552L129.029 12.0664C117.835 6.46925 105.31 3.68025 91.4729 3.68025V5.68025ZM128.135 13.8552C139.009 19.2924 147.557 27.1372 153.796 37.4018L155.505 36.3629C149.068 25.7728 140.236 17.6699 129.029 12.0664L128.135 13.8552ZM153.808 37.4214C160.232 47.4587 163.465 59.4299 163.465 73.3781H165.465C165.465 59.1111 162.154 46.7519 155.493 36.3433L153.808 37.4214ZM163.465 73.3781C163.465 87.3257 160.232 99.4031 153.804 109.649L155.498 110.712C162.154 100.103 165.465 87.6456 165.465 73.3781H163.465ZM153.801 109.654C147.561 119.718 139.008 127.57 128.122 133.214L129.042 134.99C140.238 129.185 149.064 121.089 155.5 110.707L153.801 109.654ZM128.135 133.208C117.248 138.651 105.034 141.383 91.4729 141.383V143.383C105.31 143.383 117.835 140.594 129.029 134.996L128.135 133.208ZM91.4729 141.383H37.8025V143.383H91.4729V141.383ZM2 221.201V4.68025H0V221.201H2ZM1 5.68025H49.15V3.68025H1V5.68025ZM48.15 4.68025V221.201H50.15V4.68025H48.15ZM49.15 220.201H1V222.201H49.15V220.201ZM212.417 131.955V96.3796H210.417V131.955H212.417ZM211.417 97.3796H257.113V95.3796H211.417V97.3796ZM257.113 97.3796C266.887 97.3796 274.531 94.8821 279.887 89.7405L278.502 88.2977C273.635 92.9701 266.558 95.3796 257.113 95.3796V97.3796ZM279.873 89.7539C285.427 84.627 288.168 77.6978 288.168 69.0845H286.168C286.168 77.2367 283.594 83.5972 278.516 88.2843L279.873 89.7539ZM288.168 69.0845C288.168 61.0718 285.522 54.37 280.208 49.0561L278.794 50.4703C283.703 55.3793 286.168 61.5583 286.168 69.0845H288.168ZM280.208 49.0561C274.854 43.7017 267.204 41.096 257.42 41.096V43.096C266.854 43.096 273.926 45.6018 278.794 50.4703L280.208 49.0561ZM257.42 41.096H211.417V43.096H257.42V41.096ZM212.417 42.096V4.68025H210.417V42.096H212.417ZM211.417 5.68025H262.94V3.68025H211.417V5.68025ZM262.94 5.68025C277.122 5.68025 289.536 8.41474 300.209 13.8518L301.117 12.0698C290.117 6.46613 277.382 3.68025 262.94 3.68025V5.68025ZM300.222 13.8586C310.904 19.0987 319.246 26.4412 325.275 35.887L326.961 34.8109C320.722 25.0376 312.094 17.4547 301.103 12.063L300.222 13.8586ZM325.275 35.887C331.296 45.3208 334.318 56.1712 334.318 68.4711H336.318C336.318 55.8271 333.207 44.5961 326.961 34.8109L325.275 35.887ZM334.318 68.4711C334.318 80.9789 331.295 91.9307 325.275 101.362L326.961 102.438C333.208 92.6501 336.318 81.3161 336.318 68.4711H334.318ZM325.28 101.354C319.255 110.592 310.814 117.836 299.922 123.08L300.79 124.882C311.98 119.495 320.713 112.018 326.955 102.446L325.28 101.354ZM299.922 123.08C289.043 128.318 276.214 130.955 261.407 130.955V132.955C276.45 132.955 289.587 130.276 300.79 124.882L299.922 123.08ZM261.407 130.955H211.417V132.955H261.407V130.955ZM175.614 221.201V4.68025H173.614V221.201H175.614ZM174.614 5.68025H222.764V3.68025H174.614V5.68025ZM221.764 4.68025V221.201H223.764V4.68025H221.764ZM222.764 220.201H174.614V222.201H222.764V220.201ZM293.192 220.615L225.721 127.382L224.101 128.555L291.572 221.787L293.192 220.615ZM225.172 128.934L269.335 116.973L268.812 115.042L224.649 127.003L225.172 128.934ZM268.279 116.615L348.631 221.808L350.221 220.594L269.869 115.401L268.279 116.615ZM349.426 220.201H292.382V222.201H349.426V220.201ZM455.775 223.881C439.537 223.881 424.538 221.04 410.766 215.369L410.004 217.219C424.039 222.998 439.299 225.881 455.775 225.881V223.881ZM410.771 215.371C397.187 209.695 385.231 201.791 374.896 191.658L373.496 193.087C384.015 203.4 396.186 211.444 409.999 217.217L410.771 215.371ZM374.896 191.658C364.563 181.528 356.562 169.78 350.888 156.406L349.047 157.187C354.823 170.802 362.974 182.771 373.496 193.087L374.896 191.658ZM350.89 156.411C345.219 142.842 342.38 128.253 342.38 112.634H340.38C340.38 128.502 343.266 143.354 349.045 157.182L350.89 156.411ZM342.38 112.634C342.38 96.8086 345.22 82.2218 350.888 68.8616L349.047 68.0806C343.265 81.7088 340.38 96.564 340.38 112.634H342.38ZM350.888 68.8616C356.563 55.4858 364.463 43.8402 374.589 33.9163L373.189 32.4879C362.87 42.6009 354.822 54.4679 349.047 68.0806L350.888 68.8616ZM374.596 33.9092C384.722 23.7836 396.569 15.9859 410.145 10.5147L409.398 8.65971C395.577 14.2293 383.502 22.1749 373.182 32.495L374.596 33.9092ZM410.152 10.5119C423.925 4.84104 438.924 2 455.161 2V0C438.686 0 423.425 2.88378 409.391 8.66255L410.152 10.5119ZM455.161 2C471.193 2 485.986 4.84046 499.552 10.5099L500.324 8.66456C486.492 2.88436 471.434 0 455.161 0V2ZM499.569 10.5166C513.35 15.9885 525.297 23.7861 535.42 33.9092L536.834 32.495C526.512 22.1724 514.332 14.2267 500.307 8.65781L499.569 10.5166ZM535.434 33.9232C545.76 43.8442 553.759 55.5876 559.433 69.1634L561.278 68.3922C555.502 54.5706 547.349 42.5969 536.82 32.481L535.434 33.9232ZM559.435 69.1683C565.103 82.5285 567.943 97.1153 567.943 112.941H569.943C569.943 96.8707 567.058 82.0155 561.276 68.3872L559.435 69.1683ZM567.943 112.941C567.943 128.56 565.104 143.149 559.433 156.718L561.278 157.489C567.057 143.661 569.943 128.808 569.943 112.941H567.943ZM559.435 156.713C553.759 170.091 545.857 181.841 535.727 191.972L537.141 193.386C547.456 183.071 555.502 171.105 561.276 157.494L559.435 156.713ZM535.734 191.965C525.607 201.889 513.654 209.691 499.864 215.369L500.625 217.219C514.641 211.448 526.814 203.506 537.134 193.393L535.734 191.965ZM499.859 215.371C486.291 221.042 471.6 223.881 455.775 223.881V225.881C471.845 225.881 486.8 222.996 500.63 217.217L499.859 215.371ZM455.161 182.025C468.195 182.025 479.622 179.127 489.409 173.297L488.385 171.579C478.953 177.198 467.89 180.025 455.161 180.025V182.025ZM489.401 173.302C499.381 167.48 507.077 159.366 512.479 148.978L510.705 148.055C505.475 158.113 498.042 165.946 488.393 171.574L489.401 173.302ZM512.483 148.971C517.881 138.382 520.566 126.262 520.566 112.634H518.566C518.566 125.995 515.935 137.796 510.701 148.062L512.483 148.971ZM520.566 112.634C520.566 102.311 519.017 92.989 515.902 84.6811L514.029 85.3833C517.048 93.432 518.566 102.511 518.566 112.634H520.566ZM515.905 84.6886C512.794 76.1858 508.327 68.9073 502.497 62.8695L501.059 64.2587C506.679 70.0795 511.004 77.113 514.026 85.3758L515.905 84.6886ZM502.509 62.8818C496.679 56.6352 489.702 51.9501 481.589 48.8299L480.871 50.6966C488.706 53.71 495.427 58.2256 501.047 64.2464L502.509 62.8818ZM481.618 48.8416C473.71 45.5118 464.886 43.8562 455.161 43.8562V45.8562C464.656 45.8562 473.211 47.472 480.842 50.6848L481.618 48.8416ZM455.161 43.8562C442.128 43.8562 430.602 46.7542 420.615 52.5797L421.623 54.3072C431.265 48.683 442.434 45.8562 455.161 45.8562V43.8562ZM420.621 52.5763C410.839 58.1959 403.244 66.2115 397.844 76.597L399.618 77.5197C404.85 67.4594 412.18 59.7317 421.617 54.3105L420.621 52.5763ZM397.848 76.5896C392.441 86.7795 389.757 98.8056 389.757 112.634H391.757C391.757 99.065 394.389 87.374 399.614 77.527L397.848 76.5896ZM389.757 112.634C389.757 122.957 391.306 132.378 394.418 140.886L396.296 140.199C393.275 131.941 391.757 122.756 391.757 112.634H389.757ZM394.418 140.886C397.525 149.379 401.882 156.75 407.495 162.986L408.982 161.648C403.553 155.617 399.323 148.472 396.296 140.199L394.418 140.886ZM407.519 163.012C413.344 169.045 420.311 173.722 428.407 177.043L429.166 175.193C421.314 171.972 414.582 167.448 408.958 161.623L407.519 163.012ZM428.407 177.043C436.514 180.369 445.437 182.025 455.161 182.025V180.025C445.667 180.025 437.006 178.41 429.166 175.193L428.407 177.043ZM616.149 221.201V178.878H614.149V221.201H616.149ZM615.149 179.878H668.82V177.878H615.149V179.878ZM668.82 179.878C682.037 179.878 693.65 177.296 703.631 172.098L702.707 170.324C693.059 175.349 681.774 177.878 668.82 177.878V179.878ZM703.645 172.09C713.635 166.679 721.34 158.868 726.747 148.678L724.98 147.741C719.755 157.588 712.331 165.111 702.693 170.332L703.645 172.09ZM726.747 148.678C732.154 138.488 734.838 126.462 734.838 112.634H732.838C732.838 126.203 730.205 137.894 724.98 147.741L726.747 148.678ZM734.838 112.634C734.838 98.8006 732.05 86.8676 726.429 76.8747L724.686 77.8553C730.105 87.4903 732.838 99.0701 732.838 112.634H734.838ZM726.436 76.8887C721.028 66.9042 713.323 59.1992 703.338 53.7909L702.386 55.5495C712.029 60.773 719.454 68.1979 724.678 77.8413L726.436 76.8887ZM703.346 53.7952C693.562 48.3829 682.042 45.6963 668.82 45.6963V47.6963C681.768 47.6963 692.943 50.3257 702.378 55.5452L703.346 53.7952ZM668.82 45.6963H613.616V47.6963H668.82V45.6963ZM614.616 46.6963V4.68025H612.616V46.6963H614.616ZM613.616 5.68025H669.433V3.68025H613.616V5.68025ZM669.433 5.68025C685.68 5.68025 700.583 8.32002 714.155 13.5864L714.878 11.7218C701.052 6.35638 685.9 3.68025 669.433 3.68025V5.68025ZM714.171 13.5927C727.951 18.6587 739.894 26.0496 750.013 35.7636L751.398 34.3208C741.071 24.4069 728.888 16.8724 714.861 11.7155L714.171 13.5927ZM750.028 35.7776C760.347 45.2875 768.238 56.6166 773.704 69.7748L775.551 69.0075C769.976 55.5862 761.919 44.016 751.383 34.3069L750.028 35.7776ZM773.711 69.792C779.374 82.7369 782.214 97.1148 782.214 112.941H784.214C784.214 96.8711 781.33 82.216 775.543 68.9903L773.711 69.792ZM782.214 112.941C782.214 128.56 779.375 142.94 773.709 156.095L775.546 156.886C781.329 143.46 784.214 128.808 784.214 112.941H782.214ZM773.704 156.107C768.236 169.269 760.445 180.6 750.327 190.11L751.697 191.568C762.026 181.859 769.977 170.291 775.551 156.874L773.704 156.107ZM750.327 190.11C740.205 199.626 728.255 207.021 714.466 212.293L715.18 214.161C729.197 208.802 741.374 201.272 751.697 191.568L750.327 190.11ZM714.461 212.295C700.889 217.562 686.087 220.201 670.047 220.201V222.201C686.31 222.201 701.36 219.524 715.185 214.16L714.461 212.295ZM670.047 220.201H615.149V222.201H670.047V220.201ZM583.641 221.201V4.68025H581.641V221.201H583.641ZM582.641 5.68025H630.791V3.68025H582.641V5.68025ZM629.791 4.68025V221.201H631.791V4.68025H629.791ZM630.791 220.201H582.641V222.201H630.791V220.201ZM884.086 223.575C866.444 223.575 850.871 219.824 837.339 212.352L836.373 214.103C850.239 221.76 866.152 225.575 884.086 225.575V223.575ZM837.345 212.355C824.005 204.877 813.503 194.576 805.824 181.441L804.097 182.45C811.957 195.894 822.718 206.448 836.367 214.1L837.345 212.355ZM805.833 181.456C798.36 168.127 794.613 152.965 794.613 135.942H792.613C792.613 153.269 796.431 168.775 804.088 182.434L805.833 181.456ZM794.613 135.942V4.68025H792.613V135.942H794.613ZM793.613 5.68025H842.07V3.68025H793.613V5.68025ZM841.07 4.68025V138.702H843.07V4.68025H841.07ZM841.07 138.702C841.07 147.435 842.942 155.078 846.725 161.593L848.455 160.588C844.877 154.427 843.07 147.144 843.07 138.702H841.07ZM846.725 161.593C850.496 168.086 855.637 173.124 862.137 176.688L863.099 174.935C856.922 171.548 852.045 166.771 848.455 160.588L846.725 161.593ZM862.171 176.706C868.861 180.051 876.171 181.718 884.086 181.718V179.718C876.462 179.718 869.46 178.115 863.065 174.917L862.171 176.706ZM884.086 181.718C892.399 181.718 899.722 180.055 906.025 176.694L905.083 174.929C899.118 178.111 892.129 179.718 884.086 179.718V181.718ZM906.047 176.681C912.338 173.116 917.273 168.181 920.838 161.89L919.098 160.904C915.712 166.88 911.037 171.555 905.061 174.941L906.047 176.681ZM920.833 161.899C924.616 155.384 926.489 147.742 926.489 139.009H924.489C924.489 147.45 922.681 154.734 919.104 160.895L920.833 161.899ZM926.489 139.009V4.68025H924.489V139.009H926.489ZM925.489 5.68025H973.945V3.68025H925.489V5.68025ZM972.945 4.68025V136.249H974.945V4.68025H972.945ZM972.945 136.249C972.945 153.272 969.198 168.329 961.729 181.451L963.467 182.44C971.128 168.982 974.945 153.575 974.945 136.249H972.945ZM961.729 181.451C954.255 194.58 943.858 204.878 930.52 212.355L931.498 214.1C945.149 206.447 955.811 195.89 963.467 182.44L961.729 181.451ZM930.52 212.355C917.196 219.824 901.728 223.575 884.086 223.575V225.575C902.019 225.575 917.833 221.76 931.498 214.1L930.52 212.355ZM1098.2 223.575C1082.16 223.575 1067.26 220.835 1053.49 215.365L1052.75 217.224C1066.78 222.794 1081.93 225.575 1098.2 225.575V223.575ZM1053.5 215.371C1039.92 209.695 1027.96 201.791 1017.63 191.658L1016.23 193.087C1026.75 203.4 1038.92 211.444 1052.73 217.217L1053.5 215.371ZM1017.63 191.665C1007.5 181.535 999.602 169.784 993.926 156.406L992.085 157.187C997.859 170.798 1005.91 182.765 1016.22 193.08L1017.63 191.665ZM993.928 156.411C988.258 142.842 985.418 128.253 985.418 112.634H983.418C983.418 128.502 986.304 143.354 992.083 157.182L993.928 156.411ZM985.418 112.634C985.418 97.0149 988.258 82.5301 993.926 69.1683L992.085 68.3872C986.304 82.0139 983.418 96.7666 983.418 112.634H985.418ZM993.928 69.1634C999.604 55.5833 1007.5 43.8377 1017.63 33.9163L1016.23 32.4879C1005.91 42.6034 997.857 54.5749 992.083 68.3922L993.928 69.1634ZM1017.63 33.9163C1027.75 23.9926 1039.6 16.2944 1053.18 10.8214L1052.44 8.96641C1038.62 14.5342 1026.55 22.3747 1016.23 32.4879L1017.63 33.9163ZM1053.19 10.8186C1066.96 5.14712 1081.86 2.3067 1097.89 2.3067V0.306701C1081.62 0.306701 1066.46 3.1911 1052.43 8.96925L1053.19 10.8186ZM1097.89 2.3067C1114.96 2.3067 1130.06 5.04965 1143.21 10.5107L1143.97 8.66373C1130.54 3.08411 1115.17 0.306701 1097.89 0.306701V2.3067ZM1143.21 10.5128C1156.59 15.9879 1168.24 23.4856 1178.17 33.0037L1179.55 31.5604C1169.44 21.8594 1157.57 14.2272 1143.97 8.66168L1143.21 10.5128ZM1178.15 31.5783L1145.95 64.0871L1147.37 65.4946L1179.57 32.9858L1178.15 31.5783ZM1147.39 64.1085C1141.56 57.8666 1134.49 52.9834 1126.19 49.4562L1125.41 51.2969C1133.47 54.7213 1140.3 59.4477 1145.93 65.4732L1147.39 64.1085ZM1126.2 49.4599C1118.08 45.9184 1108.63 44.1629 1097.89 44.1629V46.1629C1108.42 46.1629 1117.58 47.8832 1125.4 51.2933L1126.2 49.4599ZM1097.89 44.1629C1088.37 44.1629 1079.55 45.8196 1071.44 49.1447L1072.2 50.9951C1080.05 47.7775 1088.61 46.1629 1097.89 46.1629V44.1629ZM1071.46 49.1397C1063.56 52.2583 1056.69 56.836 1050.86 62.8695L1052.3 64.2587C1057.93 58.4336 1064.55 54.0152 1072.19 51L1071.46 49.1397ZM1050.85 62.8827C1045.24 68.9141 1040.78 76.1813 1037.46 84.6686L1039.33 85.3957C1042.56 77.1176 1046.89 70.0727 1052.31 64.2455L1050.85 62.8827ZM1037.46 84.6886C1034.34 93.1941 1032.8 102.513 1032.8 112.634H1034.8C1034.8 102.719 1036.31 93.6358 1039.33 85.3758L1037.46 84.6886ZM1032.8 112.634C1032.8 122.957 1034.34 132.378 1037.46 140.886L1039.33 140.199C1036.31 131.941 1034.8 122.756 1034.8 112.634H1032.8ZM1037.46 140.906C1040.78 149.393 1045.24 156.661 1050.85 162.692L1052.31 161.329C1046.89 155.502 1042.56 148.457 1039.33 140.179L1037.46 140.906ZM1050.86 162.705C1056.68 168.734 1063.55 173.411 1071.44 176.733L1072.21 174.89C1064.56 171.67 1057.93 167.146 1052.3 161.316L1050.86 162.705ZM1071.44 176.737C1079.55 180.062 1088.37 181.718 1097.89 181.718V179.718C1088.61 179.718 1080.05 178.104 1072.2 174.886L1071.44 176.737ZM1097.89 181.718C1109.04 181.718 1118.78 179.965 1127.11 176.425L1126.33 174.584C1118.3 177.997 1108.83 179.718 1097.89 179.718V181.718ZM1127.11 176.425C1135.41 172.899 1142.58 168.02 1148.6 161.786L1147.16 160.395C1141.33 166.429 1134.39 171.159 1126.33 174.584L1127.11 176.425ZM1147.18 161.798L1179.68 194.306L1181.1 192.892L1148.59 160.383L1147.18 161.798ZM1179.71 192.864C1169.38 202.39 1157.52 209.892 1144.13 215.369L1144.89 217.22C1158.49 211.656 1170.55 204.027 1181.07 194.335L1179.71 192.864ZM1144.13 215.371C1130.98 220.831 1115.68 223.575 1098.2 223.575V225.575C1115.89 225.575 1131.46 222.798 1144.89 217.218L1144.13 215.371ZM1240.5 221.201V7.74711H1238.5V221.201H1240.5ZM1239.5 8.74711H1287.65V6.74711H1239.5V8.74711ZM1286.65 7.74711V221.201H1288.65V7.74711H1286.65ZM1287.65 220.201H1239.5V222.201H1287.65V220.201ZM1172.72 46.6963V4.68025H1170.72V46.6963H1172.72ZM1171.72 5.68025H1355.43V3.68025H1171.72V5.68025ZM1354.43 4.68025V46.6963H1356.43V4.68025H1354.43ZM1355.43 45.6963H1171.72V47.6963H1355.43V45.6963ZM1538.18 220.528L1438.81 111.348L1437.33 112.694L1536.7 221.874L1538.18 220.528ZM1438.82 111.35C1431.09 102.811 1425.54 94.8191 1422.12 87.3749L1420.3 88.2099C1423.83 95.8955 1429.52 104.056 1437.33 112.692L1438.82 111.35ZM1422.12 87.384C1418.71 79.7532 1416.99 71.4088 1416.99 62.3374H1414.99C1414.99 71.6672 1416.76 80.2927 1420.29 88.2007L1422.12 87.384ZM1416.99 62.3374C1416.99 51.4724 1419.71 41.5304 1425.13 32.4899L1423.42 31.4609C1417.8 40.8216 1414.99 51.1209 1414.99 62.3374H1416.99ZM1425.13 32.4953C1430.76 23.2351 1438.31 15.8914 1447.77 10.4543L1446.78 8.72012C1437.02 14.3238 1429.23 21.9055 1423.42 31.4554L1425.13 32.4953ZM1447.78 10.451C1457.42 4.82682 1468.59 2 1481.32 2V0C1468.28 0 1456.76 2.898 1446.77 8.72345L1447.78 10.451ZM1481.32 2C1491.23 2 1500 3.51795 1507.63 6.53047L1508.37 4.67016C1500.46 1.54893 1491.44 0 1481.32 0V2ZM1507.65 6.53866C1515.33 9.36692 1521.98 13.0967 1527.61 17.7205L1528.88 16.175C1523.05 11.3937 1516.21 7.55853 1508.34 4.66197L1507.65 6.53866ZM1527.62 17.734C1533.27 22.173 1537.58 26.8898 1540.57 31.8765L1542.29 30.8475C1539.14 25.6113 1534.66 20.7186 1528.86 16.1614L1527.62 17.734ZM1540.74 30.6374L1509.46 60.386L1510.84 61.8353L1542.12 32.0866L1540.74 30.6374ZM1510.95 60.5154C1506.81 54.9236 1502.43 50.6369 1497.8 47.6928L1496.73 49.3801C1501.1 52.1608 1505.31 56.2569 1509.34 61.7058L1510.95 60.5154ZM1497.82 47.7044C1493.34 44.7168 1488.03 43.2428 1481.93 43.2428V45.2428C1487.69 45.2428 1492.6 46.6313 1496.71 49.3685L1497.82 47.7044ZM1481.93 43.2428C1475.58 43.2428 1470.22 45.155 1465.93 49.0199L1467.27 50.5065C1471.15 47.0109 1476.01 45.2428 1481.93 45.2428V43.2428ZM1465.93 49.018C1461.83 52.6877 1459.77 57.3568 1459.77 62.9507H1461.77C1461.77 57.9129 1463.6 53.7903 1467.26 50.5084L1465.93 49.018ZM1459.77 62.9507C1459.77 67.5883 1460.72 71.7399 1462.65 75.3794L1464.41 74.4436C1462.66 71.1315 1461.77 67.3093 1461.77 62.9507H1459.77ZM1462.67 75.4185C1464.75 78.9609 1467.65 82.8944 1471.36 87.2164L1472.88 85.9148C1469.22 81.6497 1466.4 77.8137 1464.39 74.4045L1462.67 75.4185ZM1471.37 87.2317L1591.59 221.867L1593.08 220.535L1472.86 85.8996L1471.37 87.2317ZM1592.34 220.201H1537.44V222.201H1592.34V220.201ZM1466.29 223.575C1451.7 223.575 1438.98 220.738 1428.11 215.1L1427.19 216.875C1438.39 222.686 1451.44 225.575 1466.29 225.575V223.575ZM1428.13 215.11C1417.44 209.26 1409.08 201.405 1403.04 191.544L1401.34 192.588C1407.57 202.763 1416.19 210.856 1427.17 216.865L1428.13 215.11ZM1403.06 191.564C1397.22 181.502 1394.3 170.329 1394.3 158.024H1392.3C1392.3 170.662 1395.3 182.184 1401.33 192.568L1403.06 191.564ZM1394.3 158.024C1394.3 144.717 1397.82 132.957 1404.86 122.707L1403.21 121.575C1395.93 132.181 1392.3 144.342 1392.3 158.024H1394.3ZM1404.86 122.7C1411.89 112.252 1422.47 103.773 1436.65 97.2891L1435.82 95.4701C1421.38 102.072 1410.48 110.767 1403.2 121.583L1404.86 122.7ZM1435.4 96.9284L1455.33 127.29L1457 126.193L1437.07 95.8307L1435.4 96.9284ZM1455.75 125.835C1449.48 128.76 1444.72 132.654 1441.53 137.543L1443.21 138.635C1446.15 134.119 1450.59 130.448 1456.59 127.648L1455.75 125.835ZM1441.53 137.543C1438.34 142.433 1436.77 148.253 1436.77 154.957H1438.77C1438.77 148.575 1440.26 143.15 1443.21 138.635L1441.53 137.543ZM1436.77 154.957C1436.77 160.417 1437.92 165.29 1440.27 169.546L1442.02 168.582C1439.86 164.66 1438.77 160.128 1438.77 154.957H1436.77ZM1440.3 169.598C1442.86 173.652 1446.48 176.837 1451.12 179.159L1452.02 177.371C1447.66 175.195 1444.33 172.246 1441.99 168.53L1440.3 169.598ZM1451.12 179.159C1455.79 181.491 1461.26 182.639 1467.52 182.639V180.639C1461.5 180.639 1456.35 179.537 1452.02 177.371L1451.12 179.159ZM1467.52 182.639C1474.61 182.639 1480.72 181.178 1485.81 178.209L1484.8 176.481C1480.08 179.236 1474.33 180.639 1467.52 180.639V182.639ZM1485.82 178.202C1491.07 175.053 1495.47 170.752 1499.02 165.318L1497.35 164.223C1493.95 169.421 1489.76 173.503 1484.79 176.487L1485.82 178.202ZM1497.47 165.468L1529.06 197.976L1530.49 196.583L1498.9 164.074L1497.47 165.468ZM1528.98 196.668C1525.59 201.052 1520.68 205.377 1514.2 209.631L1515.29 211.303C1521.9 206.97 1527 202.503 1530.57 197.891L1528.98 196.668ZM1514.2 209.627C1507.95 213.661 1500.67 216.999 1492.36 219.635L1492.97 221.541C1501.42 218.861 1508.86 215.452 1515.29 211.307L1514.2 209.627ZM1492.36 219.637C1484.29 222.259 1475.6 223.575 1466.29 223.575V225.575C1475.79 225.575 1484.69 224.232 1492.97 221.539L1492.36 219.637ZM1695.63 220.842L1612.21 4.32074L1610.34 5.03976L1693.76 221.561L1695.63 220.842ZM1611.28 5.68025H1662.8V3.68025H1611.28V5.68025ZM1661.86 5.02107L1725.34 180.139L1727.22 179.458L1663.74 4.33943L1661.86 5.02107ZM1726.28 178.798H1705.12V180.798H1726.28V178.798ZM1706.06 180.144L1770.47 5.02542L1768.59 4.33508L1704.18 179.453L1706.06 180.144ZM1769.53 5.68025H1820.44V3.68025H1769.53V5.68025ZM1819.51 4.31729L1735.17 220.838L1737.03 221.564L1821.37 5.04321L1819.51 4.31729ZM1736.1 220.201H1694.7V222.201H1736.1V220.201ZM1829.99 221.201V4.68025H1827.99V221.201H1829.99ZM1828.99 5.68025H1877.14V3.68025H1828.99V5.68025ZM1876.14 4.68025V221.201H1878.14V4.68025H1876.14ZM1877.14 220.201H1828.99V222.201H1877.14V220.201ZM1962.8 223.575C1945.11 223.575 1929.93 220.729 1917.2 215.074L1916.39 216.901C1929.43 222.696 1944.91 225.575 1962.8 225.575V223.575ZM1917.22 215.082C1904.68 209.217 1893.13 200.41 1882.58 188.638L1881.09 189.973C1891.8 201.918 1903.56 210.9 1916.37 216.893L1917.22 215.082ZM1882.54 190.016L1913.82 159.041L1912.41 157.62L1881.13 188.595L1882.54 190.016ZM1912.36 158.987C1919.38 167.042 1927.14 173.358 1935.64 177.919L1936.59 176.157C1928.32 171.722 1920.75 165.566 1913.87 157.673L1912.36 158.987ZM1935.67 177.933C1944.42 182.307 1954.49 184.479 1965.86 184.479V182.479C1954.75 182.479 1944.99 180.357 1936.56 176.144L1935.67 177.933ZM1965.86 184.479C1976.19 184.479 1984.28 182.624 1990.03 178.79L1988.93 177.126C1983.64 180.653 1975.99 182.479 1965.86 182.479V184.479ZM1990.02 178.799C1996.02 174.944 1999.07 169.523 1999.07 162.624H1997.07C1997.07 168.81 1994.39 173.612 1988.94 177.117L1990.02 178.799ZM1999.07 162.624C1999.07 156.47 1997.15 151.397 1993.25 147.503L1991.84 148.917C1995.31 152.383 1997.07 156.92 1997.07 162.624H1999.07ZM1993.25 147.503C1989.46 143.712 1984.44 140.479 1978.22 137.785L1977.43 139.62C1983.48 142.241 1988.27 145.347 1991.84 148.917L1993.25 147.503ZM1978.23 137.79C1972.27 135.116 1965.59 132.549 1958.21 130.087L1957.57 131.984C1964.91 134.429 1971.52 136.973 1977.42 139.615L1978.23 137.79ZM1958.22 130.089C1951.08 127.644 1943.95 124.893 1936.82 121.836L1936.03 123.674C1943.21 126.75 1950.39 129.519 1957.57 131.981L1958.22 130.089ZM1936.84 121.845C1929.75 118.605 1923.17 114.656 1917.1 110L1915.88 111.587C1922.07 116.337 1928.78 120.362 1936.01 123.664L1936.84 121.845ZM1917.13 110.023C1911.31 105.207 1906.58 99.2833 1902.96 92.242L1901.18 93.1567C1904.92 100.427 1909.81 106.567 1915.85 111.564L1917.13 110.023ZM1902.97 92.2521C1899.38 85.0696 1897.55 76.0336 1897.55 65.0975H1895.55C1895.55 76.2429 1897.41 85.6081 1901.18 93.1466L1902.97 92.2521ZM1897.55 65.0975C1897.55 51.9725 1900.68 40.7212 1906.9 31.2992L1905.23 30.198C1898.76 39.9951 1895.55 51.6431 1895.55 65.0975H1897.55ZM1906.89 31.3114C1913.31 21.8709 1922.16 14.7305 1933.44 9.89301L1932.66 8.05472C1921.04 13.0312 1911.89 20.4073 1905.23 30.1858L1906.89 31.3114ZM1933.46 9.887C1944.76 4.84267 1957.8 2.3067 1972.61 2.3067V0.306701C1957.57 0.306701 1944.24 2.88218 1932.64 8.06072L1933.46 9.887ZM1972.61 2.3067C1987.62 2.3067 2001.29 4.94322 2013.62 10.2005L2014.41 8.36062C2001.8 2.98608 1987.86 0.306701 1972.61 0.306701V2.3067ZM2013.63 10.2027C2026.18 15.4676 2036.48 22.6434 2044.55 31.7197L2046.04 30.391C2037.76 21.0661 2027.2 13.7253 2014.4 8.35835L2013.63 10.2027ZM2044.59 30.3447L2013.31 61.3201L2014.72 62.7412L2046 31.7659L2044.59 30.3447ZM2014.73 61.3345C2008.13 54.524 2001.39 49.4365 1994.52 46.1032L1993.64 47.9028C2000.26 51.1122 2006.82 56.0431 2013.3 62.7268L2014.73 61.3345ZM1994.53 46.1086C1987.83 42.7583 1980.21 41.096 1971.69 41.096V43.096C1979.94 43.096 1987.25 44.7051 1993.63 47.8975L1994.53 46.1086ZM1971.69 41.096C1963.19 41.096 1956.33 42.753 1951.2 46.171L1952.31 47.8351C1957 44.7104 1963.43 43.096 1971.69 43.096V41.096ZM1951.23 46.155C1946.02 49.4101 1943.4 54.2335 1943.4 60.4972H1945.4C1945.4 54.9024 1947.68 50.7297 1952.29 47.851L1951.23 46.155ZM1943.4 60.4972C1943.4 66.2651 1945.33 71.0356 1949.23 74.7185L1950.6 73.2644C1947.14 69.9958 1945.4 65.7702 1945.4 60.4972H1943.4ZM1949.25 74.7389C1953.04 78.103 1957.95 81.0187 1963.95 83.5027L1964.71 81.6547C1958.86 79.2316 1954.16 76.4225 1950.58 73.244L1949.25 74.7389ZM1963.96 83.5072C1970.11 85.9677 1976.77 88.4269 1983.94 90.8851L1984.59 88.9932C1977.45 86.5444 1970.82 84.0967 1964.7 81.6502L1963.96 83.5072ZM1983.95 90.8878C1991.28 93.3299 1998.5 96.1792 2005.63 99.4359L2006.46 97.6169C1999.27 94.331 1991.98 91.4554 1984.58 88.9905L1983.95 90.8878ZM2005.63 99.4359C2012.7 102.668 2019.16 106.808 2025.02 111.858L2026.32 110.343C2020.32 105.17 2013.7 100.927 2006.46 97.6169L2005.63 99.4359ZM2025.04 111.881C2031.05 116.685 2035.86 122.898 2039.49 130.543L2041.29 129.687C2037.55 121.794 2032.56 115.33 2026.29 110.32L2025.04 111.881ZM2039.49 130.553C2043.09 137.943 2044.91 147.188 2044.91 158.33H2046.91C2046.91 146.982 2045.05 137.417 2041.29 129.678L2039.49 130.553ZM2044.91 158.33C2044.91 178.71 2037.66 194.665 2023.2 206.315L2024.46 207.872C2039.44 195.805 2046.91 179.251 2046.91 158.33H2044.91ZM2023.21 206.309C2008.72 217.779 1988.62 223.575 1962.8 223.575V225.575C1988.9 225.575 2009.49 219.717 2024.45 207.878L2023.21 206.309ZM2150.41 223.575C2132.76 223.575 2117.19 219.824 2103.66 212.352L2102.69 214.103C2116.56 221.76 2132.47 225.575 2150.41 225.575V223.575ZM2103.67 212.355C2090.33 204.877 2079.82 194.576 2072.14 181.441L2070.42 182.45C2078.28 195.894 2089.04 206.448 2102.69 214.1L2103.67 212.355ZM2072.15 181.456C2064.68 168.127 2060.93 152.965 2060.93 135.942H2058.93C2058.93 153.269 2062.75 168.775 2070.41 182.434L2072.15 181.456ZM2060.93 135.942V4.68025H2058.93V135.942H2060.93ZM2059.93 5.68025H2108.39V3.68025H2059.93V5.68025ZM2107.39 4.68025V138.702H2109.39V4.68025H2107.39ZM2107.39 138.702C2107.39 147.435 2109.26 155.078 2113.05 161.593L2114.78 160.588C2111.2 154.427 2109.39 147.144 2109.39 138.702H2107.39ZM2113.05 161.593C2116.82 168.086 2121.96 173.124 2128.46 176.688L2129.42 174.935C2123.24 171.548 2118.37 166.771 2114.78 160.588L2113.05 161.593ZM2128.49 176.706C2135.18 180.051 2142.49 181.718 2150.41 181.718V179.718C2142.78 179.718 2135.78 178.115 2129.39 174.917L2128.49 176.706ZM2150.41 181.718C2158.72 181.718 2166.04 180.055 2172.35 176.694L2171.4 174.929C2165.44 178.111 2158.45 179.718 2150.41 179.718V181.718ZM2172.37 176.681C2178.66 173.116 2183.59 168.181 2187.16 161.89L2185.42 160.904C2182.03 166.88 2177.36 171.555 2171.38 174.941L2172.37 176.681ZM2187.15 161.899C2190.94 155.384 2192.81 147.742 2192.81 139.009H2190.81C2190.81 147.45 2189 154.734 2185.42 160.895L2187.15 161.899ZM2192.81 139.009V4.68025H2190.81V139.009H2192.81ZM2191.81 5.68025H2240.27V3.68025H2191.81V5.68025ZM2239.27 4.68025V136.249H2241.27V4.68025H2239.27ZM2239.27 136.249C2239.27 153.272 2235.52 168.329 2228.05 181.451L2229.79 182.44C2237.45 168.982 2241.27 153.575 2241.27 136.249H2239.27ZM2228.05 181.451C2220.58 194.58 2210.18 204.878 2196.84 212.355L2197.82 214.1C2211.47 206.447 2222.13 195.89 2229.79 182.44L2228.05 181.451ZM2196.84 212.355C2183.52 219.824 2168.05 223.575 2150.41 223.575V225.575C2168.34 225.575 2184.15 221.76 2197.82 214.1L2196.84 212.355ZM2238.37 221.57L2324.24 5.04891L2322.38 4.31158L2236.51 220.832L2238.37 221.57ZM2323.31 5.68025H2366.86V3.68025H2323.31V5.68025ZM2365.93 5.04549L2450.88 221.566L2452.74 220.836L2367.79 4.315L2365.93 5.04549ZM2451.81 220.201H2400.9V222.201H2451.81V220.201ZM2401.84 220.861L2336.83 41.1425L2334.95 41.8229L2399.96 221.541L2401.84 220.861ZM2335.89 42.4827H2353.37V40.4827H2335.89V42.4827ZM2352.43 41.1382L2286.49 220.857L2288.37 221.546L2354.31 41.8271L2352.43 41.1382ZM2287.43 220.201H2237.44V222.201H2287.43V220.201ZM2287.2 181.945V142.689H2285.2V181.945H2287.2ZM2286.2 143.689H2404.28V141.689H2286.2V143.689ZM2403.28 142.689V181.945H2405.28V142.689H2403.28ZM2404.28 180.945H2286.2V182.945H2404.28V180.945ZM2458.86 221.201V4.68025H2456.86V221.201H2458.86ZM2457.86 5.68025H2506.01V3.68025H2457.86V5.68025ZM2505.01 4.68025V221.201H2507.01V4.68025H2505.01ZM2506.01 220.201H2457.86V222.201H2506.01V220.201ZM2495.97 221.201V178.878H2493.97V221.201H2495.97ZM2494.97 179.878H2602V177.878H2494.97V179.878ZM2601 178.878V221.201H2603V178.878H2601ZM2602 220.201H2494.97V222.201H2602V220.201ZM34.5089 607.626V565.304H32.5089V607.626H34.5089ZM33.5089 566.304H87.1793V564.304H33.5089V566.304ZM87.1793 566.304C100.396 566.304 112.01 563.722 121.99 558.523L121.066 556.75C111.419 561.774 100.133 564.304 87.1793 564.304V566.304ZM122.005 558.516C131.995 553.104 139.7 545.293 145.107 535.104L143.34 534.166C138.115 544.014 130.69 551.537 121.052 556.757L122.005 558.516ZM145.107 535.104C150.513 524.914 153.197 512.888 153.197 499.059H151.197C151.197 512.628 148.565 524.319 143.34 534.166L145.107 535.104ZM153.197 499.059C153.197 485.226 150.409 473.293 144.788 463.3L143.045 464.281C148.465 473.916 151.197 485.495 151.197 499.059H153.197ZM144.796 463.314C139.387 453.329 131.682 445.625 121.698 440.216L120.745 441.975C130.389 447.198 137.814 454.623 143.037 464.267L144.796 463.314ZM121.706 440.22C111.922 434.808 100.402 432.122 87.1793 432.122V434.122C100.128 434.122 111.302 436.751 120.738 441.971L121.706 440.22ZM87.1793 432.122H31.9755V434.122H87.1793V432.122ZM32.9755 433.122V391.106H30.9755V433.122H32.9755ZM31.9755 392.106H87.7926V390.106H31.9755V392.106ZM87.7926 392.106C104.04 392.106 118.943 394.745 132.514 400.012L133.238 398.147C119.411 392.782 104.259 390.106 87.7926 390.106V392.106ZM132.531 400.018C146.31 405.084 158.254 412.475 168.372 422.189L169.757 420.746C159.43 410.832 147.248 403.298 133.221 398.141L132.531 400.018ZM168.387 422.203C178.707 431.713 186.597 443.042 192.063 456.2L193.91 455.433C188.335 442.012 180.278 430.441 169.743 420.732L168.387 422.203ZM192.07 456.217C197.734 469.162 200.574 483.54 200.574 499.366H202.574C202.574 483.296 199.689 468.641 193.903 455.416L192.07 456.217ZM200.574 499.366C200.574 514.985 197.735 529.366 192.068 542.52L193.905 543.311C199.688 529.886 202.574 515.233 202.574 499.366H200.574ZM192.063 542.532C186.595 555.695 178.804 567.026 168.687 576.536L170.057 577.993C180.385 568.284 188.337 556.716 193.91 543.299L192.063 542.532ZM168.687 576.536C158.564 586.051 146.614 593.446 132.825 598.719L133.54 600.587C147.557 595.227 159.733 587.697 170.057 577.993L168.687 576.536ZM132.821 598.72C119.248 603.987 104.447 606.626 88.406 606.626V608.626C104.67 608.626 119.719 605.95 133.544 600.585L132.821 598.72ZM88.406 606.626H33.5089V608.626H88.406V606.626ZM2 607.626V391.106H0V607.626H2ZM1 392.106H49.15V390.106H1V392.106ZM48.15 391.106V607.626H50.15V391.106H48.15ZM49.15 606.626H1V608.626H49.15V606.626ZM216.346 607.626V391.106H214.346V607.626H216.346ZM215.346 392.106H263.496V390.106H215.346V392.106ZM262.496 391.106V607.626H264.496V391.106H262.496ZM263.496 606.626H215.346V608.626H263.496V606.626ZM253.149 607.626V565.917H251.149V607.626H253.149ZM252.149 566.917H370.837V564.917H252.149V566.917ZM369.837 565.917V607.626H371.837V565.917H369.837ZM370.837 606.626H252.149V608.626H370.837V606.626ZM253.149 517.154V476.978H251.149V517.154H253.149ZM252.149 477.978H360.103V475.978H252.149V477.978ZM359.103 476.978V517.154H361.103V476.978H359.103ZM360.103 516.154H252.149V518.154H360.103V516.154ZM253.149 432.508V391.106H251.149V432.508H253.149ZM252.149 392.106H369.303V390.106H252.149V392.106ZM368.303 391.106V432.508H370.303V391.106H368.303ZM369.303 431.508H252.149V433.508H369.303V431.508ZM446.79 610C429.106 610 413.917 607.154 401.193 601.499L400.381 603.327C413.418 609.121 428.897 612 446.79 612V610ZM401.21 601.507C388.672 595.642 377.123 586.836 366.569 575.063L365.08 576.399C375.789 588.344 387.549 597.325 400.363 603.319L401.21 601.507ZM366.528 576.442L397.81 545.466L396.403 544.045L365.121 575.02L366.528 576.442ZM396.353 545.413C403.375 553.467 411.135 559.784 419.635 564.345L420.581 562.582C412.316 558.147 404.741 551.991 397.86 544.099L396.353 545.413ZM419.661 564.358C428.409 568.732 438.483 570.904 449.857 570.904V568.904C438.74 568.904 428.982 566.782 420.555 562.569L419.661 564.358ZM449.857 570.904C460.178 570.904 468.275 569.05 474.026 565.216L472.917 563.552C467.628 567.078 459.981 568.904 449.857 568.904V570.904ZM474.012 565.225C480.01 561.369 483.059 555.948 483.059 549.049H481.059C481.059 555.235 478.383 560.037 472.931 563.542L474.012 565.225ZM483.059 549.049C483.059 542.895 481.14 537.822 477.246 533.928L475.831 535.342C479.298 538.808 481.059 543.345 481.059 549.049H483.059ZM477.246 533.928C473.455 530.137 468.433 526.905 462.215 524.21L461.42 526.045C467.47 528.667 472.262 531.772 475.831 535.342L477.246 533.928ZM462.227 524.215C456.262 521.541 449.585 518.974 442.199 516.512L441.567 518.409C448.901 520.854 455.515 523.398 461.409 526.04L462.227 524.215ZM442.207 516.515C435.075 514.069 427.943 511.318 420.809 508.261L420.021 510.099C427.199 513.175 434.378 515.945 441.559 518.406L442.207 516.515ZM420.831 508.27C413.742 505.03 407.161 501.082 401.088 496.426L399.872 498.013C406.066 502.762 412.776 506.787 419.999 510.089L420.831 508.27ZM401.118 496.449C395.297 491.632 390.576 485.709 386.955 478.667L385.176 479.582C388.916 486.853 393.804 492.992 399.842 497.99L401.118 496.449ZM386.96 478.677C383.369 471.495 381.545 462.459 381.545 451.523H379.545C379.545 462.668 381.402 472.033 385.171 479.572L386.96 478.677ZM381.545 451.523C381.545 438.398 384.673 427.147 390.887 417.725L389.218 416.623C382.756 426.42 379.545 438.068 379.545 451.523H381.545ZM390.879 417.737C397.307 408.296 406.148 401.156 417.435 396.318L416.647 394.48C405.035 399.457 395.884 406.833 389.226 416.611L390.879 417.737ZM417.449 396.312C428.748 391.268 441.793 388.732 456.604 388.732V386.732C441.564 386.732 428.233 389.307 416.633 394.486L417.449 396.312ZM456.604 388.732C471.615 388.732 485.28 391.369 497.615 396.626L498.399 394.786C485.789 389.411 471.853 386.732 456.604 386.732V388.732ZM497.62 396.628C510.175 401.893 520.474 409.069 528.542 418.145L530.036 416.816C521.747 407.491 511.192 400.151 498.393 394.784L497.62 396.628ZM528.585 416.77L497.303 447.745L498.71 449.167L529.992 418.191L528.585 416.77ZM498.725 447.76C492.12 440.949 485.383 435.862 478.508 432.529L477.636 434.328C484.255 437.537 490.808 442.468 497.289 449.152L498.725 447.76ZM478.519 432.534C471.819 429.184 464.199 427.521 455.684 427.521V429.521C463.934 429.521 471.24 431.13 477.625 434.323L478.519 432.534ZM455.684 427.521C447.183 427.521 440.321 429.178 435.194 432.596L436.304 434.26C440.991 431.136 447.419 429.521 455.684 429.521V427.521ZM435.219 432.58C430.011 435.835 427.389 440.659 427.389 446.923H429.389C429.389 441.328 431.673 437.155 436.279 434.276L435.219 432.58ZM427.389 446.923C427.389 452.69 429.323 457.461 433.222 461.144L434.596 459.69C431.135 456.421 429.389 452.195 429.389 446.923H427.389ZM433.245 461.164C437.029 464.528 441.938 467.444 447.941 469.928L448.706 468.08C442.85 465.657 438.149 462.848 434.573 459.669L433.245 461.164ZM447.952 469.932C454.103 472.393 460.764 474.852 467.934 477.31L468.582 475.419C461.44 472.97 454.811 470.522 448.695 468.076L447.952 469.932ZM467.942 477.313C475.268 479.755 482.493 482.604 489.617 485.861L490.449 484.042C483.261 480.756 475.969 477.881 468.574 475.416L467.942 477.313ZM489.617 485.861C496.688 489.093 503.15 493.234 509.008 498.283L510.314 496.768C504.313 491.595 497.69 487.353 490.449 484.042L489.617 485.861ZM509.036 498.307C515.04 503.11 519.857 509.323 523.478 516.969L525.286 516.112C521.547 508.219 516.549 501.756 510.286 496.745L509.036 498.307ZM523.483 516.978C527.078 524.369 528.902 533.613 528.902 544.756H530.902C530.902 533.408 529.046 523.842 525.281 516.103L523.483 516.978ZM528.902 544.756C528.902 565.135 521.655 581.091 507.193 592.74L508.448 594.298C523.429 582.23 530.902 565.677 530.902 544.756H528.902ZM507.2 592.735C492.713 604.204 472.616 610 446.79 610V612C472.896 612 493.487 606.142 508.441 594.303L507.2 592.735ZM544.706 607.626V391.106H542.706V607.626H544.706ZM543.706 392.106H591.856V390.106H543.706V392.106ZM590.856 391.106V607.626H592.856V391.106H590.856ZM591.856 606.626H543.706V608.626H591.856V606.626ZM718.815 610C703.196 610 688.503 607.161 674.726 601.488L673.964 603.337C687.994 609.114 702.947 612 718.815 612V610ZM674.731 601.49C661.145 595.812 649.291 588.01 639.162 578.084L637.763 579.512C648.08 589.623 660.148 597.564 673.959 603.335L674.731 601.49ZM639.17 578.091C629.036 567.957 621.03 556.203 615.15 542.82L613.319 543.624C619.297 557.23 627.443 569.193 637.755 579.505L639.17 578.091ZM615.157 542.837C609.486 529.267 606.647 514.678 606.647 499.059H604.647C604.647 514.927 607.533 529.78 613.312 543.608L615.157 542.837ZM606.647 499.059C606.647 483.445 609.587 468.964 615.456 455.605L613.625 454.801C607.637 468.43 604.647 483.187 604.647 499.059H606.647ZM615.456 455.605C621.334 442.229 629.438 430.581 639.769 420.655L638.383 419.213C627.859 429.324 619.606 441.189 613.625 454.801L615.456 455.605ZM639.769 420.655C650.304 410.526 662.561 402.724 676.55 397.251L675.821 395.388C661.594 400.955 649.112 408.897 638.383 419.213L639.769 420.655ZM676.561 397.246C690.542 391.572 705.544 388.732 721.575 388.732V386.732C705.302 386.732 690.043 389.616 675.809 395.393L676.561 397.246ZM721.575 388.732C740.058 388.732 756.784 392.083 771.771 398.766L772.586 396.939C757.313 390.128 740.304 386.732 721.575 386.732V388.732ZM771.776 398.768C786.982 405.459 799.531 414.673 809.444 426.407L810.972 425.116C800.847 413.132 788.044 403.741 772.581 396.937L771.776 398.768ZM809.501 425.054L776.685 457.87L778.099 459.284L810.915 426.468L809.501 425.054ZM778.183 457.965C771.145 448.857 762.847 442.005 753.289 437.433L752.426 439.237C761.677 443.662 769.736 450.304 776.601 459.188L778.183 457.965ZM753.289 437.433C743.731 432.862 732.949 430.588 720.962 430.588V432.588C732.691 432.588 743.173 434.812 752.426 439.237L753.289 437.433ZM720.962 430.588C708.129 430.588 696.607 433.488 686.423 439.307L687.415 441.044C697.268 435.414 708.442 432.588 720.962 432.588V430.588ZM686.437 439.3C676.25 444.912 668.245 452.92 662.432 463.302L664.177 464.279C669.813 454.215 677.551 446.479 687.402 441.051L686.437 439.3ZM662.428 463.308C656.813 473.499 654.024 485.427 654.024 499.059H656.024C656.024 485.703 658.755 474.119 664.18 464.273L662.428 463.308ZM654.024 499.059C654.024 512.693 656.813 524.719 662.424 535.11L664.184 534.16C658.754 524.105 656.024 512.415 656.024 499.059H654.024ZM662.424 535.11C668.027 545.485 675.717 553.595 685.487 559.416L686.511 557.697C677.063 552.069 669.622 544.23 664.184 534.16L662.424 535.11ZM685.487 559.416C695.269 565.243 706.491 568.144 719.121 568.144V566.144C706.808 566.144 695.948 563.32 686.511 557.697L685.487 559.416ZM719.121 568.144C731.919 568.144 742.824 565.77 751.795 560.972L750.852 559.208C742.24 563.815 731.677 566.144 719.121 566.144V568.144ZM751.803 560.968C760.971 555.967 767.963 548.872 772.758 539.699L770.986 538.772C766.376 547.591 759.669 554.399 750.845 559.212L751.803 560.968ZM772.754 539.706C777.756 530.328 780.232 519.015 780.232 505.806H778.232C778.232 518.769 775.802 529.741 770.989 538.765L772.754 539.706ZM778.674 506.636L810.569 528.104L811.686 526.445L779.791 504.977L778.674 506.636ZM811.144 526.275L714.537 524.741L714.505 526.741L811.112 528.274L811.144 526.275ZM715.521 525.741V484.952H713.521V525.741H715.521ZM714.521 485.952H828.302V483.952H714.521V485.952ZM827.302 484.952V492.006H829.302V484.952H827.302ZM827.302 492.006C827.302 517.855 822.621 539.561 813.311 557.169L815.079 558.104C824.579 540.136 829.302 518.089 829.302 492.006H827.302ZM813.309 557.173C804.195 574.59 791.452 587.731 775.075 596.627L776.029 598.384C792.774 589.288 805.793 575.849 815.081 558.1L813.309 557.173ZM775.07 596.63C758.882 605.533 740.14 610 718.815 610V612C740.426 612 759.509 607.471 776.034 598.382L775.07 596.63ZM841.618 607.626V391.106H839.618V607.626H841.618ZM840.618 392.106H874.353V390.106H840.618V392.106ZM873.405 391.422L887.819 434.665L889.716 434.032L875.302 390.789L873.405 391.422ZM887.768 434.348V607.626H889.768V434.348H887.768ZM888.768 606.626H840.618V608.626H888.768V606.626ZM990.763 607.011L863.181 443.547L861.604 444.778L989.186 608.242L990.763 607.011ZM863.368 444.382L875.329 391.326L873.378 390.886L861.417 443.942L863.368 444.382ZM873.565 391.721L1001.15 555.185L1002.72 553.954L875.142 390.49L873.565 391.721ZM1000.96 554.35L988.999 607.406L990.95 607.846L1002.91 554.789L1000.96 554.35ZM990.933 607.341L978.052 564.098L976.135 564.669L989.016 607.912L990.933 607.341ZM978.094 564.384V391.106H976.094V564.384H978.094ZM977.094 392.106H1025.24V390.106H977.094V392.106ZM1024.24 391.106V607.626H1026.24V391.106H1024.24ZM1025.24 606.626H989.975V608.626H1025.24V606.626ZM1051.17 607.626V391.106H1049.17V607.626H1051.17ZM1050.17 392.106H1098.32V390.106H1050.17V392.106ZM1097.32 391.106V607.626H1099.32V391.106H1097.32ZM1098.32 606.626H1050.17V608.626H1098.32V606.626ZM1087.97 607.626V565.917H1085.97V607.626H1087.97ZM1086.97 566.917H1205.66V564.917H1086.97V566.917ZM1204.66 565.917V607.626H1206.66V565.917H1204.66ZM1205.66 606.626H1086.97V608.626H1205.66V606.626ZM1087.97 517.154V476.978H1085.97V517.154H1087.97ZM1086.97 477.978H1194.93V475.978H1086.97V477.978ZM1193.93 476.978V517.154H1195.93V476.978H1193.93ZM1194.93 516.154H1086.97V518.154H1194.93V516.154ZM1087.97 432.508V391.106H1085.97V432.508H1087.97ZM1086.97 392.106H1204.13V390.106H1086.97V392.106ZM1203.13 391.106V432.508H1205.13V391.106H1203.13ZM1204.13 431.508H1086.97V433.508H1204.13V431.508ZM1259.79 518.381V482.805H1257.79V518.381H1259.79ZM1258.79 483.805H1304.49V481.805H1258.79V483.805ZM1304.49 483.805C1314.26 483.805 1321.91 481.307 1327.26 476.166L1325.88 474.723C1321.01 479.395 1313.93 481.805 1304.49 481.805V483.805ZM1327.25 476.179C1332.8 471.052 1335.54 464.123 1335.54 455.51H1333.54C1333.54 463.662 1330.97 470.023 1325.89 474.71L1327.25 476.179ZM1335.54 455.51C1335.54 447.497 1332.9 440.795 1327.58 435.481L1326.17 436.896C1331.08 441.805 1333.54 447.984 1333.54 455.51H1335.54ZM1327.58 435.481C1322.23 430.127 1314.58 427.521 1304.79 427.521V429.521C1314.23 429.521 1321.3 432.027 1326.17 436.896L1327.58 435.481ZM1304.79 427.521H1258.79V429.521H1304.79V427.521ZM1259.79 428.521V391.106H1257.79V428.521H1259.79ZM1258.79 392.106H1310.31V390.106H1258.79V392.106ZM1310.31 392.106C1324.5 392.106 1336.91 394.84 1347.58 400.277L1348.49 398.495C1337.49 392.891 1324.76 390.106 1310.31 390.106V392.106ZM1347.6 400.284C1358.28 405.524 1366.62 412.867 1372.65 422.312L1374.34 421.236C1368.1 411.463 1359.47 403.88 1348.48 398.488L1347.6 400.284ZM1372.65 422.312C1378.67 431.746 1381.69 442.597 1381.69 454.896H1383.69C1383.69 442.252 1380.58 431.021 1374.34 421.236L1372.65 422.312ZM1381.69 454.896C1381.69 467.404 1378.67 478.356 1372.65 487.787L1374.34 488.863C1380.58 479.075 1383.69 467.741 1383.69 454.896H1381.69ZM1372.65 487.779C1366.63 497.017 1358.19 504.262 1347.3 509.506L1348.16 511.308C1359.35 505.92 1368.09 498.443 1374.33 488.872L1372.65 487.779ZM1347.3 509.506C1336.42 514.744 1323.59 517.381 1308.78 517.381V519.381C1323.82 519.381 1336.96 516.701 1348.16 511.308L1347.3 509.506ZM1308.78 517.381H1258.79V519.381H1308.78V517.381ZM1222.99 607.626V391.106H1220.99V607.626H1222.99ZM1221.99 392.106H1270.14V390.106H1221.99V392.106ZM1269.14 391.106V607.626H1271.14V391.106H1269.14ZM1270.14 606.626H1221.99V608.626H1270.14V606.626ZM1340.57 607.04L1273.1 513.807L1271.48 514.98L1338.95 608.213L1340.57 607.04ZM1272.55 515.359L1316.71 503.398L1316.19 501.468L1272.02 513.428L1272.55 515.359ZM1315.65 503.04L1396.01 608.233L1397.6 607.019L1317.24 501.826L1315.65 503.04ZM1396.8 606.626H1339.76V608.626H1396.8V606.626Z" fill="#57667C" mask="url(#path-1-outside-1_287_13)"/>
</svg>
