<svg width="1282" height="37" viewBox="0 0 1282 37" fill="none" xmlns="http://www.w3.org/2000/svg">
<path d="M75.99 11.1C75.4033 11.1 74.9267 10.9467 74.56 10.64C74.2 10.3267 73.9933 9.9 73.94 9.36H74.6C74.6267 9.72 74.76 10.0033 75 10.21C75.24 10.41 75.5733 10.51 76 10.51C76.4533 10.51 76.8 10.3767 77.04 10.11C77.28 9.84333 77.4 9.46667 77.4 8.98V8.3C77.4 7.82 77.28 7.45 77.04 7.19C76.8 6.92333 76.4533 6.79 76 6.79C75.6867 6.79 75.42 6.87333 75.2 7.04C74.9867 7.20667 74.8367 7.44 74.75 7.74H74.09L74.14 3.7H77.84V4.3H74.78L74.75 7.1H74.76C74.8333 6.82 74.9967 6.6 75.25 6.44C75.51 6.28 75.8367 6.2 76.23 6.2C76.81 6.2 77.26 6.38333 77.58 6.75C77.9 7.11667 78.06 7.63333 78.06 8.3V8.98C78.06 9.62667 77.8767 10.1433 77.51 10.53C77.1433 10.91 76.6367 11.1 75.99 11.1ZM82.0061 11.1C81.3461 11.1 80.8261 10.9067 80.4461 10.52C80.0661 10.1333 79.8761 9.61 79.8761 8.95V5.75C79.8761 5.09 80.0661 4.56667 80.4461 4.18C80.8261 3.79333 81.3461 3.6 82.0061 3.6C82.6594 3.6 83.1728 3.79333 83.5461 4.18C83.9261 4.56 84.1161 5.08333 84.1161 5.75V8.95C84.1161 9.61 83.9261 10.1333 83.5461 10.52C83.1661 10.9067 82.6528 11.1 82.0061 11.1ZM82.0061 10.49C82.4461 10.49 82.7928 10.3533 83.0461 10.08C83.3061 9.8 83.4361 9.42333 83.4361 8.95V5.75C83.4361 5.28333 83.3061 4.91 83.0461 4.63C82.7928 4.35 82.4461 4.21 82.0061 4.21C81.5594 4.21 81.2061 4.35 80.9461 4.63C80.6861 4.91 80.5561 5.28333 80.5561 5.75V8.95C80.5561 9.41667 80.6861 9.79 80.9461 10.07C81.2061 10.35 81.5594 10.49 82.0061 10.49ZM81.9961 7.87C81.8361 7.87 81.7061 7.82 81.6061 7.72C81.5061 7.62 81.4561 7.48667 81.4561 7.32C81.4561 7.16 81.5061 7.03 81.6061 6.93C81.7061 6.83 81.8361 6.78 81.9961 6.78C82.1561 6.78 82.2861 6.83 82.3861 6.93C82.4861 7.03 82.5361 7.16 82.5361 7.32C82.5361 7.48667 82.4861 7.62 82.3861 7.72C82.2861 7.82 82.1561 7.87 81.9961 7.87Z" fill="#515151"/>
<path d="M121.96 11V10.4H123.99V4.27L122.01 5.74V5L123.77 3.7H124.65V10.4H126.34V11H121.96ZM130.006 11.1C129.346 11.1 128.826 10.9067 128.446 10.52C128.066 10.1333 127.876 9.61 127.876 8.95V5.75C127.876 5.09 128.066 4.56667 128.446 4.18C128.826 3.79333 129.346 3.6 130.006 3.6C130.659 3.6 131.173 3.79333 131.546 4.18C131.926 4.56 132.116 5.08333 132.116 5.75V8.95C132.116 9.61 131.926 10.1333 131.546 10.52C131.166 10.9067 130.653 11.1 130.006 11.1ZM130.006 10.49C130.446 10.49 130.793 10.3533 131.046 10.08C131.306 9.8 131.436 9.42333 131.436 8.95V5.75C131.436 5.28333 131.306 4.91 131.046 4.63C130.793 4.35 130.446 4.21 130.006 4.21C129.559 4.21 129.206 4.35 128.946 4.63C128.686 4.91 128.556 5.28333 128.556 5.75V8.95C128.556 9.41667 128.686 9.79 128.946 10.07C129.206 10.35 129.559 10.49 130.006 10.49ZM129.996 7.87C129.836 7.87 129.706 7.82 129.606 7.72C129.506 7.62 129.456 7.48667 129.456 7.32C129.456 7.16 129.506 7.03 129.606 6.93C129.706 6.83 129.836 6.78 129.996 6.78C130.156 6.78 130.286 6.83 130.386 6.93C130.486 7.03 130.536 7.16 130.536 7.32C130.536 7.48667 130.486 7.62 130.386 7.72C130.286 7.82 130.156 7.87 129.996 7.87ZM136.002 11.1C135.342 11.1 134.822 10.9067 134.442 10.52C134.062 10.1333 133.872 9.61 133.872 8.95V5.75C133.872 5.09 134.062 4.56667 134.442 4.18C134.822 3.79333 135.342 3.6 136.002 3.6C136.656 3.6 137.169 3.79333 137.542 4.18C137.922 4.56 138.112 5.08333 138.112 5.75V8.95C138.112 9.61 137.922 10.1333 137.542 10.52C137.162 10.9067 136.649 11.1 136.002 11.1ZM136.002 10.49C136.442 10.49 136.789 10.3533 137.042 10.08C137.302 9.8 137.432 9.42333 137.432 8.95V5.75C137.432 5.28333 137.302 4.91 137.042 4.63C136.789 4.35 136.442 4.21 136.002 4.21C135.556 4.21 135.202 4.35 134.942 4.63C134.682 4.91 134.552 5.28333 134.552 5.75V8.95C134.552 9.41667 134.682 9.79 134.942 10.07C135.202 10.35 135.556 10.49 136.002 10.49ZM135.992 7.87C135.832 7.87 135.702 7.82 135.602 7.72C135.502 7.62 135.452 7.48667 135.452 7.32C135.452 7.16 135.502 7.03 135.602 6.93C135.702 6.83 135.832 6.78 135.992 6.78C136.152 6.78 136.282 6.83 136.382 6.93C136.482 7.03 136.532 7.16 136.532 7.32C136.532 7.48667 136.482 7.62 136.382 7.72C136.282 7.82 136.152 7.87 135.992 7.87Z" fill="#515151"/>
<path d="M173.96 11V10.4H175.99V4.27L174.01 5.74V5L175.77 3.7H176.65V10.4H178.34V11H173.96ZM181.986 11.1C181.399 11.1 180.923 10.9467 180.556 10.64C180.196 10.3267 179.989 9.9 179.936 9.36H180.596C180.623 9.72 180.756 10.0033 180.996 10.21C181.236 10.41 181.569 10.51 181.996 10.51C182.449 10.51 182.796 10.3767 183.036 10.11C183.276 9.84333 183.396 9.46667 183.396 8.98V8.3C183.396 7.82 183.276 7.45 183.036 7.19C182.796 6.92333 182.449 6.79 181.996 6.79C181.683 6.79 181.416 6.87333 181.196 7.04C180.983 7.20667 180.833 7.44 180.746 7.74H180.086L180.136 3.7H183.836V4.3H180.776L180.746 7.1H180.756C180.829 6.82 180.993 6.6 181.246 6.44C181.506 6.28 181.833 6.2 182.226 6.2C182.806 6.2 183.256 6.38333 183.576 6.75C183.896 7.11667 184.056 7.63333 184.056 8.3V8.98C184.056 9.62667 183.873 10.1433 183.506 10.53C183.139 10.91 182.633 11.1 181.986 11.1ZM188.002 11.1C187.342 11.1 186.822 10.9067 186.442 10.52C186.062 10.1333 185.872 9.61 185.872 8.95V5.75C185.872 5.09 186.062 4.56667 186.442 4.18C186.822 3.79333 187.342 3.6 188.002 3.6C188.656 3.6 189.169 3.79333 189.542 4.18C189.922 4.56 190.112 5.08333 190.112 5.75V8.95C190.112 9.61 189.922 10.1333 189.542 10.52C189.162 10.9067 188.649 11.1 188.002 11.1ZM188.002 10.49C188.442 10.49 188.789 10.3533 189.042 10.08C189.302 9.8 189.432 9.42333 189.432 8.95V5.75C189.432 5.28333 189.302 4.91 189.042 4.63C188.789 4.35 188.442 4.21 188.002 4.21C187.556 4.21 187.202 4.35 186.942 4.63C186.682 4.91 186.552 5.28333 186.552 5.75V8.95C186.552 9.41667 186.682 9.79 186.942 10.07C187.202 10.35 187.556 10.49 188.002 10.49ZM187.992 7.87C187.832 7.87 187.702 7.82 187.602 7.72C187.502 7.62 187.452 7.48667 187.452 7.32C187.452 7.16 187.502 7.03 187.602 6.93C187.702 6.83 187.832 6.78 187.992 6.78C188.152 6.78 188.282 6.83 188.382 6.93C188.482 7.03 188.532 7.16 188.532 7.32C188.532 7.48667 188.482 7.62 188.382 7.72C188.282 7.82 188.152 7.87 187.992 7.87Z" fill="#515151"/>
<path d="M225.94 11V10.34L228.27 7.89C228.677 7.46333 228.977 7.07333 229.17 6.72C229.363 6.36667 229.46 6.01667 229.46 5.67C229.46 5.21667 229.323 4.85667 229.05 4.59C228.783 4.31667 228.42 4.18 227.96 4.18C227.5 4.18 227.133 4.31667 226.86 4.59C226.587 4.86333 226.45 5.23 226.45 5.69H225.79C225.797 5.05 225.997 4.54333 226.39 4.17C226.783 3.79 227.307 3.6 227.96 3.6C228.62 3.6 229.143 3.78667 229.53 4.16C229.923 4.52667 230.12 5.02333 230.12 5.65C230.12 6.06333 230.003 6.48333 229.77 6.91C229.537 7.33667 229.18 7.8 228.7 8.3L226.69 10.4H230.28V11H225.94ZM234.006 11.1C233.346 11.1 232.826 10.9067 232.446 10.52C232.066 10.1333 231.876 9.61 231.876 8.95V5.75C231.876 5.09 232.066 4.56667 232.446 4.18C232.826 3.79333 233.346 3.6 234.006 3.6C234.659 3.6 235.173 3.79333 235.546 4.18C235.926 4.56 236.116 5.08333 236.116 5.75V8.95C236.116 9.61 235.926 10.1333 235.546 10.52C235.166 10.9067 234.653 11.1 234.006 11.1ZM234.006 10.49C234.446 10.49 234.793 10.3533 235.046 10.08C235.306 9.8 235.436 9.42333 235.436 8.95V5.75C235.436 5.28333 235.306 4.91 235.046 4.63C234.793 4.35 234.446 4.21 234.006 4.21C233.559 4.21 233.206 4.35 232.946 4.63C232.686 4.91 232.556 5.28333 232.556 5.75V8.95C232.556 9.41667 232.686 9.79 232.946 10.07C233.206 10.35 233.559 10.49 234.006 10.49ZM233.996 7.87C233.836 7.87 233.706 7.82 233.606 7.72C233.506 7.62 233.456 7.48667 233.456 7.32C233.456 7.16 233.506 7.03 233.606 6.93C233.706 6.83 233.836 6.78 233.996 6.78C234.156 6.78 234.286 6.83 234.386 6.93C234.486 7.03 234.536 7.16 234.536 7.32C234.536 7.48667 234.486 7.62 234.386 7.72C234.286 7.82 234.156 7.87 233.996 7.87ZM240.002 11.1C239.342 11.1 238.822 10.9067 238.442 10.52C238.062 10.1333 237.872 9.61 237.872 8.95V5.75C237.872 5.09 238.062 4.56667 238.442 4.18C238.822 3.79333 239.342 3.6 240.002 3.6C240.656 3.6 241.169 3.79333 241.542 4.18C241.922 4.56 242.112 5.08333 242.112 5.75V8.95C242.112 9.61 241.922 10.1333 241.542 10.52C241.162 10.9067 240.649 11.1 240.002 11.1ZM240.002 10.49C240.442 10.49 240.789 10.3533 241.042 10.08C241.302 9.8 241.432 9.42333 241.432 8.95V5.75C241.432 5.28333 241.302 4.91 241.042 4.63C240.789 4.35 240.442 4.21 240.002 4.21C239.556 4.21 239.202 4.35 238.942 4.63C238.682 4.91 238.552 5.28333 238.552 5.75V8.95C238.552 9.41667 238.682 9.79 238.942 10.07C239.202 10.35 239.556 10.49 240.002 10.49ZM239.992 7.87C239.832 7.87 239.702 7.82 239.602 7.72C239.502 7.62 239.452 7.48667 239.452 7.32C239.452 7.16 239.502 7.03 239.602 6.93C239.702 6.83 239.832 6.78 239.992 6.78C240.152 6.78 240.282 6.83 240.382 6.93C240.482 7.03 240.532 7.16 240.532 7.32C240.532 7.48667 240.482 7.62 240.382 7.72C240.282 7.82 240.152 7.87 239.992 7.87Z" fill="#515151"/>
<path d="M277.94 11V10.34L280.27 7.89C280.677 7.46333 280.977 7.07333 281.17 6.72C281.363 6.36667 281.46 6.01667 281.46 5.67C281.46 5.21667 281.323 4.85667 281.05 4.59C280.783 4.31667 280.42 4.18 279.96 4.18C279.5 4.18 279.133 4.31667 278.86 4.59C278.587 4.86333 278.45 5.23 278.45 5.69H277.79C277.797 5.05 277.997 4.54333 278.39 4.17C278.783 3.79 279.307 3.6 279.96 3.6C280.62 3.6 281.143 3.78667 281.53 4.16C281.923 4.52667 282.12 5.02333 282.12 5.65C282.12 6.06333 282.003 6.48333 281.77 6.91C281.537 7.33667 281.18 7.8 280.7 8.3L278.69 10.4H282.28V11H277.94ZM285.986 11.1C285.399 11.1 284.923 10.9467 284.556 10.64C284.196 10.3267 283.989 9.9 283.936 9.36H284.596C284.623 9.72 284.756 10.0033 284.996 10.21C285.236 10.41 285.569 10.51 285.996 10.51C286.449 10.51 286.796 10.3767 287.036 10.11C287.276 9.84333 287.396 9.46667 287.396 8.98V8.3C287.396 7.82 287.276 7.45 287.036 7.19C286.796 6.92333 286.449 6.79 285.996 6.79C285.683 6.79 285.416 6.87333 285.196 7.04C284.983 7.20667 284.833 7.44 284.746 7.74H284.086L284.136 3.7H287.836V4.3H284.776L284.746 7.1H284.756C284.829 6.82 284.993 6.6 285.246 6.44C285.506 6.28 285.833 6.2 286.226 6.2C286.806 6.2 287.256 6.38333 287.576 6.75C287.896 7.11667 288.056 7.63333 288.056 8.3V8.98C288.056 9.62667 287.873 10.1433 287.506 10.53C287.139 10.91 286.633 11.1 285.986 11.1ZM292.002 11.1C291.342 11.1 290.822 10.9067 290.442 10.52C290.062 10.1333 289.872 9.61 289.872 8.95V5.75C289.872 5.09 290.062 4.56667 290.442 4.18C290.822 3.79333 291.342 3.6 292.002 3.6C292.656 3.6 293.169 3.79333 293.542 4.18C293.922 4.56 294.112 5.08333 294.112 5.75V8.95C294.112 9.61 293.922 10.1333 293.542 10.52C293.162 10.9067 292.649 11.1 292.002 11.1ZM292.002 10.49C292.442 10.49 292.789 10.3533 293.042 10.08C293.302 9.8 293.432 9.42333 293.432 8.95V5.75C293.432 5.28333 293.302 4.91 293.042 4.63C292.789 4.35 292.442 4.21 292.002 4.21C291.556 4.21 291.202 4.35 290.942 4.63C290.682 4.91 290.552 5.28333 290.552 5.75V8.95C290.552 9.41667 290.682 9.79 290.942 10.07C291.202 10.35 291.556 10.49 292.002 10.49ZM291.992 7.87C291.832 7.87 291.702 7.82 291.602 7.72C291.502 7.62 291.452 7.48667 291.452 7.32C291.452 7.16 291.502 7.03 291.602 6.93C291.702 6.83 291.832 6.78 291.992 6.78C292.152 6.78 292.282 6.83 292.382 6.93C292.482 7.03 292.532 7.16 292.532 7.32C292.532 7.48667 292.482 7.62 292.382 7.72C292.282 7.82 292.152 7.87 291.992 7.87Z" fill="#515151"/>
<path d="M331.9 11.1C331.267 11.1 330.76 10.9167 330.38 10.55C330.007 10.1767 329.82 9.68 329.82 9.06H330.48C330.48 9.51333 330.607 9.87 330.86 10.13C331.113 10.3833 331.46 10.51 331.9 10.51C332.34 10.51 332.687 10.38 332.94 10.12C333.193 9.86 333.32 9.50667 333.32 9.06V8.43C333.32 7.98333 333.193 7.63667 332.94 7.39C332.693 7.13667 332.347 7.01 331.9 7.01H331.28V6.44L333.09 4.3H330.09V3.7H333.82V4.32L332.03 6.43C332.63 6.45667 333.103 6.65 333.45 7.01C333.803 7.36333 333.98 7.83667 333.98 8.43V9.06C333.98 9.68 333.79 10.1767 333.41 10.55C333.03 10.9167 332.527 11.1 331.9 11.1ZM338.006 11.1C337.346 11.1 336.826 10.9067 336.446 10.52C336.066 10.1333 335.876 9.61 335.876 8.95V5.75C335.876 5.09 336.066 4.56667 336.446 4.18C336.826 3.79333 337.346 3.6 338.006 3.6C338.659 3.6 339.173 3.79333 339.546 4.18C339.926 4.56 340.116 5.08333 340.116 5.75V8.95C340.116 9.61 339.926 10.1333 339.546 10.52C339.166 10.9067 338.653 11.1 338.006 11.1ZM338.006 10.49C338.446 10.49 338.793 10.3533 339.046 10.08C339.306 9.8 339.436 9.42333 339.436 8.95V5.75C339.436 5.28333 339.306 4.91 339.046 4.63C338.793 4.35 338.446 4.21 338.006 4.21C337.559 4.21 337.206 4.35 336.946 4.63C336.686 4.91 336.556 5.28333 336.556 5.75V8.95C336.556 9.41667 336.686 9.79 336.946 10.07C337.206 10.35 337.559 10.49 338.006 10.49ZM337.996 7.87C337.836 7.87 337.706 7.82 337.606 7.72C337.506 7.62 337.456 7.48667 337.456 7.32C337.456 7.16 337.506 7.03 337.606 6.93C337.706 6.83 337.836 6.78 337.996 6.78C338.156 6.78 338.286 6.83 338.386 6.93C338.486 7.03 338.536 7.16 338.536 7.32C338.536 7.48667 338.486 7.62 338.386 7.72C338.286 7.82 338.156 7.87 337.996 7.87ZM344.002 11.1C343.342 11.1 342.822 10.9067 342.442 10.52C342.062 10.1333 341.872 9.61 341.872 8.95V5.75C341.872 5.09 342.062 4.56667 342.442 4.18C342.822 3.79333 343.342 3.6 344.002 3.6C344.656 3.6 345.169 3.79333 345.542 4.18C345.922 4.56 346.112 5.08333 346.112 5.75V8.95C346.112 9.61 345.922 10.1333 345.542 10.52C345.162 10.9067 344.649 11.1 344.002 11.1ZM344.002 10.49C344.442 10.49 344.789 10.3533 345.042 10.08C345.302 9.8 345.432 9.42333 345.432 8.95V5.75C345.432 5.28333 345.302 4.91 345.042 4.63C344.789 4.35 344.442 4.21 344.002 4.21C343.556 4.21 343.202 4.35 342.942 4.63C342.682 4.91 342.552 5.28333 342.552 5.75V8.95C342.552 9.41667 342.682 9.79 342.942 10.07C343.202 10.35 343.556 10.49 344.002 10.49ZM343.992 7.87C343.832 7.87 343.702 7.82 343.602 7.72C343.502 7.62 343.452 7.48667 343.452 7.32C343.452 7.16 343.502 7.03 343.602 6.93C343.702 6.83 343.832 6.78 343.992 6.78C344.152 6.78 344.282 6.83 344.382 6.93C344.482 7.03 344.532 7.16 344.532 7.32C344.532 7.48667 344.482 7.62 344.382 7.72C344.282 7.82 344.152 7.87 343.992 7.87Z" fill="#515151"/>
<path d="M385.12 11V9.34H381.79V8.18L384.57 3.71H385.28L382.45 8.33V8.74H385.12V6.8H385.78V11H385.12ZM390.006 11.1C389.346 11.1 388.826 10.9067 388.446 10.52C388.066 10.1333 387.876 9.61 387.876 8.95V5.75C387.876 5.09 388.066 4.56667 388.446 4.18C388.826 3.79333 389.346 3.6 390.006 3.6C390.659 3.6 391.173 3.79333 391.546 4.18C391.926 4.56 392.116 5.08333 392.116 5.75V8.95C392.116 9.61 391.926 10.1333 391.546 10.52C391.166 10.9067 390.653 11.1 390.006 11.1ZM390.006 10.49C390.446 10.49 390.793 10.3533 391.046 10.08C391.306 9.8 391.436 9.42333 391.436 8.95V5.75C391.436 5.28333 391.306 4.91 391.046 4.63C390.793 4.35 390.446 4.21 390.006 4.21C389.559 4.21 389.206 4.35 388.946 4.63C388.686 4.91 388.556 5.28333 388.556 5.75V8.95C388.556 9.41667 388.686 9.79 388.946 10.07C389.206 10.35 389.559 10.49 390.006 10.49ZM389.996 7.87C389.836 7.87 389.706 7.82 389.606 7.72C389.506 7.62 389.456 7.48667 389.456 7.32C389.456 7.16 389.506 7.03 389.606 6.93C389.706 6.83 389.836 6.78 389.996 6.78C390.156 6.78 390.286 6.83 390.386 6.93C390.486 7.03 390.536 7.16 390.536 7.32C390.536 7.48667 390.486 7.62 390.386 7.72C390.286 7.82 390.156 7.87 389.996 7.87ZM396.002 11.1C395.342 11.1 394.822 10.9067 394.442 10.52C394.062 10.1333 393.872 9.61 393.872 8.95V5.75C393.872 5.09 394.062 4.56667 394.442 4.18C394.822 3.79333 395.342 3.6 396.002 3.6C396.656 3.6 397.169 3.79333 397.542 4.18C397.922 4.56 398.112 5.08333 398.112 5.75V8.95C398.112 9.61 397.922 10.1333 397.542 10.52C397.162 10.9067 396.649 11.1 396.002 11.1ZM396.002 10.49C396.442 10.49 396.789 10.3533 397.042 10.08C397.302 9.8 397.432 9.42333 397.432 8.95V5.75C397.432 5.28333 397.302 4.91 397.042 4.63C396.789 4.35 396.442 4.21 396.002 4.21C395.556 4.21 395.202 4.35 394.942 4.63C394.682 4.91 394.552 5.28333 394.552 5.75V8.95C394.552 9.41667 394.682 9.79 394.942 10.07C395.202 10.35 395.556 10.49 396.002 10.49ZM395.992 7.87C395.832 7.87 395.702 7.82 395.602 7.72C395.502 7.62 395.452 7.48667 395.452 7.32C395.452 7.16 395.502 7.03 395.602 6.93C395.702 6.83 395.832 6.78 395.992 6.78C396.152 6.78 396.282 6.83 396.382 6.93C396.482 7.03 396.532 7.16 396.532 7.32C396.532 7.48667 396.482 7.62 396.382 7.72C396.282 7.82 396.152 7.87 395.992 7.87Z" fill="#515151"/>
<path d="M437.12 11V9.34H433.79V8.18L436.57 3.71H437.28L434.45 8.33V8.74H437.12V6.8H437.78V11H437.12ZM441.986 11.1C441.399 11.1 440.923 10.9467 440.556 10.64C440.196 10.3267 439.989 9.9 439.936 9.36H440.596C440.623 9.72 440.756 10.0033 440.996 10.21C441.236 10.41 441.569 10.51 441.996 10.51C442.449 10.51 442.796 10.3767 443.036 10.11C443.276 9.84333 443.396 9.46667 443.396 8.98V8.3C443.396 7.82 443.276 7.45 443.036 7.19C442.796 6.92333 442.449 6.79 441.996 6.79C441.683 6.79 441.416 6.87333 441.196 7.04C440.983 7.20667 440.833 7.44 440.746 7.74H440.086L440.136 3.7H443.836V4.3H440.776L440.746 7.1H440.756C440.829 6.82 440.993 6.6 441.246 6.44C441.506 6.28 441.833 6.2 442.226 6.2C442.806 6.2 443.256 6.38333 443.576 6.75C443.896 7.11667 444.056 7.63333 444.056 8.3V8.98C444.056 9.62667 443.873 10.1433 443.506 10.53C443.139 10.91 442.633 11.1 441.986 11.1ZM448.002 11.1C447.342 11.1 446.822 10.9067 446.442 10.52C446.062 10.1333 445.872 9.61 445.872 8.95V5.75C445.872 5.09 446.062 4.56667 446.442 4.18C446.822 3.79333 447.342 3.6 448.002 3.6C448.656 3.6 449.169 3.79333 449.542 4.18C449.922 4.56 450.112 5.08333 450.112 5.75V8.95C450.112 9.61 449.922 10.1333 449.542 10.52C449.162 10.9067 448.649 11.1 448.002 11.1ZM448.002 10.49C448.442 10.49 448.789 10.3533 449.042 10.08C449.302 9.8 449.432 9.42333 449.432 8.95V5.75C449.432 5.28333 449.302 4.91 449.042 4.63C448.789 4.35 448.442 4.21 448.002 4.21C447.556 4.21 447.202 4.35 446.942 4.63C446.682 4.91 446.552 5.28333 446.552 5.75V8.95C446.552 9.41667 446.682 9.79 446.942 10.07C447.202 10.35 447.556 10.49 448.002 10.49ZM447.992 7.87C447.832 7.87 447.702 7.82 447.602 7.72C447.502 7.62 447.452 7.48667 447.452 7.32C447.452 7.16 447.502 7.03 447.602 6.93C447.702 6.83 447.832 6.78 447.992 6.78C448.152 6.78 448.282 6.83 448.382 6.93C448.482 7.03 448.532 7.16 448.532 7.32C448.532 7.48667 448.482 7.62 448.382 7.72C448.282 7.82 448.152 7.87 447.992 7.87Z" fill="#515151"/>
<path d="M487.99 11.1C487.403 11.1 486.927 10.9467 486.56 10.64C486.2 10.3267 485.993 9.9 485.94 9.36H486.6C486.627 9.72 486.76 10.0033 487 10.21C487.24 10.41 487.573 10.51 488 10.51C488.453 10.51 488.8 10.3767 489.04 10.11C489.28 9.84333 489.4 9.46667 489.4 8.98V8.3C489.4 7.82 489.28 7.45 489.04 7.19C488.8 6.92333 488.453 6.79 488 6.79C487.687 6.79 487.42 6.87333 487.2 7.04C486.987 7.20667 486.837 7.44 486.75 7.74H486.09L486.14 3.7H489.84V4.3H486.78L486.75 7.1H486.76C486.833 6.82 486.997 6.6 487.25 6.44C487.51 6.28 487.837 6.2 488.23 6.2C488.81 6.2 489.26 6.38333 489.58 6.75C489.9 7.11667 490.06 7.63333 490.06 8.3V8.98C490.06 9.62667 489.877 10.1433 489.51 10.53C489.143 10.91 488.637 11.1 487.99 11.1ZM494.006 11.1C493.346 11.1 492.826 10.9067 492.446 10.52C492.066 10.1333 491.876 9.61 491.876 8.95V5.75C491.876 5.09 492.066 4.56667 492.446 4.18C492.826 3.79333 493.346 3.6 494.006 3.6C494.659 3.6 495.173 3.79333 495.546 4.18C495.926 4.56 496.116 5.08333 496.116 5.75V8.95C496.116 9.61 495.926 10.1333 495.546 10.52C495.166 10.9067 494.653 11.1 494.006 11.1ZM494.006 10.49C494.446 10.49 494.793 10.3533 495.046 10.08C495.306 9.8 495.436 9.42333 495.436 8.95V5.75C495.436 5.28333 495.306 4.91 495.046 4.63C494.793 4.35 494.446 4.21 494.006 4.21C493.559 4.21 493.206 4.35 492.946 4.63C492.686 4.91 492.556 5.28333 492.556 5.75V8.95C492.556 9.41667 492.686 9.79 492.946 10.07C493.206 10.35 493.559 10.49 494.006 10.49ZM493.996 7.87C493.836 7.87 493.706 7.82 493.606 7.72C493.506 7.62 493.456 7.48667 493.456 7.32C493.456 7.16 493.506 7.03 493.606 6.93C493.706 6.83 493.836 6.78 493.996 6.78C494.156 6.78 494.286 6.83 494.386 6.93C494.486 7.03 494.536 7.16 494.536 7.32C494.536 7.48667 494.486 7.62 494.386 7.72C494.286 7.82 494.156 7.87 493.996 7.87ZM500.002 11.1C499.342 11.1 498.822 10.9067 498.442 10.52C498.062 10.1333 497.872 9.61 497.872 8.95V5.75C497.872 5.09 498.062 4.56667 498.442 4.18C498.822 3.79333 499.342 3.6 500.002 3.6C500.656 3.6 501.169 3.79333 501.542 4.18C501.922 4.56 502.112 5.08333 502.112 5.75V8.95C502.112 9.61 501.922 10.1333 501.542 10.52C501.162 10.9067 500.649 11.1 500.002 11.1ZM500.002 10.49C500.442 10.49 500.789 10.3533 501.042 10.08C501.302 9.8 501.432 9.42333 501.432 8.95V5.75C501.432 5.28333 501.302 4.91 501.042 4.63C500.789 4.35 500.442 4.21 500.002 4.21C499.556 4.21 499.202 4.35 498.942 4.63C498.682 4.91 498.552 5.28333 498.552 5.75V8.95C498.552 9.41667 498.682 9.79 498.942 10.07C499.202 10.35 499.556 10.49 500.002 10.49ZM499.992 7.87C499.832 7.87 499.702 7.82 499.602 7.72C499.502 7.62 499.452 7.48667 499.452 7.32C499.452 7.16 499.502 7.03 499.602 6.93C499.702 6.83 499.832 6.78 499.992 6.78C500.152 6.78 500.282 6.83 500.382 6.93C500.482 7.03 500.532 7.16 500.532 7.32C500.532 7.48667 500.482 7.62 500.382 7.72C500.282 7.82 500.152 7.87 499.992 7.87Z" fill="#515151"/>
<path d="M537 11.1C536.547 11.1 536.15 11.0033 535.81 10.81C535.47 10.6167 535.203 10.3467 535.01 10C534.823 9.65333 534.73 9.25 534.73 8.79C534.73 8.47667 534.787 8.16 534.9 7.84C535.02 7.51333 535.173 7.18667 535.36 6.86L537.16 3.7H537.89L535.87 7.11L535.91 7.14C536.017 6.99333 536.19 6.86333 536.43 6.75C536.67 6.63667 536.947 6.58 537.26 6.58C537.66 6.58 538.01 6.67333 538.31 6.86C538.617 7.04667 538.853 7.30667 539.02 7.64C539.187 7.97333 539.27 8.36 539.27 8.8C539.27 9.26 539.173 9.66333 538.98 10.01C538.793 10.35 538.53 10.6167 538.19 10.81C537.85 11.0033 537.453 11.1 537 11.1ZM537 10.51C537.48 10.51 537.867 10.3567 538.16 10.05C538.46 9.74333 538.61 9.33 538.61 8.81C538.61 8.31 538.46 7.90333 538.16 7.59C537.867 7.27 537.48 7.11 537 7.11C536.52 7.11 536.13 7.27 535.83 7.59C535.537 7.90333 535.39 8.31 535.39 8.81C535.383 9.33 535.527 9.74333 535.82 10.05C536.12 10.3567 536.513 10.51 537 10.51ZM543.006 11.1C542.346 11.1 541.826 10.9067 541.446 10.52C541.066 10.1333 540.876 9.61 540.876 8.95V5.75C540.876 5.09 541.066 4.56667 541.446 4.18C541.826 3.79333 542.346 3.6 543.006 3.6C543.659 3.6 544.173 3.79333 544.546 4.18C544.926 4.56 545.116 5.08333 545.116 5.75V8.95C545.116 9.61 544.926 10.1333 544.546 10.52C544.166 10.9067 543.653 11.1 543.006 11.1ZM543.006 10.49C543.446 10.49 543.793 10.3533 544.046 10.08C544.306 9.8 544.436 9.42333 544.436 8.95V5.75C544.436 5.28333 544.306 4.91 544.046 4.63C543.793 4.35 543.446 4.21 543.006 4.21C542.559 4.21 542.206 4.35 541.946 4.63C541.686 4.91 541.556 5.28333 541.556 5.75V8.95C541.556 9.41667 541.686 9.79 541.946 10.07C542.206 10.35 542.559 10.49 543.006 10.49ZM542.996 7.87C542.836 7.87 542.706 7.82 542.606 7.72C542.506 7.62 542.456 7.48667 542.456 7.32C542.456 7.16 542.506 7.03 542.606 6.93C542.706 6.83 542.836 6.78 542.996 6.78C543.156 6.78 543.286 6.83 543.386 6.93C543.486 7.03 543.536 7.16 543.536 7.32C543.536 7.48667 543.486 7.62 543.386 7.72C543.286 7.82 543.156 7.87 542.996 7.87ZM549.002 11.1C548.342 11.1 547.822 10.9067 547.442 10.52C547.062 10.1333 546.872 9.61 546.872 8.95V5.75C546.872 5.09 547.062 4.56667 547.442 4.18C547.822 3.79333 548.342 3.6 549.002 3.6C549.656 3.6 550.169 3.79333 550.542 4.18C550.922 4.56 551.112 5.08333 551.112 5.75V8.95C551.112 9.61 550.922 10.1333 550.542 10.52C550.162 10.9067 549.649 11.1 549.002 11.1ZM549.002 10.49C549.442 10.49 549.789 10.3533 550.042 10.08C550.302 9.8 550.432 9.42333 550.432 8.95V5.75C550.432 5.28333 550.302 4.91 550.042 4.63C549.789 4.35 549.442 4.21 549.002 4.21C548.556 4.21 548.202 4.35 547.942 4.63C547.682 4.91 547.552 5.28333 547.552 5.75V8.95C547.552 9.41667 547.682 9.79 547.942 10.07C548.202 10.35 548.556 10.49 549.002 10.49ZM548.992 7.87C548.832 7.87 548.702 7.82 548.602 7.72C548.502 7.62 548.452 7.48667 548.452 7.32C548.452 7.16 548.502 7.03 548.602 6.93C548.702 6.83 548.832 6.78 548.992 6.78C549.152 6.78 549.282 6.83 549.382 6.93C549.482 7.03 549.532 7.16 549.532 7.32C549.532 7.48667 549.482 7.62 549.382 7.72C549.282 7.82 549.152 7.87 548.992 7.87Z" fill="#515151"/>
<path d="M586 11.1C585.547 11.1 585.15 11.0033 584.81 10.81C584.47 10.6167 584.203 10.3467 584.01 10C583.823 9.65333 583.73 9.25 583.73 8.79C583.73 8.47667 583.787 8.16 583.9 7.84C584.02 7.51333 584.173 7.18667 584.36 6.86L586.16 3.7H586.89L584.87 7.11L584.91 7.14C585.017 6.99333 585.19 6.86333 585.43 6.75C585.67 6.63667 585.947 6.58 586.26 6.58C586.66 6.58 587.01 6.67333 587.31 6.86C587.617 7.04667 587.853 7.30667 588.02 7.64C588.187 7.97333 588.27 8.36 588.27 8.8C588.27 9.26 588.173 9.66333 587.98 10.01C587.793 10.35 587.53 10.6167 587.19 10.81C586.85 11.0033 586.453 11.1 586 11.1ZM586 10.51C586.48 10.51 586.867 10.3567 587.16 10.05C587.46 9.74333 587.61 9.33 587.61 8.81C587.61 8.31 587.46 7.90333 587.16 7.59C586.867 7.27 586.48 7.11 586 7.11C585.52 7.11 585.13 7.27 584.83 7.59C584.537 7.90333 584.39 8.31 584.39 8.81C584.383 9.33 584.527 9.74333 584.82 10.05C585.12 10.3567 585.513 10.51 586 10.51ZM591.986 11.1C591.399 11.1 590.923 10.9467 590.556 10.64C590.196 10.3267 589.989 9.9 589.936 9.36H590.596C590.623 9.72 590.756 10.0033 590.996 10.21C591.236 10.41 591.569 10.51 591.996 10.51C592.449 10.51 592.796 10.3767 593.036 10.11C593.276 9.84333 593.396 9.46667 593.396 8.98V8.3C593.396 7.82 593.276 7.45 593.036 7.19C592.796 6.92333 592.449 6.79 591.996 6.79C591.683 6.79 591.416 6.87333 591.196 7.04C590.983 7.20667 590.833 7.44 590.746 7.74H590.086L590.136 3.7H593.836V4.3H590.776L590.746 7.1H590.756C590.829 6.82 590.993 6.6 591.246 6.44C591.506 6.28 591.833 6.2 592.226 6.2C592.806 6.2 593.256 6.38333 593.576 6.75C593.896 7.11667 594.056 7.63333 594.056 8.3V8.98C594.056 9.62667 593.873 10.1433 593.506 10.53C593.139 10.91 592.633 11.1 591.986 11.1ZM598.002 11.1C597.342 11.1 596.822 10.9067 596.442 10.52C596.062 10.1333 595.872 9.61 595.872 8.95V5.75C595.872 5.09 596.062 4.56667 596.442 4.18C596.822 3.79333 597.342 3.6 598.002 3.6C598.656 3.6 599.169 3.79333 599.542 4.18C599.922 4.56 600.112 5.08333 600.112 5.75V8.95C600.112 9.61 599.922 10.1333 599.542 10.52C599.162 10.9067 598.649 11.1 598.002 11.1ZM598.002 10.49C598.442 10.49 598.789 10.3533 599.042 10.08C599.302 9.8 599.432 9.42333 599.432 8.95V5.75C599.432 5.28333 599.302 4.91 599.042 4.63C598.789 4.35 598.442 4.21 598.002 4.21C597.556 4.21 597.202 4.35 596.942 4.63C596.682 4.91 596.552 5.28333 596.552 5.75V8.95C596.552 9.41667 596.682 9.79 596.942 10.07C597.202 10.35 597.556 10.49 598.002 10.49ZM597.992 7.87C597.832 7.87 597.702 7.82 597.602 7.72C597.502 7.62 597.452 7.48667 597.452 7.32C597.452 7.16 597.502 7.03 597.602 6.93C597.702 6.83 597.832 6.78 597.992 6.78C598.152 6.78 598.282 6.83 598.382 6.93C598.482 7.03 598.532 7.16 598.532 7.32C598.532 7.48667 598.482 7.62 598.382 7.72C598.282 7.82 598.152 7.87 597.992 7.87Z" fill="#515151"/>
<path d="M640 11L642.71 4.33H639.55V5.7H638.86V3.7H643.39V4.37L640.74 11H640ZM647.006 11.1C646.346 11.1 645.826 10.9067 645.446 10.52C645.066 10.1333 644.876 9.61 644.876 8.95V5.75C644.876 5.09 645.066 4.56667 645.446 4.18C645.826 3.79333 646.346 3.6 647.006 3.6C647.659 3.6 648.173 3.79333 648.546 4.18C648.926 4.56 649.116 5.08333 649.116 5.75V8.95C649.116 9.61 648.926 10.1333 648.546 10.52C648.166 10.9067 647.653 11.1 647.006 11.1ZM647.006 10.49C647.446 10.49 647.793 10.3533 648.046 10.08C648.306 9.8 648.436 9.42333 648.436 8.95V5.75C648.436 5.28333 648.306 4.91 648.046 4.63C647.793 4.35 647.446 4.21 647.006 4.21C646.559 4.21 646.206 4.35 645.946 4.63C645.686 4.91 645.556 5.28333 645.556 5.75V8.95C645.556 9.41667 645.686 9.79 645.946 10.07C646.206 10.35 646.559 10.49 647.006 10.49ZM646.996 7.87C646.836 7.87 646.706 7.82 646.606 7.72C646.506 7.62 646.456 7.48667 646.456 7.32C646.456 7.16 646.506 7.03 646.606 6.93C646.706 6.83 646.836 6.78 646.996 6.78C647.156 6.78 647.286 6.83 647.386 6.93C647.486 7.03 647.536 7.16 647.536 7.32C647.536 7.48667 647.486 7.62 647.386 7.72C647.286 7.82 647.156 7.87 646.996 7.87ZM653.002 11.1C652.342 11.1 651.822 10.9067 651.442 10.52C651.062 10.1333 650.872 9.61 650.872 8.95V5.75C650.872 5.09 651.062 4.56667 651.442 4.18C651.822 3.79333 652.342 3.6 653.002 3.6C653.656 3.6 654.169 3.79333 654.542 4.18C654.922 4.56 655.112 5.08333 655.112 5.75V8.95C655.112 9.61 654.922 10.1333 654.542 10.52C654.162 10.9067 653.649 11.1 653.002 11.1ZM653.002 10.49C653.442 10.49 653.789 10.3533 654.042 10.08C654.302 9.8 654.432 9.42333 654.432 8.95V5.75C654.432 5.28333 654.302 4.91 654.042 4.63C653.789 4.35 653.442 4.21 653.002 4.21C652.556 4.21 652.202 4.35 651.942 4.63C651.682 4.91 651.552 5.28333 651.552 5.75V8.95C651.552 9.41667 651.682 9.79 651.942 10.07C652.202 10.35 652.556 10.49 653.002 10.49ZM652.992 7.87C652.832 7.87 652.702 7.82 652.602 7.72C652.502 7.62 652.452 7.48667 652.452 7.32C652.452 7.16 652.502 7.03 652.602 6.93C652.702 6.83 652.832 6.78 652.992 6.78C653.152 6.78 653.282 6.83 653.382 6.93C653.482 7.03 653.532 7.16 653.532 7.32C653.532 7.48667 653.482 7.62 653.382 7.72C653.282 7.82 653.152 7.87 652.992 7.87Z" fill="#515151"/>
<path d="M691 11L693.71 4.33H690.55V5.7H689.86V3.7H694.39V4.37L691.74 11H691ZM697.986 11.1C697.399 11.1 696.923 10.9467 696.556 10.64C696.196 10.3267 695.989 9.9 695.936 9.36H696.596C696.623 9.72 696.756 10.0033 696.996 10.21C697.236 10.41 697.569 10.51 697.996 10.51C698.449 10.51 698.796 10.3767 699.036 10.11C699.276 9.84333 699.396 9.46667 699.396 8.98V8.3C699.396 7.82 699.276 7.45 699.036 7.19C698.796 6.92333 698.449 6.79 697.996 6.79C697.683 6.79 697.416 6.87333 697.196 7.04C696.983 7.20667 696.833 7.44 696.746 7.74H696.086L696.136 3.7H699.836V4.3H696.776L696.746 7.1H696.756C696.829 6.82 696.993 6.6 697.246 6.44C697.506 6.28 697.833 6.2 698.226 6.2C698.806 6.2 699.256 6.38333 699.576 6.75C699.896 7.11667 700.056 7.63333 700.056 8.3V8.98C700.056 9.62667 699.873 10.1433 699.506 10.53C699.139 10.91 698.633 11.1 697.986 11.1ZM704.002 11.1C703.342 11.1 702.822 10.9067 702.442 10.52C702.062 10.1333 701.872 9.61 701.872 8.95V5.75C701.872 5.09 702.062 4.56667 702.442 4.18C702.822 3.79333 703.342 3.6 704.002 3.6C704.656 3.6 705.169 3.79333 705.542 4.18C705.922 4.56 706.112 5.08333 706.112 5.75V8.95C706.112 9.61 705.922 10.1333 705.542 10.52C705.162 10.9067 704.649 11.1 704.002 11.1ZM704.002 10.49C704.442 10.49 704.789 10.3533 705.042 10.08C705.302 9.8 705.432 9.42333 705.432 8.95V5.75C705.432 5.28333 705.302 4.91 705.042 4.63C704.789 4.35 704.442 4.21 704.002 4.21C703.556 4.21 703.202 4.35 702.942 4.63C702.682 4.91 702.552 5.28333 702.552 5.75V8.95C702.552 9.41667 702.682 9.79 702.942 10.07C703.202 10.35 703.556 10.49 704.002 10.49ZM703.992 7.87C703.832 7.87 703.702 7.82 703.602 7.72C703.502 7.62 703.452 7.48667 703.452 7.32C703.452 7.16 703.502 7.03 703.602 6.93C703.702 6.83 703.832 6.78 703.992 6.78C704.152 6.78 704.282 6.83 704.382 6.93C704.482 7.03 704.532 7.16 704.532 7.32C704.532 7.48667 704.482 7.62 704.382 7.72C704.282 7.82 704.152 7.87 703.992 7.87Z" fill="#515151"/>
<path d="M743 11.1C742.553 11.1 742.163 11.0233 741.83 10.87C741.497 10.71 741.237 10.49 741.05 10.21C740.863 9.93 740.77 9.59667 740.77 9.21C740.77 8.35 741.31 7.68 742.39 7.2C741.43 6.75333 740.95 6.15 740.95 5.39C740.95 5.04333 741.04 4.73667 741.22 4.47C741.4 4.19667 741.643 3.98333 741.95 3.83C742.263 3.67667 742.613 3.6 743 3.6C743.393 3.6 743.75 3.68 744.07 3.84C744.39 3.99333 744.643 4.20667 744.83 4.48C745.017 4.74667 745.11 5.05 745.11 5.39C745.11 5.75 744.983 6.08667 744.73 6.4C744.477 6.71333 744.107 6.98 743.62 7.2C744.693 7.7 745.23 8.37 745.23 9.21C745.23 9.59667 745.137 9.93 744.95 10.21C744.763 10.49 744.503 10.71 744.17 10.87C743.837 11.0233 743.447 11.1 743 11.1ZM742.67 6.78L743.01 6.93L743.33 6.79C744.083 6.44333 744.46 5.98667 744.46 5.42C744.46 5.05333 744.323 4.75667 744.05 4.53C743.777 4.30333 743.427 4.19 743 4.19C742.587 4.19 742.25 4.30333 741.99 4.53C741.73 4.75 741.6 5.04667 741.6 5.42C741.6 5.71333 741.693 5.97667 741.88 6.21C742.067 6.43667 742.33 6.62667 742.67 6.78ZM743 10.51C743.473 10.51 743.853 10.39 744.14 10.15C744.427 9.91 744.57 9.58667 744.57 9.18C744.57 8.85333 744.467 8.56 744.26 8.3C744.053 8.03333 743.76 7.81333 743.38 7.64L743 7.47L742.61 7.65C742.23 7.81667 741.937 8.03333 741.73 8.3C741.53 8.56 741.43 8.85333 741.43 9.18C741.43 9.58 741.573 9.90333 741.86 10.15C742.153 10.39 742.533 10.51 743 10.51ZM749.006 11.1C748.346 11.1 747.826 10.9067 747.446 10.52C747.066 10.1333 746.876 9.61 746.876 8.95V5.75C746.876 5.09 747.066 4.56667 747.446 4.18C747.826 3.79333 748.346 3.6 749.006 3.6C749.659 3.6 750.173 3.79333 750.546 4.18C750.926 4.56 751.116 5.08333 751.116 5.75V8.95C751.116 9.61 750.926 10.1333 750.546 10.52C750.166 10.9067 749.653 11.1 749.006 11.1ZM749.006 10.49C749.446 10.49 749.793 10.3533 750.046 10.08C750.306 9.8 750.436 9.42333 750.436 8.95V5.75C750.436 5.28333 750.306 4.91 750.046 4.63C749.793 4.35 749.446 4.21 749.006 4.21C748.559 4.21 748.206 4.35 747.946 4.63C747.686 4.91 747.556 5.28333 747.556 5.75V8.95C747.556 9.41667 747.686 9.79 747.946 10.07C748.206 10.35 748.559 10.49 749.006 10.49ZM748.996 7.87C748.836 7.87 748.706 7.82 748.606 7.72C748.506 7.62 748.456 7.48667 748.456 7.32C748.456 7.16 748.506 7.03 748.606 6.93C748.706 6.83 748.836 6.78 748.996 6.78C749.156 6.78 749.286 6.83 749.386 6.93C749.486 7.03 749.536 7.16 749.536 7.32C749.536 7.48667 749.486 7.62 749.386 7.72C749.286 7.82 749.156 7.87 748.996 7.87ZM755.002 11.1C754.342 11.1 753.822 10.9067 753.442 10.52C753.062 10.1333 752.872 9.61 752.872 8.95V5.75C752.872 5.09 753.062 4.56667 753.442 4.18C753.822 3.79333 754.342 3.6 755.002 3.6C755.656 3.6 756.169 3.79333 756.542 4.18C756.922 4.56 757.112 5.08333 757.112 5.75V8.95C757.112 9.61 756.922 10.1333 756.542 10.52C756.162 10.9067 755.649 11.1 755.002 11.1ZM755.002 10.49C755.442 10.49 755.789 10.3533 756.042 10.08C756.302 9.8 756.432 9.42333 756.432 8.95V5.75C756.432 5.28333 756.302 4.91 756.042 4.63C755.789 4.35 755.442 4.21 755.002 4.21C754.556 4.21 754.202 4.35 753.942 4.63C753.682 4.91 753.552 5.28333 753.552 5.75V8.95C753.552 9.41667 753.682 9.79 753.942 10.07C754.202 10.35 754.556 10.49 755.002 10.49ZM754.992 7.87C754.832 7.87 754.702 7.82 754.602 7.72C754.502 7.62 754.452 7.48667 754.452 7.32C754.452 7.16 754.502 7.03 754.602 6.93C754.702 6.83 754.832 6.78 754.992 6.78C755.152 6.78 755.282 6.83 755.382 6.93C755.482 7.03 755.532 7.16 755.532 7.32C755.532 7.48667 755.482 7.62 755.382 7.72C755.282 7.82 755.152 7.87 754.992 7.87Z" fill="#515151"/>
<path d="M797 11.1C796.553 11.1 796.163 11.0233 795.83 10.87C795.497 10.71 795.237 10.49 795.05 10.21C794.863 9.93 794.77 9.59667 794.77 9.21C794.77 8.35 795.31 7.68 796.39 7.2C795.43 6.75333 794.95 6.15 794.95 5.39C794.95 5.04333 795.04 4.73667 795.22 4.47C795.4 4.19667 795.643 3.98333 795.95 3.83C796.263 3.67667 796.613 3.6 797 3.6C797.393 3.6 797.75 3.68 798.07 3.84C798.39 3.99333 798.643 4.20667 798.83 4.48C799.017 4.74667 799.11 5.05 799.11 5.39C799.11 5.75 798.983 6.08667 798.73 6.4C798.477 6.71333 798.107 6.98 797.62 7.2C798.693 7.7 799.23 8.37 799.23 9.21C799.23 9.59667 799.137 9.93 798.95 10.21C798.763 10.49 798.503 10.71 798.17 10.87C797.837 11.0233 797.447 11.1 797 11.1ZM796.67 6.78L797.01 6.93L797.33 6.79C798.083 6.44333 798.46 5.98667 798.46 5.42C798.46 5.05333 798.323 4.75667 798.05 4.53C797.777 4.30333 797.427 4.19 797 4.19C796.587 4.19 796.25 4.30333 795.99 4.53C795.73 4.75 795.6 5.04667 795.6 5.42C795.6 5.71333 795.693 5.97667 795.88 6.21C796.067 6.43667 796.33 6.62667 796.67 6.78ZM797 10.51C797.473 10.51 797.853 10.39 798.14 10.15C798.427 9.91 798.57 9.58667 798.57 9.18C798.57 8.85333 798.467 8.56 798.26 8.3C798.053 8.03333 797.76 7.81333 797.38 7.64L797 7.47L796.61 7.65C796.23 7.81667 795.937 8.03333 795.73 8.3C795.53 8.56 795.43 8.85333 795.43 9.18C795.43 9.58 795.573 9.90333 795.86 10.15C796.153 10.39 796.533 10.51 797 10.51ZM802.986 11.1C802.399 11.1 801.923 10.9467 801.556 10.64C801.196 10.3267 800.989 9.9 800.936 9.36H801.596C801.623 9.72 801.756 10.0033 801.996 10.21C802.236 10.41 802.569 10.51 802.996 10.51C803.449 10.51 803.796 10.3767 804.036 10.11C804.276 9.84333 804.396 9.46667 804.396 8.98V8.3C804.396 7.82 804.276 7.45 804.036 7.19C803.796 6.92333 803.449 6.79 802.996 6.79C802.683 6.79 802.416 6.87333 802.196 7.04C801.983 7.20667 801.833 7.44 801.746 7.74H801.086L801.136 3.7H804.836V4.3H801.776L801.746 7.1H801.756C801.829 6.82 801.993 6.6 802.246 6.44C802.506 6.28 802.833 6.2 803.226 6.2C803.806 6.2 804.256 6.38333 804.576 6.75C804.896 7.11667 805.056 7.63333 805.056 8.3V8.98C805.056 9.62667 804.873 10.1433 804.506 10.53C804.139 10.91 803.633 11.1 802.986 11.1ZM809.002 11.1C808.342 11.1 807.822 10.9067 807.442 10.52C807.062 10.1333 806.872 9.61 806.872 8.95V5.75C806.872 5.09 807.062 4.56667 807.442 4.18C807.822 3.79333 808.342 3.6 809.002 3.6C809.656 3.6 810.169 3.79333 810.542 4.18C810.922 4.56 811.112 5.08333 811.112 5.75V8.95C811.112 9.61 810.922 10.1333 810.542 10.52C810.162 10.9067 809.649 11.1 809.002 11.1ZM809.002 10.49C809.442 10.49 809.789 10.3533 810.042 10.08C810.302 9.8 810.432 9.42333 810.432 8.95V5.75C810.432 5.28333 810.302 4.91 810.042 4.63C809.789 4.35 809.442 4.21 809.002 4.21C808.556 4.21 808.202 4.35 807.942 4.63C807.682 4.91 807.552 5.28333 807.552 5.75V8.95C807.552 9.41667 807.682 9.79 807.942 10.07C808.202 10.35 808.556 10.49 809.002 10.49ZM808.992 7.87C808.832 7.87 808.702 7.82 808.602 7.72C808.502 7.62 808.452 7.48667 808.452 7.32C808.452 7.16 808.502 7.03 808.602 6.93C808.702 6.83 808.832 6.78 808.992 6.78C809.152 6.78 809.282 6.83 809.382 6.93C809.482 7.03 809.532 7.16 809.532 7.32C809.532 7.48667 809.482 7.62 809.382 7.72C809.282 7.82 809.152 7.87 808.992 7.87Z" fill="#515151"/>
<path d="M847.08 11L849.12 7.59L849.08 7.56C848.973 7.70667 848.8 7.84 848.56 7.96C848.327 8.08 848.053 8.14 847.74 8.14C847.347 8.14 847 8.04667 846.7 7.86C846.407 7.67333 846.177 7.41667 846.01 7.09C845.85 6.75667 845.77 6.37 845.77 5.93C845.77 5.46333 845.863 5.05667 846.05 4.71C846.237 4.35667 846.497 4.08333 846.83 3.89C847.163 3.69667 847.553 3.6 848 3.6C848.447 3.6 848.837 3.69667 849.17 3.89C849.503 4.08333 849.763 4.35333 849.95 4.7C850.137 5.04667 850.23 5.45 850.23 5.91C850.23 6.22333 850.18 6.54333 850.08 6.87C849.98 7.19 849.833 7.51333 849.64 7.84L847.82 11H847.08ZM848 7.6C848.467 7.6 848.843 7.44667 849.13 7.14C849.423 6.82667 849.573 6.41667 849.58 5.91C849.587 5.39667 849.443 4.98333 849.15 4.67C848.863 4.35 848.48 4.19 848 4.19C847.527 4.19 847.147 4.35 846.86 4.67C846.573 4.98333 846.43 5.4 846.43 5.92C846.43 6.42 846.573 6.82667 846.86 7.14C847.147 7.44667 847.527 7.6 848 7.6ZM854.006 11.1C853.346 11.1 852.826 10.9067 852.446 10.52C852.066 10.1333 851.876 9.61 851.876 8.95V5.75C851.876 5.09 852.066 4.56667 852.446 4.18C852.826 3.79333 853.346 3.6 854.006 3.6C854.659 3.6 855.173 3.79333 855.546 4.18C855.926 4.56 856.116 5.08333 856.116 5.75V8.95C856.116 9.61 855.926 10.1333 855.546 10.52C855.166 10.9067 854.653 11.1 854.006 11.1ZM854.006 10.49C854.446 10.49 854.793 10.3533 855.046 10.08C855.306 9.8 855.436 9.42333 855.436 8.95V5.75C855.436 5.28333 855.306 4.91 855.046 4.63C854.793 4.35 854.446 4.21 854.006 4.21C853.559 4.21 853.206 4.35 852.946 4.63C852.686 4.91 852.556 5.28333 852.556 5.75V8.95C852.556 9.41667 852.686 9.79 852.946 10.07C853.206 10.35 853.559 10.49 854.006 10.49ZM853.996 7.87C853.836 7.87 853.706 7.82 853.606 7.72C853.506 7.62 853.456 7.48667 853.456 7.32C853.456 7.16 853.506 7.03 853.606 6.93C853.706 6.83 853.836 6.78 853.996 6.78C854.156 6.78 854.286 6.83 854.386 6.93C854.486 7.03 854.536 7.16 854.536 7.32C854.536 7.48667 854.486 7.62 854.386 7.72C854.286 7.82 854.156 7.87 853.996 7.87ZM860.002 11.1C859.342 11.1 858.822 10.9067 858.442 10.52C858.062 10.1333 857.872 9.61 857.872 8.95V5.75C857.872 5.09 858.062 4.56667 858.442 4.18C858.822 3.79333 859.342 3.6 860.002 3.6C860.656 3.6 861.169 3.79333 861.542 4.18C861.922 4.56 862.112 5.08333 862.112 5.75V8.95C862.112 9.61 861.922 10.1333 861.542 10.52C861.162 10.9067 860.649 11.1 860.002 11.1ZM860.002 10.49C860.442 10.49 860.789 10.3533 861.042 10.08C861.302 9.8 861.432 9.42333 861.432 8.95V5.75C861.432 5.28333 861.302 4.91 861.042 4.63C860.789 4.35 860.442 4.21 860.002 4.21C859.556 4.21 859.202 4.35 858.942 4.63C858.682 4.91 858.552 5.28333 858.552 5.75V8.95C858.552 9.41667 858.682 9.79 858.942 10.07C859.202 10.35 859.556 10.49 860.002 10.49ZM859.992 7.87C859.832 7.87 859.702 7.82 859.602 7.72C859.502 7.62 859.452 7.48667 859.452 7.32C859.452 7.16 859.502 7.03 859.602 6.93C859.702 6.83 859.832 6.78 859.992 6.78C860.152 6.78 860.282 6.83 860.382 6.93C860.482 7.03 860.532 7.16 860.532 7.32C860.532 7.48667 860.482 7.62 860.382 7.72C860.282 7.82 860.152 7.87 859.992 7.87Z" fill="#515151"/>
<path d="M898.08 11L900.12 7.59L900.08 7.56C899.973 7.70667 899.8 7.84 899.56 7.96C899.327 8.08 899.053 8.14 898.74 8.14C898.347 8.14 898 8.04667 897.7 7.86C897.407 7.67333 897.177 7.41667 897.01 7.09C896.85 6.75667 896.77 6.37 896.77 5.93C896.77 5.46333 896.863 5.05667 897.05 4.71C897.237 4.35667 897.497 4.08333 897.83 3.89C898.163 3.69667 898.553 3.6 899 3.6C899.447 3.6 899.837 3.69667 900.17 3.89C900.503 4.08333 900.763 4.35333 900.95 4.7C901.137 5.04667 901.23 5.45 901.23 5.91C901.23 6.22333 901.18 6.54333 901.08 6.87C900.98 7.19 900.833 7.51333 900.64 7.84L898.82 11H898.08ZM899 7.6C899.467 7.6 899.843 7.44667 900.13 7.14C900.423 6.82667 900.573 6.41667 900.58 5.91C900.587 5.39667 900.443 4.98333 900.15 4.67C899.863 4.35 899.48 4.19 899 4.19C898.527 4.19 898.147 4.35 897.86 4.67C897.573 4.98333 897.43 5.4 897.43 5.92C897.43 6.42 897.573 6.82667 897.86 7.14C898.147 7.44667 898.527 7.6 899 7.6ZM904.986 11.1C904.399 11.1 903.923 10.9467 903.556 10.64C903.196 10.3267 902.989 9.9 902.936 9.36H903.596C903.623 9.72 903.756 10.0033 903.996 10.21C904.236 10.41 904.569 10.51 904.996 10.51C905.449 10.51 905.796 10.3767 906.036 10.11C906.276 9.84333 906.396 9.46667 906.396 8.98V8.3C906.396 7.82 906.276 7.45 906.036 7.19C905.796 6.92333 905.449 6.79 904.996 6.79C904.683 6.79 904.416 6.87333 904.196 7.04C903.983 7.20667 903.833 7.44 903.746 7.74H903.086L903.136 3.7H906.836V4.3H903.776L903.746 7.1H903.756C903.829 6.82 903.993 6.6 904.246 6.44C904.506 6.28 904.833 6.2 905.226 6.2C905.806 6.2 906.256 6.38333 906.576 6.75C906.896 7.11667 907.056 7.63333 907.056 8.3V8.98C907.056 9.62667 906.873 10.1433 906.506 10.53C906.139 10.91 905.633 11.1 904.986 11.1ZM911.002 11.1C910.342 11.1 909.822 10.9067 909.442 10.52C909.062 10.1333 908.872 9.61 908.872 8.95V5.75C908.872 5.09 909.062 4.56667 909.442 4.18C909.822 3.79333 910.342 3.6 911.002 3.6C911.656 3.6 912.169 3.79333 912.542 4.18C912.922 4.56 913.112 5.08333 913.112 5.75V8.95C913.112 9.61 912.922 10.1333 912.542 10.52C912.162 10.9067 911.649 11.1 911.002 11.1ZM911.002 10.49C911.442 10.49 911.789 10.3533 912.042 10.08C912.302 9.8 912.432 9.42333 912.432 8.95V5.75C912.432 5.28333 912.302 4.91 912.042 4.63C911.789 4.35 911.442 4.21 911.002 4.21C910.556 4.21 910.202 4.35 909.942 4.63C909.682 4.91 909.552 5.28333 909.552 5.75V8.95C909.552 9.41667 909.682 9.79 909.942 10.07C910.202 10.35 910.556 10.49 911.002 10.49ZM910.992 7.87C910.832 7.87 910.702 7.82 910.602 7.72C910.502 7.62 910.452 7.48667 910.452 7.32C910.452 7.16 910.502 7.03 910.602 6.93C910.702 6.83 910.832 6.78 910.992 6.78C911.152 6.78 911.282 6.83 911.382 6.93C911.482 7.03 911.532 7.16 911.532 7.32C911.532 7.48667 911.482 7.62 911.382 7.72C911.282 7.82 911.152 7.87 910.992 7.87Z" fill="#515151"/>
<path d="M944.96 11V10.4H946.99V4.27L945.01 5.74V5L946.77 3.7H947.65V10.4H949.34V11H944.96ZM953.006 11.1C952.346 11.1 951.826 10.9067 951.446 10.52C951.066 10.1333 950.876 9.61 950.876 8.95V5.75C950.876 5.09 951.066 4.56667 951.446 4.18C951.826 3.79333 952.346 3.6 953.006 3.6C953.659 3.6 954.173 3.79333 954.546 4.18C954.926 4.56 955.116 5.08333 955.116 5.75V8.95C955.116 9.61 954.926 10.1333 954.546 10.52C954.166 10.9067 953.653 11.1 953.006 11.1ZM953.006 10.49C953.446 10.49 953.793 10.3533 954.046 10.08C954.306 9.8 954.436 9.42333 954.436 8.95V5.75C954.436 5.28333 954.306 4.91 954.046 4.63C953.793 4.35 953.446 4.21 953.006 4.21C952.559 4.21 952.206 4.35 951.946 4.63C951.686 4.91 951.556 5.28333 951.556 5.75V8.95C951.556 9.41667 951.686 9.79 951.946 10.07C952.206 10.35 952.559 10.49 953.006 10.49ZM952.996 7.87C952.836 7.87 952.706 7.82 952.606 7.72C952.506 7.62 952.456 7.48667 952.456 7.32C952.456 7.16 952.506 7.03 952.606 6.93C952.706 6.83 952.836 6.78 952.996 6.78C953.156 6.78 953.286 6.83 953.386 6.93C953.486 7.03 953.536 7.16 953.536 7.32C953.536 7.48667 953.486 7.62 953.386 7.72C953.286 7.82 953.156 7.87 952.996 7.87ZM959.002 11.1C958.342 11.1 957.822 10.9067 957.442 10.52C957.062 10.1333 956.872 9.61 956.872 8.95V5.75C956.872 5.09 957.062 4.56667 957.442 4.18C957.822 3.79333 958.342 3.6 959.002 3.6C959.656 3.6 960.169 3.79333 960.542 4.18C960.922 4.56 961.112 5.08333 961.112 5.75V8.95C961.112 9.61 960.922 10.1333 960.542 10.52C960.162 10.9067 959.649 11.1 959.002 11.1ZM959.002 10.49C959.442 10.49 959.789 10.3533 960.042 10.08C960.302 9.8 960.432 9.42333 960.432 8.95V5.75C960.432 5.28333 960.302 4.91 960.042 4.63C959.789 4.35 959.442 4.21 959.002 4.21C958.556 4.21 958.202 4.35 957.942 4.63C957.682 4.91 957.552 5.28333 957.552 5.75V8.95C957.552 9.41667 957.682 9.79 957.942 10.07C958.202 10.35 958.556 10.49 959.002 10.49ZM958.992 7.87C958.832 7.87 958.702 7.82 958.602 7.72C958.502 7.62 958.452 7.48667 958.452 7.32C958.452 7.16 958.502 7.03 958.602 6.93C958.702 6.83 958.832 6.78 958.992 6.78C959.152 6.78 959.282 6.83 959.382 6.93C959.482 7.03 959.532 7.16 959.532 7.32C959.532 7.48667 959.482 7.62 959.382 7.72C959.282 7.82 959.152 7.87 958.992 7.87ZM964.998 11.1C964.338 11.1 963.818 10.9067 963.438 10.52C963.058 10.1333 962.868 9.61 962.868 8.95V5.75C962.868 5.09 963.058 4.56667 963.438 4.18C963.818 3.79333 964.338 3.6 964.998 3.6C965.652 3.6 966.165 3.79333 966.538 4.18C966.918 4.56 967.108 5.08333 967.108 5.75V8.95C967.108 9.61 966.918 10.1333 966.538 10.52C966.158 10.9067 965.645 11.1 964.998 11.1ZM964.998 10.49C965.438 10.49 965.785 10.3533 966.038 10.08C966.298 9.8 966.428 9.42333 966.428 8.95V5.75C966.428 5.28333 966.298 4.91 966.038 4.63C965.785 4.35 965.438 4.21 964.998 4.21C964.552 4.21 964.198 4.35 963.938 4.63C963.678 4.91 963.548 5.28333 963.548 5.75V8.95C963.548 9.41667 963.678 9.79 963.938 10.07C964.198 10.35 964.552 10.49 964.998 10.49ZM964.988 7.87C964.828 7.87 964.698 7.82 964.598 7.72C964.498 7.62 964.448 7.48667 964.448 7.32C964.448 7.16 964.498 7.03 964.598 6.93C964.698 6.83 964.828 6.78 964.988 6.78C965.148 6.78 965.278 6.83 965.378 6.93C965.478 7.03 965.528 7.16 965.528 7.32C965.528 7.48667 965.478 7.62 965.378 7.72C965.278 7.82 965.148 7.87 964.988 7.87Z" fill="#515151"/>
<path d="M996.96 11V10.4H998.99V4.27L997.01 5.74V5L998.77 3.7H999.65V10.4H1001.34V11H996.96ZM1005.01 11.1C1004.35 11.1 1003.83 10.9067 1003.45 10.52C1003.07 10.1333 1002.88 9.61 1002.88 8.95V5.75C1002.88 5.09 1003.07 4.56667 1003.45 4.18C1003.83 3.79333 1004.35 3.6 1005.01 3.6C1005.66 3.6 1006.17 3.79333 1006.55 4.18C1006.93 4.56 1007.12 5.08333 1007.12 5.75V8.95C1007.12 9.61 1006.93 10.1333 1006.55 10.52C1006.17 10.9067 1005.65 11.1 1005.01 11.1ZM1005.01 10.49C1005.45 10.49 1005.79 10.3533 1006.05 10.08C1006.31 9.8 1006.44 9.42333 1006.44 8.95V5.75C1006.44 5.28333 1006.31 4.91 1006.05 4.63C1005.79 4.35 1005.45 4.21 1005.01 4.21C1004.56 4.21 1004.21 4.35 1003.95 4.63C1003.69 4.91 1003.56 5.28333 1003.56 5.75V8.95C1003.56 9.41667 1003.69 9.79 1003.95 10.07C1004.21 10.35 1004.56 10.49 1005.01 10.49ZM1005 7.87C1004.84 7.87 1004.71 7.82 1004.61 7.72C1004.51 7.62 1004.46 7.48667 1004.46 7.32C1004.46 7.16 1004.51 7.03 1004.61 6.93C1004.71 6.83 1004.84 6.78 1005 6.78C1005.16 6.78 1005.29 6.83 1005.39 6.93C1005.49 7.03 1005.54 7.16 1005.54 7.32C1005.54 7.48667 1005.49 7.62 1005.39 7.72C1005.29 7.82 1005.16 7.87 1005 7.87ZM1010.98 11.1C1010.4 11.1 1009.92 10.9467 1009.55 10.64C1009.19 10.3267 1008.99 9.9 1008.93 9.36H1009.59C1009.62 9.72 1009.75 10.0033 1009.99 10.21C1010.23 10.41 1010.57 10.51 1010.99 10.51C1011.45 10.51 1011.79 10.3767 1012.03 10.11C1012.27 9.84333 1012.39 9.46667 1012.39 8.98V8.3C1012.39 7.82 1012.27 7.45 1012.03 7.19C1011.79 6.92333 1011.45 6.79 1010.99 6.79C1010.68 6.79 1010.41 6.87333 1010.19 7.04C1009.98 7.20667 1009.83 7.44 1009.74 7.74H1009.08L1009.13 3.7H1012.83V4.3H1009.77L1009.74 7.1H1009.75C1009.83 6.82 1009.99 6.6 1010.24 6.44C1010.5 6.28 1010.83 6.2 1011.22 6.2C1011.8 6.2 1012.25 6.38333 1012.57 6.75C1012.89 7.11667 1013.05 7.63333 1013.05 8.3V8.98C1013.05 9.62667 1012.87 10.1433 1012.5 10.53C1012.14 10.91 1011.63 11.1 1010.98 11.1ZM1017 11.1C1016.34 11.1 1015.82 10.9067 1015.44 10.52C1015.06 10.1333 1014.87 9.61 1014.87 8.95V5.75C1014.87 5.09 1015.06 4.56667 1015.44 4.18C1015.82 3.79333 1016.34 3.6 1017 3.6C1017.65 3.6 1018.16 3.79333 1018.54 4.18C1018.92 4.56 1019.11 5.08333 1019.11 5.75V8.95C1019.11 9.61 1018.92 10.1333 1018.54 10.52C1018.16 10.9067 1017.64 11.1 1017 11.1ZM1017 10.49C1017.44 10.49 1017.78 10.3533 1018.04 10.08C1018.3 9.8 1018.43 9.42333 1018.43 8.95V5.75C1018.43 5.28333 1018.3 4.91 1018.04 4.63C1017.78 4.35 1017.44 4.21 1017 4.21C1016.55 4.21 1016.2 4.35 1015.94 4.63C1015.68 4.91 1015.55 5.28333 1015.55 5.75V8.95C1015.55 9.41667 1015.68 9.79 1015.94 10.07C1016.2 10.35 1016.55 10.49 1017 10.49ZM1016.99 7.87C1016.83 7.87 1016.7 7.82 1016.6 7.72C1016.5 7.62 1016.45 7.48667 1016.45 7.32C1016.45 7.16 1016.5 7.03 1016.6 6.93C1016.7 6.83 1016.83 6.78 1016.99 6.78C1017.15 6.78 1017.28 6.83 1017.38 6.93C1017.48 7.03 1017.53 7.16 1017.53 7.32C1017.53 7.48667 1017.48 7.62 1017.38 7.72C1017.28 7.82 1017.15 7.87 1016.99 7.87Z" fill="#515151"/>
<path d="M1048.96 11V10.4H1050.99V4.27L1049.01 5.74V5L1050.77 3.7H1051.65V10.4H1053.34V11H1048.96ZM1054.96 11V10.4H1056.99V4.27L1055.01 5.74V5L1056.77 3.7H1057.65V10.4H1059.34V11H1054.96ZM1063 11.1C1062.34 11.1 1061.82 10.9067 1061.44 10.52C1061.06 10.1333 1060.87 9.61 1060.87 8.95V5.75C1060.87 5.09 1061.06 4.56667 1061.44 4.18C1061.82 3.79333 1062.34 3.6 1063 3.6C1063.66 3.6 1064.17 3.79333 1064.54 4.18C1064.92 4.56 1065.11 5.08333 1065.11 5.75V8.95C1065.11 9.61 1064.92 10.1333 1064.54 10.52C1064.16 10.9067 1063.65 11.1 1063 11.1ZM1063 10.49C1063.44 10.49 1063.79 10.3533 1064.04 10.08C1064.3 9.8 1064.43 9.42333 1064.43 8.95V5.75C1064.43 5.28333 1064.3 4.91 1064.04 4.63C1063.79 4.35 1063.44 4.21 1063 4.21C1062.56 4.21 1062.2 4.35 1061.94 4.63C1061.68 4.91 1061.55 5.28333 1061.55 5.75V8.95C1061.55 9.41667 1061.68 9.79 1061.94 10.07C1062.2 10.35 1062.56 10.49 1063 10.49ZM1062.99 7.87C1062.83 7.87 1062.7 7.82 1062.6 7.72C1062.5 7.62 1062.45 7.48667 1062.45 7.32C1062.45 7.16 1062.5 7.03 1062.6 6.93C1062.7 6.83 1062.83 6.78 1062.99 6.78C1063.15 6.78 1063.28 6.83 1063.38 6.93C1063.48 7.03 1063.53 7.16 1063.53 7.32C1063.53 7.48667 1063.48 7.62 1063.38 7.72C1063.28 7.82 1063.15 7.87 1062.99 7.87ZM1069 11.1C1068.34 11.1 1067.82 10.9067 1067.44 10.52C1067.06 10.1333 1066.87 9.61 1066.87 8.95V5.75C1066.87 5.09 1067.06 4.56667 1067.44 4.18C1067.82 3.79333 1068.34 3.6 1069 3.6C1069.65 3.6 1070.16 3.79333 1070.54 4.18C1070.92 4.56 1071.11 5.08333 1071.11 5.75V8.95C1071.11 9.61 1070.92 10.1333 1070.54 10.52C1070.16 10.9067 1069.64 11.1 1069 11.1ZM1069 10.49C1069.44 10.49 1069.78 10.3533 1070.04 10.08C1070.3 9.8 1070.43 9.42333 1070.43 8.95V5.75C1070.43 5.28333 1070.3 4.91 1070.04 4.63C1069.78 4.35 1069.44 4.21 1069 4.21C1068.55 4.21 1068.2 4.35 1067.94 4.63C1067.68 4.91 1067.55 5.28333 1067.55 5.75V8.95C1067.55 9.41667 1067.68 9.79 1067.94 10.07C1068.2 10.35 1068.55 10.49 1069 10.49ZM1068.99 7.87C1068.83 7.87 1068.7 7.82 1068.6 7.72C1068.5 7.62 1068.45 7.48667 1068.45 7.32C1068.45 7.16 1068.5 7.03 1068.6 6.93C1068.7 6.83 1068.83 6.78 1068.99 6.78C1069.15 6.78 1069.28 6.83 1069.38 6.93C1069.48 7.03 1069.53 7.16 1069.53 7.32C1069.53 7.48667 1069.48 7.62 1069.38 7.72C1069.28 7.82 1069.15 7.87 1068.99 7.87Z" fill="#515151"/>
<path d="M1099.96 11V10.4H1101.99V4.27L1100.01 5.74V5L1101.77 3.7H1102.65V10.4H1104.34V11H1099.96ZM1105.96 11V10.4H1107.99V4.27L1106.01 5.74V5L1107.77 3.7H1108.65V10.4H1110.34V11H1105.96ZM1113.98 11.1C1113.4 11.1 1112.92 10.9467 1112.55 10.64C1112.19 10.3267 1111.99 9.9 1111.93 9.36H1112.59C1112.62 9.72 1112.75 10.0033 1112.99 10.21C1113.23 10.41 1113.57 10.51 1113.99 10.51C1114.45 10.51 1114.79 10.3767 1115.03 10.11C1115.27 9.84333 1115.39 9.46667 1115.39 8.98V8.3C1115.39 7.82 1115.27 7.45 1115.03 7.19C1114.79 6.92333 1114.45 6.79 1113.99 6.79C1113.68 6.79 1113.41 6.87333 1113.19 7.04C1112.98 7.20667 1112.83 7.44 1112.74 7.74H1112.08L1112.13 3.7H1115.83V4.3H1112.77L1112.74 7.1H1112.75C1112.83 6.82 1112.99 6.6 1113.24 6.44C1113.5 6.28 1113.83 6.2 1114.22 6.2C1114.8 6.2 1115.25 6.38333 1115.57 6.75C1115.89 7.11667 1116.05 7.63333 1116.05 8.3V8.98C1116.05 9.62667 1115.87 10.1433 1115.5 10.53C1115.14 10.91 1114.63 11.1 1113.98 11.1ZM1120 11.1C1119.34 11.1 1118.82 10.9067 1118.44 10.52C1118.06 10.1333 1117.87 9.61 1117.87 8.95V5.75C1117.87 5.09 1118.06 4.56667 1118.44 4.18C1118.82 3.79333 1119.34 3.6 1120 3.6C1120.65 3.6 1121.16 3.79333 1121.54 4.18C1121.92 4.56 1122.11 5.08333 1122.11 5.75V8.95C1122.11 9.61 1121.92 10.1333 1121.54 10.52C1121.16 10.9067 1120.64 11.1 1120 11.1ZM1120 10.49C1120.44 10.49 1120.78 10.3533 1121.04 10.08C1121.3 9.8 1121.43 9.42333 1121.43 8.95V5.75C1121.43 5.28333 1121.3 4.91 1121.04 4.63C1120.78 4.35 1120.44 4.21 1120 4.21C1119.55 4.21 1119.2 4.35 1118.94 4.63C1118.68 4.91 1118.55 5.28333 1118.55 5.75V8.95C1118.55 9.41667 1118.68 9.79 1118.94 10.07C1119.2 10.35 1119.55 10.49 1120 10.49ZM1119.99 7.87C1119.83 7.87 1119.7 7.82 1119.6 7.72C1119.5 7.62 1119.45 7.48667 1119.45 7.32C1119.45 7.16 1119.5 7.03 1119.6 6.93C1119.7 6.83 1119.83 6.78 1119.99 6.78C1120.15 6.78 1120.28 6.83 1120.38 6.93C1120.48 7.03 1120.53 7.16 1120.53 7.32C1120.53 7.48667 1120.48 7.62 1120.38 7.72C1120.28 7.82 1120.15 7.87 1119.99 7.87Z" fill="#515151"/>
<path d="M1150.96 11V10.4H1152.99V4.27L1151.01 5.74V5L1152.77 3.7H1153.65V10.4H1155.34V11H1150.96ZM1156.94 11V10.34L1159.27 7.89C1159.67 7.46333 1159.97 7.07333 1160.17 6.72C1160.36 6.36667 1160.46 6.01667 1160.46 5.67C1160.46 5.21667 1160.32 4.85667 1160.05 4.59C1159.78 4.31667 1159.42 4.18 1158.96 4.18C1158.5 4.18 1158.13 4.31667 1157.86 4.59C1157.58 4.86333 1157.45 5.23 1157.45 5.69H1156.79C1156.79 5.05 1156.99 4.54333 1157.39 4.17C1157.78 3.79 1158.3 3.6 1158.96 3.6C1159.62 3.6 1160.14 3.78667 1160.53 4.16C1160.92 4.52667 1161.12 5.02333 1161.12 5.65C1161.12 6.06333 1161 6.48333 1160.77 6.91C1160.53 7.33667 1160.18 7.8 1159.7 8.3L1157.69 10.4H1161.28V11H1156.94ZM1165 11.1C1164.34 11.1 1163.82 10.9067 1163.44 10.52C1163.06 10.1333 1162.87 9.61 1162.87 8.95V5.75C1162.87 5.09 1163.06 4.56667 1163.44 4.18C1163.82 3.79333 1164.34 3.6 1165 3.6C1165.66 3.6 1166.17 3.79333 1166.54 4.18C1166.92 4.56 1167.11 5.08333 1167.11 5.75V8.95C1167.11 9.61 1166.92 10.1333 1166.54 10.52C1166.16 10.9067 1165.65 11.1 1165 11.1ZM1165 10.49C1165.44 10.49 1165.79 10.3533 1166.04 10.08C1166.3 9.8 1166.43 9.42333 1166.43 8.95V5.75C1166.43 5.28333 1166.3 4.91 1166.04 4.63C1165.79 4.35 1165.44 4.21 1165 4.21C1164.56 4.21 1164.2 4.35 1163.94 4.63C1163.68 4.91 1163.55 5.28333 1163.55 5.75V8.95C1163.55 9.41667 1163.68 9.79 1163.94 10.07C1164.2 10.35 1164.56 10.49 1165 10.49ZM1164.99 7.87C1164.83 7.87 1164.7 7.82 1164.6 7.72C1164.5 7.62 1164.45 7.48667 1164.45 7.32C1164.45 7.16 1164.5 7.03 1164.6 6.93C1164.7 6.83 1164.83 6.78 1164.99 6.78C1165.15 6.78 1165.28 6.83 1165.38 6.93C1165.48 7.03 1165.53 7.16 1165.53 7.32C1165.53 7.48667 1165.48 7.62 1165.38 7.72C1165.28 7.82 1165.15 7.87 1164.99 7.87ZM1171 11.1C1170.34 11.1 1169.82 10.9067 1169.44 10.52C1169.06 10.1333 1168.87 9.61 1168.87 8.95V5.75C1168.87 5.09 1169.06 4.56667 1169.44 4.18C1169.82 3.79333 1170.34 3.6 1171 3.6C1171.65 3.6 1172.16 3.79333 1172.54 4.18C1172.92 4.56 1173.11 5.08333 1173.11 5.75V8.95C1173.11 9.61 1172.92 10.1333 1172.54 10.52C1172.16 10.9067 1171.64 11.1 1171 11.1ZM1171 10.49C1171.44 10.49 1171.78 10.3533 1172.04 10.08C1172.3 9.8 1172.43 9.42333 1172.43 8.95V5.75C1172.43 5.28333 1172.3 4.91 1172.04 4.63C1171.78 4.35 1171.44 4.21 1171 4.21C1170.55 4.21 1170.2 4.35 1169.94 4.63C1169.68 4.91 1169.55 5.28333 1169.55 5.75V8.95C1169.55 9.41667 1169.68 9.79 1169.94 10.07C1170.2 10.35 1170.55 10.49 1171 10.49ZM1170.99 7.87C1170.83 7.87 1170.7 7.82 1170.6 7.72C1170.5 7.62 1170.45 7.48667 1170.45 7.32C1170.45 7.16 1170.5 7.03 1170.6 6.93C1170.7 6.83 1170.83 6.78 1170.99 6.78C1171.15 6.78 1171.28 6.83 1171.38 6.93C1171.48 7.03 1171.53 7.16 1171.53 7.32C1171.53 7.48667 1171.48 7.62 1171.38 7.72C1171.28 7.82 1171.15 7.87 1170.99 7.87Z" fill="#515151"/>
<path d="M1202.96 11V10.4H1204.99V4.27L1203.01 5.74V5L1204.77 3.7H1205.65V10.4H1207.34V11H1202.96ZM1208.94 11V10.34L1211.27 7.89C1211.67 7.46333 1211.97 7.07333 1212.17 6.72C1212.36 6.36667 1212.46 6.01667 1212.46 5.67C1212.46 5.21667 1212.32 4.85667 1212.05 4.59C1211.78 4.31667 1211.42 4.18 1210.96 4.18C1210.5 4.18 1210.13 4.31667 1209.86 4.59C1209.58 4.86333 1209.45 5.23 1209.45 5.69H1208.79C1208.79 5.05 1208.99 4.54333 1209.39 4.17C1209.78 3.79 1210.3 3.6 1210.96 3.6C1211.62 3.6 1212.14 3.78667 1212.53 4.16C1212.92 4.52667 1213.12 5.02333 1213.12 5.65C1213.12 6.06333 1213 6.48333 1212.77 6.91C1212.53 7.33667 1212.18 7.8 1211.7 8.3L1209.69 10.4H1213.28V11H1208.94ZM1216.98 11.1C1216.4 11.1 1215.92 10.9467 1215.55 10.64C1215.19 10.3267 1214.99 9.9 1214.93 9.36H1215.59C1215.62 9.72 1215.75 10.0033 1215.99 10.21C1216.23 10.41 1216.57 10.51 1216.99 10.51C1217.45 10.51 1217.79 10.3767 1218.03 10.11C1218.27 9.84333 1218.39 9.46667 1218.39 8.98V8.3C1218.39 7.82 1218.27 7.45 1218.03 7.19C1217.79 6.92333 1217.45 6.79 1216.99 6.79C1216.68 6.79 1216.41 6.87333 1216.19 7.04C1215.98 7.20667 1215.83 7.44 1215.74 7.74H1215.08L1215.13 3.7H1218.83V4.3H1215.77L1215.74 7.1H1215.75C1215.83 6.82 1215.99 6.6 1216.24 6.44C1216.5 6.28 1216.83 6.2 1217.22 6.2C1217.8 6.2 1218.25 6.38333 1218.57 6.75C1218.89 7.11667 1219.05 7.63333 1219.05 8.3V8.98C1219.05 9.62667 1218.87 10.1433 1218.5 10.53C1218.14 10.91 1217.63 11.1 1216.98 11.1ZM1223 11.1C1222.34 11.1 1221.82 10.9067 1221.44 10.52C1221.06 10.1333 1220.87 9.61 1220.87 8.95V5.75C1220.87 5.09 1221.06 4.56667 1221.44 4.18C1221.82 3.79333 1222.34 3.6 1223 3.6C1223.65 3.6 1224.16 3.79333 1224.54 4.18C1224.92 4.56 1225.11 5.08333 1225.11 5.75V8.95C1225.11 9.61 1224.92 10.1333 1224.54 10.52C1224.16 10.9067 1223.64 11.1 1223 11.1ZM1223 10.49C1223.44 10.49 1223.78 10.3533 1224.04 10.08C1224.3 9.8 1224.43 9.42333 1224.43 8.95V5.75C1224.43 5.28333 1224.3 4.91 1224.04 4.63C1223.78 4.35 1223.44 4.21 1223 4.21C1222.55 4.21 1222.2 4.35 1221.94 4.63C1221.68 4.91 1221.55 5.28333 1221.55 5.75V8.95C1221.55 9.41667 1221.68 9.79 1221.94 10.07C1222.2 10.35 1222.55 10.49 1223 10.49ZM1222.99 7.87C1222.83 7.87 1222.7 7.82 1222.6 7.72C1222.5 7.62 1222.45 7.48667 1222.45 7.32C1222.45 7.16 1222.5 7.03 1222.6 6.93C1222.7 6.83 1222.83 6.78 1222.99 6.78C1223.15 6.78 1223.28 6.83 1223.38 6.93C1223.48 7.03 1223.53 7.16 1223.53 7.32C1223.53 7.48667 1223.48 7.62 1223.38 7.72C1223.28 7.82 1223.15 7.87 1222.99 7.87Z" fill="#515151"/>
<line x1="27.5" y1="18" x2="27.5" y2="27" stroke="#1B1B1B"/>
<line x1="79.5" y1="18" x2="79.5" y2="27" stroke="#1B1B1B"/>
<line x1="130.5" y1="18" x2="130.5" y2="27" stroke="#1B1B1B"/>
<line x1="182.5" y1="18" x2="182.5" y2="27" stroke="#1B1B1B"/>
<line x1="234.5" y1="18" x2="234.5" y2="27" stroke="#1B1B1B"/>
<line x1="285.5" y1="18" x2="285.5" y2="27" stroke="#1B1B1B"/>
<line x1="337.5" y1="18" x2="337.5" y2="27" stroke="#1B1B1B"/>
<line x1="388.5" y1="18" x2="388.5" y2="27" stroke="#1B1B1B"/>
<line x1="440.5" y1="18" x2="440.5" y2="27" stroke="#1B1B1B"/>
<line x1="492.5" y1="18" x2="492.5" y2="27" stroke="#1B1B1B"/>
<line x1="543.5" y1="18" x2="543.5" y2="27" stroke="#1B1B1B"/>
<line x1="595.5" y1="18" x2="595.5" y2="27" stroke="#1B1B1B"/>
<line x1="647.5" y1="18" x2="647.5" y2="27" stroke="#1B1B1B"/>
<line x1="698.5" y1="18" x2="698.5" y2="27" stroke="#1B1B1B"/>
<line x1="750.5" y1="18" x2="750.5" y2="27" stroke="#1B1B1B"/>
<line x1="801.5" y1="18" x2="801.5" y2="27" stroke="#1B1B1B"/>
<line x1="853.5" y1="18" x2="853.5" y2="27" stroke="#1B1B1B"/>
<line x1="905.5" y1="18" x2="905.5" y2="27" stroke="#1B1B1B"/>
<line x1="956.5" y1="18" x2="956.5" y2="27" stroke="#1B1B1B"/>
<line x1="1008.5" y1="18" x2="1008.5" y2="27" stroke="#1B1B1B"/>
<line x1="1060.5" y1="18" x2="1060.5" y2="27" stroke="#1B1B1B"/>
<line x1="1111.5" y1="18" x2="1111.5" y2="27" stroke="#1B1B1B"/>
<line x1="1163.5" y1="18" x2="1163.5" y2="27" stroke="#1B1B1B"/>
<line x1="1214.5" y1="18" x2="1214.5" y2="27" stroke="#1B1B1B"/>
<line x1="1266.5" y1="18" x2="1266.5" y2="27" stroke="#1B1B1B"/>
<line y1="36.5" x2="1282" y2="36.5" stroke="#959AA0"/>
</svg>
