<svg width="1962" height="644" viewBox="0 0 1962 644" fill="none" xmlns="http://www.w3.org/2000/svg">
<path fill-rule="evenodd" clip-rule="evenodd" d="M137.074 188.509C112.902 212.036 101.841 233.327 99.7585 249.295C96.1869 276.677 71.0938 295.98 43.7115 292.408C16.3292 288.836 -2.97317 263.743 0.598432 236.361C6.72661 189.378 34.6767 148.626 67.3251 116.849C100.594 84.4674 143.002 57.1419 187.015 37.1995C230.972 17.2829 278.998 3.61305 324.266 0.618494C368.508 -2.30824 417.133 4.63028 454.296 34.4936C482.688 57.3088 484.78 90.0003 480.634 112.783C476.681 134.501 466.125 156.078 455.23 174.621C438.443 203.192 414.765 234.47 391.312 263.693C444.573 237.077 507.531 205.743 570.215 176.048C642.797 141.665 716.544 108.74 775.336 87.7611C804.394 77.3917 832.187 69.0611 855.388 65.4562C866.816 63.6804 879.947 62.5788 892.806 64.2841C904.941 65.8934 925.184 71.1949 939.315 90.0363C949.928 104.188 950.553 119.167 949.978 127.191C949.389 135.422 947.177 142.307 945.539 146.673C942.211 155.543 937.248 164.29 932.816 171.506C923.644 186.44 910.185 205.193 895.991 224.785C893.986 227.553 891.949 230.36 889.886 233.205C861.649 272.129 828.357 318.023 801.292 364.661C771.194 416.525 754.304 460.357 754.522 490.936C754.618 504.364 758.004 512.749 763.155 518.937C768.69 525.586 780.34 534.542 805.422 541.253C817.524 544.49 834.189 544.25 858.192 537.062C882.299 529.843 910.554 516.604 943.98 497.676C983.593 475.244 1025.02 448.192 1071.37 417.929C1105.99 395.323 1143.36 370.925 1184.77 345.32C1372.02 229.525 1615.13 107.371 1915.84 130.539C1943.37 132.66 1963.97 156.7 1961.85 184.232C1959.73 211.765 1935.69 232.365 1908.16 230.244C1639.87 209.574 1419.48 317.752 1237.36 430.372C1201.23 452.716 1165.34 476.095 1130.74 498.63C1081.23 530.885 1034.37 561.409 993.255 584.693C957.158 605.134 921.416 622.517 886.877 632.86C852.234 643.233 815.602 647.493 779.578 637.855C740.91 627.51 708.733 609.866 686.298 582.913C663.478 555.499 654.75 523.281 654.525 491.65C654.099 432.113 683.733 368.004 714.801 314.468C742.14 267.358 774.891 221.466 801.602 184.601C748.808 203.959 681.85 233.818 613.026 266.421C545.35 298.48 477.222 332.542 420.861 360.72C417.471 362.415 414.124 364.088 410.823 365.739C381.851 380.22 356.171 393.026 336.004 402.771C317.302 411.808 299.593 420.09 288.819 423.586C279.925 426.471 268.328 429.542 256.288 429.464C244.836 429.389 217.972 425.654 204.411 398.443C193.678 376.907 200.426 356.461 202.646 350.185C205.841 341.159 210.587 332.737 214.809 325.973C228.65 303.798 254.109 273.055 279.022 242.973C283.242 237.877 287.447 232.8 291.577 227.787C322.221 190.586 351.417 153.906 369.011 123.962C373.479 116.358 376.577 110.201 378.662 105.404C367.732 101.376 352.081 98.997 330.866 100.4C300.029 102.44 263.782 112.203 228.287 128.286C192.848 144.343 160.626 165.585 137.074 188.509Z" fill="white"/>
</svg>
