<svg width="1892" height="574" viewBox="0 0 1892 574" fill="none" xmlns="http://www.w3.org/2000/svg">
<path fill-rule="evenodd" clip-rule="evenodd" d="M77.6617 128.428C50.5228 154.843 33.5511 182.945 30.0524 209.768C28.981 217.983 21.453 223.774 13.2383 222.702C5.02366 221.631 -0.767049 214.103 0.304432 205.888C5.01672 169.76 27.0554 135.82 56.7371 106.93C86.6049 77.8585 125.448 52.6623 166.46 34.0796C207.455 15.5048 251.359 3.2026 291.576 0.542167C331.485 -2.09792 369.85 4.66073 397.372 26.7764C411.886 38.4391 414.099 55.5829 411.199 71.5159C408.358 87.1293 400.293 104.462 390.053 121.89C369.438 156.977 336.899 197.511 306.746 234.114C302.278 239.539 297.873 244.865 293.566 250.072C268.198 280.744 246.26 307.269 234.949 325.391C234.688 325.808 234.437 326.215 234.194 326.614C240.032 324.639 253.084 318.736 272.723 309.246C292.426 299.725 317.701 287.122 346.761 272.597C350.095 270.931 353.478 269.239 356.908 267.524C413.177 239.392 481.874 205.045 550.199 172.679C622.596 138.383 695.036 106.087 752.099 85.7252C780.529 75.5801 805.857 68.134 825.762 65.0412C835.662 63.5028 845.063 62.9006 853.205 63.9803C861.13 65.0313 870.31 68.0298 876.315 76.0363C879.952 80.8856 880.316 86.2199 880.068 89.69C879.815 93.2225 878.822 96.5737 877.77 99.3781C875.65 105.028 872.115 111.476 867.992 118.189C859.655 131.764 847.043 149.38 832.647 169.251C830.6 172.077 828.512 174.955 826.388 177.883C798.314 216.576 764.023 263.84 736.02 312.093C705.582 364.543 684.232 415.471 684.523 456.186C684.664 475.985 689.92 492.711 701.255 506.328C712.705 520.084 731.54 532.081 761.377 540.064C781.851 545.541 805.504 543.894 833.232 535.591C860.99 527.279 891.865 512.59 926.226 493.132C966.358 470.406 1009.63 442.175 1057.1 411.207C1091.75 388.601 1128.64 364.536 1168.17 340.088C1353.63 225.404 1588.79 108.142 1878.15 130.436C1886.41 131.072 1892.59 138.284 1891.96 146.544C1891.32 154.804 1884.11 160.984 1875.85 160.347C1596.21 138.803 1367.87 251.873 1183.95 365.604C1146 389.073 1109.56 412.832 1074.91 435.417C1026.49 466.983 981.591 496.256 941.009 519.237C905.846 539.149 872.725 555.081 841.837 564.331C810.918 573.589 781.274 576.442 753.624 569.044C719.711 559.972 694.718 545.368 678.198 525.521C661.562 505.536 654.704 481.66 654.524 456.4C654.171 406.998 679.344 349.987 710.073 297.035C738.882 247.392 774.034 198.949 801.981 160.436C804.15 157.447 806.276 154.517 808.353 151.651C822.922 131.54 834.806 114.899 842.428 102.488C844.604 98.9462 846.287 95.9777 847.537 93.5439C843.492 93.2421 837.831 93.5259 830.368 94.6855C813.288 97.3394 790.073 104.027 762.181 113.98C706.6 133.814 635.282 165.569 563.042 199.79C495.016 232.016 426.582 266.23 370.271 294.384C366.86 296.089 363.493 297.773 360.174 299.432C331.155 313.937 305.693 326.633 285.776 336.258C266.298 345.669 251.011 352.701 243.018 355.294C235.25 357.814 227.905 359.506 221.515 359.464C215.302 359.424 205.553 357.497 200.736 347.832C196.768 339.869 198.986 331.54 200.641 326.861C202.589 321.358 205.798 315.436 209.499 309.506C221.975 289.519 245.527 261.059 270.677 230.669C274.951 225.504 279.271 220.284 283.591 215.04C313.971 178.161 344.967 139.406 364.188 106.693C373.866 90.2205 379.795 76.5252 381.684 66.144C383.515 56.0823 381.198 52.265 378.58 50.1617C359.323 34.6868 329.751 28.0824 293.556 30.4767C257.668 32.8508 217.299 43.9806 178.842 61.4055C140.402 78.8226 104.614 102.194 77.6617 128.428ZM228.465 338.533C228.458 338.537 228.464 338.455 228.502 338.278C228.49 338.441 228.471 338.53 228.465 338.533Z" fill="url(#paint0_linear_573_14)"/>
<defs>
<linearGradient id="paint0_linear_573_14" x1="-36.1518" y1="217.891" x2="1867.3" y2="180.85" gradientUnits="userSpaceOnUse">
<stop stop-color="#F495C8"/>
<stop offset="0.682292" stop-color="#8CFFF8"/>
<stop offset="1" stop-color="#ABC1FA"/>
</linearGradient>
</defs>
</svg>
