<svg width="632" height="170" viewBox="0 0 632 170" fill="none" xmlns="http://www.w3.org/2000/svg">
<g clip-path="url(#clip0_1_60)">
<path d="M61.3548 46.8311C74.6497 46.8311 85.6121 51.0294 93.7757 59.6595C101.939 68.2895 106.138 79.9516 106.138 94.8792V156.922L90.0438 150.158L80.9473 97.4449C80.9473 88.8149 78.6148 82.0508 73.9499 77.386C69.2851 72.7211 62.9875 70.3887 54.824 70.3887C45.9607 70.3887 38.7302 73.1876 33.3656 78.5522C28.001 84.15 25.202 92.5468 25.202 103.976V166.485H0.0117188V49.8632H25.202V64.7908C32.8991 52.8954 44.7945 46.8311 61.3548 46.8311Z" fill="white"/>
<path d="M182.078 169.517C165.051 169.517 150.357 163.686 138.462 151.791C126.566 139.895 120.502 125.434 120.502 108.174C120.502 90.9141 126.566 76.453 138.462 64.5576C150.357 52.6621 165.051 46.8311 182.078 46.8311C199.338 46.8311 214.033 52.6621 225.928 64.5576C237.823 76.453 243.655 90.9141 243.655 108.174C243.655 125.434 237.823 139.895 225.928 151.791C214.033 163.686 199.338 169.517 182.078 169.517ZM156.188 134.531C163.186 141.528 171.816 145.027 182.078 145.027C192.341 145.027 200.971 141.528 207.968 134.531C214.966 127.533 218.464 118.67 218.464 108.174C218.464 97.6782 214.966 88.8149 207.968 81.8176C200.971 74.8203 192.341 71.3216 182.078 71.3216C171.816 71.3216 163.186 74.8203 156.188 81.8176C149.191 88.8149 145.692 97.6782 145.692 108.174C145.692 118.67 149.191 127.533 156.188 134.531Z" fill="white"/>
<path d="M323.189 74.1204H294.267V130.099C294.267 134.997 295.433 138.262 297.532 140.362C299.632 142.694 302.897 143.86 307.329 143.86C311.527 144.327 316.892 144.093 323.189 143.86V166.485C303.83 168.817 290.069 167.185 281.672 161.354C273.275 155.756 269.077 145.26 269.077 130.099V74.1204L247.152 74.5869L247.618 49.8631H269.077V17.4422L294.267 17.209V49.8631H323.189V74.1204Z" fill="white"/>
<path d="M617.961 49.8633V126.834C617.961 131.499 619.827 142.228 631.023 141.995C631.023 151.558 631.023 154.59 631.023 166.252C617.495 166.019 591.838 162.287 592.771 126.834V49.8633H617.961Z" fill="white"/>
<path d="M97.8535 78.7852L106.25 107.707V130.099C106.25 134.997 108.116 145.493 119.312 145.493C119.312 155.056 119.312 157.855 119.312 169.517C105.784 169.517 80.1269 165.552 81.0599 130.099V74.1203L81.2932 59.6592L97.8535 78.7852Z" fill="white"/>
<path d="M365.126 49.8633V126.834C365.126 131.499 366.992 142.228 378.188 141.995C378.188 151.558 378.188 154.59 378.188 166.252C364.66 166.019 339.003 162.287 339.936 126.834V49.8633H365.126Z" fill="white"/>
<path d="M454.939 24.4395C436.512 22.8068 427.416 30.5039 427.416 47.5306V49.8631H454.939V74.1204H427.416V166.485H402.226V74.1204H384.499V49.8631H402.226V47.5306C402.226 31.4368 406.657 19.3082 415.754 10.9114C424.617 2.74787 437.679 -0.984027 454.939 0.182192V24.4395Z" fill="white"/>
<path d="M554.237 49.8632H579.427V166.485H554.237V149.691C544.674 162.986 531.145 169.517 513.419 169.517C497.325 169.517 483.797 163.686 472.368 151.557C460.939 139.662 455.341 125.201 455.341 108.174C455.341 90.9141 460.939 76.453 472.368 64.5576C483.797 52.6621 497.325 46.8311 513.419 46.8311C531.145 46.8311 544.674 53.3619 554.237 66.4235V49.8632ZM491.028 134.997C498.025 141.994 506.888 145.493 517.384 145.493C527.88 145.493 536.743 141.994 543.741 134.764C550.738 127.767 554.237 118.903 554.237 108.174C554.237 97.4449 550.738 88.5817 543.741 81.3511C536.743 74.3538 527.88 70.8551 517.384 70.8551C506.888 70.8551 498.025 74.3538 491.028 81.3511C484.03 88.5817 480.532 97.4449 480.532 108.174C480.532 118.903 484.03 127.767 491.028 134.997Z" fill="white"/>
<path d="M364.089 27.7049C361.057 30.737 357.325 32.3697 352.894 32.3697C348.462 32.3697 344.73 30.737 341.698 27.4716C338.433 24.4395 336.8 20.7076 336.8 16.2759C336.8 11.8443 338.433 8.11241 341.465 4.847C344.497 1.81483 348.462 0.182129 352.894 0.182129C357.325 0.182129 361.29 1.81483 364.323 4.847C367.355 8.11241 368.987 11.8443 368.987 16.2759C368.987 20.7076 367.355 24.4395 364.089 27.7049Z" fill="white"/>
<path d="M616.285 27.7049C613.253 30.737 609.521 32.3697 605.089 32.3697C600.658 32.3697 596.926 30.737 593.894 27.4716C590.628 24.4395 588.996 20.7076 588.996 16.2759C588.996 11.8443 590.628 8.11241 593.66 4.847C596.693 1.81483 600.658 0.182129 605.089 0.182129C609.521 0.182129 613.486 1.81483 616.518 4.847C619.551 8.11241 621.183 11.8443 621.183 16.2759C621.183 20.7076 619.551 24.4395 616.285 27.7049Z" fill="white"/>
</g>
<defs>
<clipPath id="clip0_1_60">
<rect width="632" height="170" fill="white"/>
</clipPath>
</defs>
</svg>
