<?xml version="1.0" encoding="UTF-8" standalone="no"?>
<!DOCTYPE svg PUBLIC "-//W3C//DTD SVG 1.1//EN" "http://www.w3.org/Graphics/SVG/1.1/DTD/svg11.dtd">
<svg width="100%" height="100%" viewBox="0 0 582 234" version="1.1" xmlns="http://www.w3.org/2000/svg" xmlns:xlink="http://www.w3.org/1999/xlink" xml:space="preserve" xmlns:serif="http://www.serif.com/" style="fill-rule:evenodd;clip-rule:evenodd;stroke-linejoin:round;stroke-miterlimit:2;">
    <rect id="Logo_Concrete" x="0" y="0" width="581.562" height="233.151" style="fill:none;"/>
    <g>
        <path d="M60.49,116.632L60.49,116.519C60.49,105.479 68.781,96.421 80.682,96.421C87.958,96.421 92.357,98.856 95.967,102.422L90.552,108.706C87.507,105.989 84.461,104.291 80.625,104.291C74.083,104.291 69.401,109.725 69.401,116.406L69.401,116.519C69.401,123.2 73.97,128.748 80.625,128.748C85.025,128.748 87.732,126.993 90.778,124.219L96.193,129.71C92.188,133.956 87.788,136.674 80.343,136.674C68.95,136.617 60.49,127.785 60.49,116.632Z" style="fill-rule:nonzero;"/>
        <path d="M123.04,116.632L123.04,116.519C123.04,105.479 131.726,96.421 143.684,96.421C155.64,96.421 164.214,105.366 164.214,116.406L164.214,116.519C164.214,127.559 155.528,136.617 143.57,136.617C131.613,136.617 123.04,127.672 123.04,116.632ZM155.302,116.632L155.302,116.519C155.302,109.839 150.451,104.29 143.57,104.29C136.689,104.29 131.952,109.725 131.952,116.406L131.952,116.519C131.952,123.2 136.802,128.748 143.684,128.748C150.565,128.748 155.302,123.313 155.302,116.632Z" style="fill-rule:nonzero;"/>
        <path d="M191.231,97.1L199.07,97.1L217.175,120.992L217.175,97.1L225.579,97.1L225.579,135.938L218.416,135.938L199.691,111.254L199.691,135.938L191.287,135.938L191.287,97.1L191.231,97.1Z" style="fill-rule:nonzero;"/>
        <path d="M252.709,116.632L252.709,116.519C252.709,105.479 261.001,96.421 272.902,96.421C280.177,96.421 284.577,98.856 288.186,102.422L282.715,108.706C279.726,105.989 276.68,104.347 272.845,104.347C266.302,104.347 261.621,109.782 261.621,116.463L261.621,116.576C261.621,123.256 266.19,128.804 272.845,128.804C277.244,128.804 279.951,127.049 282.997,124.275L288.412,129.767C284.407,134.013 280.008,136.73 272.563,136.73C261.17,136.617 252.709,127.785 252.709,116.632Z" style="fill-rule:nonzero;"/>
        <path d="M315.429,97.1L333.196,97.1C338.103,97.1 341.938,98.516 344.476,101.063C346.62,103.215 347.804,106.272 347.804,109.952L347.804,110.065C347.804,116.349 344.419,120.256 339.512,122.124L348.988,135.994L339.061,135.994L330.657,123.539L323.946,123.539L323.946,135.994L315.429,135.994L315.429,97.1ZM332.632,115.953C336.805,115.953 339.175,113.745 339.175,110.461L339.175,110.348C339.175,106.668 336.636,104.8 332.463,104.8L324.002,104.8L324.002,115.953L332.632,115.953Z" style="fill-rule:nonzero;"/>
        <path d="M375.948,97.1L405.165,97.1L405.165,104.687L384.409,104.687L384.409,112.556L402.627,112.556L402.627,120.142L384.409,120.142L384.409,128.295L405.391,128.295L405.391,135.881L375.948,135.881L375.948,97.1Z" style="fill-rule:nonzero;"/>
        <path d="M444.308,104.97L432.52,104.97L432.52,97.1L464.557,97.1L464.557,104.97L452.769,104.97L452.769,135.938L444.252,135.938L444.252,104.97L444.308,104.97Z" style="fill-rule:nonzero;"/>
        <path d="M491.63,97.1L520.846,97.1L520.846,104.687L500.09,104.687L500.09,112.556L518.308,112.556L518.308,120.142L500.09,120.142L500.09,128.295L521.072,128.295L521.072,135.881L491.63,135.881L491.63,97.1Z" style="fill-rule:nonzero;"/>
    </g>
</svg>
