<?xml version="1.0" encoding="UTF-8" standalone="no"?>
<!DOCTYPE svg PUBLIC "-//W3C//DTD SVG 1.1//EN" "http://www.w3.org/Graphics/SVG/1.1/DTD/svg11.dtd">
<svg width="100%" height="100%" viewBox="0 0 582 234" version="1.1" xmlns="http://www.w3.org/2000/svg" xmlns:xlink="http://www.w3.org/1999/xlink" xml:space="preserve" xmlns:serif="http://www.serif.com/" style="fill-rule:evenodd;clip-rule:evenodd;stroke-linejoin:round;stroke-miterlimit:2;">
    <rect id="Logo_HeyHuman" x="0" y="0" width="581.562" height="233.151" style="fill:none;"/>
    <g>
        <path d="M173.914,112.582C173.714,108.467 170.218,105.28 166.102,105.48C161.987,105.28 158.472,108.449 158.272,112.564L159.146,113.457L173.059,113.457L173.933,112.564L173.914,112.582ZM186.971,121.469L186.097,122.361L159.128,122.361L158.254,123.254C158.254,125.038 160.002,130.356 166.958,130.356C169.562,130.356 172.184,129.463 173.04,127.697L173.914,126.805L184.349,126.805L185.223,127.697C184.349,133.033 179.997,141.027 166.958,141.027C152.171,141.027 145.215,130.356 145.215,117.918C145.215,105.48 152.171,94.809 166.102,94.809C180.033,94.809 186.99,105.48 186.99,117.918L186.99,121.487L186.971,121.469Z"/>
    </g>
    <g>
        <path d="M214.979,141.009C211.501,149.896 208.023,155.231 195.84,155.231L191.488,155.231L190.613,154.339L190.613,145.452L191.488,144.56L195.84,144.56C200.192,144.56 201.066,143.668 201.922,141.009L201.922,140.117L187.991,105.462L187.991,96.575L188.865,95.683L196.696,95.683L197.57,96.575L208.004,126.787L208.878,126.787L219.313,96.575L220.187,95.683L228.018,95.683L228.892,96.575L228.892,105.462L214.979,141.009Z"/>
    </g>
    <g>
        <path d="M286.309,95.665L296.744,95.665L297.618,96.557L297.618,122.325C297.618,126.768 299.366,130.319 304.574,130.319C310.657,130.319 313.279,125.876 313.279,119.648L313.279,96.539L314.153,95.647L324.588,95.647L325.462,96.539L325.462,139.188L324.588,140.08L315.009,140.08L314.135,139.188L313.261,136.529L312.387,136.529C312.387,136.529 309.782,140.972 301.952,140.972C291.517,140.972 285.417,133.87 285.417,123.199L285.417,96.539L286.291,95.647L286.309,95.665Z"/>
    </g>
    <g>
        <path d="M394.443,140.117L383.972,140.117L383.098,139.224L383.098,113.457C383.098,109.013 381.349,105.462 376.141,105.462C370.933,105.462 368.311,109.013 368.311,115.241L368.311,139.242L367.437,140.135L357.002,140.135L356.128,139.242L356.128,113.475C356.128,109.031 354.38,105.48 349.172,105.48C343.963,105.48 341.341,109.031 341.341,115.259L341.341,139.261L340.467,140.153L330.032,140.153L329.158,139.261L329.158,96.575L330.032,95.683L339.611,95.683L340.485,96.575L341.359,99.234L342.233,99.234C342.233,99.234 344.838,94.791 352.668,94.791C357.548,94.536 362.192,96.903 364.851,101.019L365.725,101.019C365.725,101.019 369.203,94.791 378.782,94.791C389.216,94.791 395.317,101.019 395.317,112.564L395.317,139.224L394.443,140.117Z"/>
    </g>
    <g>
        <path d="M485.258,140.117L474.805,140.117L473.931,139.224L473.931,113.457C473.931,109.013 472.183,105.462 466.975,105.462C460.893,105.462 457.396,109.013 457.396,117.008L457.396,139.224L456.522,140.117L446.087,140.117L445.213,139.224L445.213,96.575L446.087,95.683L455.666,95.683L456.54,96.575L457.414,99.234L458.288,99.234C461.275,96.248 465.372,94.627 469.597,94.791C480.032,94.791 486.132,101.893 486.132,112.564L486.132,139.224L485.258,140.117Z"/>
    </g>
    <g>
        <path d="M270.43,77.91L269.556,78.802L269.556,101.911L268.682,102.803L245.19,102.803L244.316,101.911L244.316,78.802L243.442,77.91L233.007,77.91L232.133,78.802L232.133,123.053L233.007,123.946L243.442,123.946L244.316,123.053L244.316,114.349L245.19,113.457L268.682,113.457L269.556,114.349L269.556,139.224L270.43,140.117L280.864,140.117L281.738,139.224L281.738,78.802L280.864,77.91L270.43,77.91Z"/>
    </g>
    <g>
        <path d="M243.588,140.117L232.916,140.117L232.151,139.334L232.151,129.209L232.916,128.425L243.588,128.425L244.352,129.209L244.352,139.334L243.588,140.117Z"/>
    </g>
    <g>
        <path d="M430.317,139.625L431.046,140.353L440.624,140.353L441.498,139.461L441.498,96.812L440.624,95.92L430.172,95.92L429.297,96.812L429.297,97.668C426.275,96.43 423.033,95.792 419.755,95.756C406.717,95.756 398.03,104.442 398.03,118.337C398.03,132.231 405.934,140.918 418.954,140.918C426.038,140.918 428.605,136.93 428.605,136.93L429.48,136.93L430.317,139.625ZM429.297,118.956C429.115,126.386 425.674,130.52 419.755,130.52C413.837,130.52 410.195,126.167 410.195,118.355C410.195,110.543 413.673,106.191 419.755,106.191C425.838,106.191 429.115,110.324 429.297,117.754L429.297,118.974L429.297,118.956Z"/>
    </g>
    <g id="h-dotted">
        <path d="M130.683,77.91L129.809,78.802L129.809,101.911L128.935,102.803L105.461,102.803L104.587,101.911L104.587,78.802L103.713,77.91L93.279,77.91L92.405,78.802L92.405,123.053L93.279,123.946L103.713,123.946L104.587,123.053L104.587,114.349L105.461,113.457L128.953,113.457L129.827,114.349L129.827,139.224L130.701,140.117L141.136,140.117L142.01,139.224L142.01,78.802L141.136,77.91L130.683,77.91Z" style="fill-rule:nonzero;"/>
    </g>
    <g>
        <path d="M130.683,77.91L129.809,78.802L129.809,101.911L128.935,102.803L105.461,102.803L104.587,101.911L104.587,78.802L103.713,77.91L93.279,77.91L92.405,78.802L92.405,139.224L93.279,140.117L103.713,140.117L104.587,139.224L104.587,114.349L105.461,113.457L128.953,113.457L129.827,114.349L129.827,139.224L130.701,140.117L141.136,140.117L142.01,139.224L142.01,78.802L141.136,77.91L130.683,77.91Z"/>
    </g>
</svg>
