<?xml version="1.0" encoding="UTF-8" standalone="no"?>
<!DOCTYPE svg PUBLIC "-//W3C//DTD SVG 1.1//EN" "http://www.w3.org/Graphics/SVG/1.1/DTD/svg11.dtd">
<svg width="100%" height="100%" viewBox="0 0 582 234" version="1.1" xmlns="http://www.w3.org/2000/svg" xmlns:xlink="http://www.w3.org/1999/xlink" xml:space="preserve" xmlns:serif="http://www.serif.com/" style="fill-rule:evenodd;clip-rule:evenodd;stroke-linejoin:round;stroke-miterlimit:2;">
    <rect id="Logo_LarDen" x="0" y="0" width="581.562" height="233.151" style="fill:none;"/>
    <g>
        <path d="M139.414,127.601C139.414,133.78 144.175,134.59 148.328,134.59L178.309,134.59L178.309,127.601C175.068,132.058 167.471,133.577 160.583,133.577L150.556,133.577L150.556,85.769C150.556,79.489 145.795,78.679 141.642,78.78L139.414,78.78L139.414,127.601Z" style="fill-rule:nonzero;"/>
        <path d="M204.948,90.124C198.364,90.124 193.502,92.15 189.046,94.986L189.046,103.089C192.186,96.91 196.338,91.137 203.631,91.137C209.303,91.137 212.241,94.48 212.241,98.329C212.241,102.583 209.101,106.026 205.556,107.85C196.744,112.408 182.563,113.218 182.563,124.461C182.563,130.741 187.628,135.603 194.313,135.603C201.909,135.603 208.594,131.146 212.139,128.31C212.139,132.665 214.368,135.603 218.723,135.603C221.762,135.603 225.003,134.286 226.219,132.665C223.585,133.374 222.268,132.058 222.268,128.614L222.268,113.421L221.661,113.421C219.736,119.802 216.292,125.575 212.139,128.31C205.657,132.767 194.211,130.842 194.211,121.119C194.11,114.94 199.174,111.699 205.049,109.268C212.95,105.925 222.37,104.203 222.37,99.139C222.37,93.365 213.659,90.124 204.948,90.124Z" style="fill-rule:nonzero;"/>
        <path d="M256.2,92.859C259.239,92.859 262.784,94.176 267.443,99.848L267.443,93.264C265.721,90.833 263.392,90.124 260.657,90.124C254.579,90.124 250.021,93.264 246.274,96.303L245.16,97.316C244.754,91.846 240.196,91.137 236.145,91.137L234.018,91.137L234.018,127.601C234.018,133.78 238.778,134.59 242.931,134.59L245.16,134.59L245.16,98.531L246.476,97.417C249.819,94.581 253.06,92.859 256.2,92.859Z" style="fill-rule:nonzero;"/>
        <path d="M272.609,78.78L272.508,134.59L291.651,134.59C309.984,134.59 319.1,121.119 319.1,106.634C318.999,92.15 309.883,78.78 291.651,78.78L272.609,78.78ZM291.651,79.793C300.767,79.793 306.844,93.669 306.946,106.634C306.946,119.599 300.868,133.577 291.651,133.577L283.649,133.577L283.649,79.793L291.651,79.793Z" style="fill-rule:nonzero;"/>
        <path d="M364.782,107.039C363.87,95.29 354.146,90.124 345.334,90.124C334.598,90.124 323.253,96.91 323.253,112.813C323.253,127.297 334.091,135.502 344.726,135.502C352.728,135.502 360.527,130.842 363.566,120.916C360.933,125.373 356.577,127.601 352.019,127.601C340.574,127.601 333.99,117.472 333.889,107.039L364.782,107.039ZM333.889,106.026C334.192,95.391 339.662,91.137 344.929,91.137C350.095,91.137 354.45,94.986 354.45,100.152C354.45,101.874 354.146,104.102 353.032,106.026L333.889,106.026Z" style="fill-rule:nonzero;"/>
        <path d="M401.651,127.601C401.651,133.78 406.411,134.59 410.564,134.59L412.792,134.59L412.792,103.19C412.792,94.378 407.931,90.124 399.524,90.124C393.548,90.124 388.787,92.555 384.229,96.303L383.115,97.316C382.71,91.846 378.152,91.137 374.1,91.137L371.973,91.137L371.973,127.601C371.973,133.78 376.734,134.59 380.886,134.59L383.115,134.59L383.115,98.531L384.432,97.417C387.774,94.581 390.712,92.859 393.851,92.859C397.802,92.859 401.651,95.898 401.651,103.292L401.651,127.601Z" style="fill-rule:nonzero;"/>
    </g>
</svg>
