<?xml version="1.0" encoding="UTF-8" standalone="no"?>
<!DOCTYPE svg PUBLIC "-//W3C//DTD SVG 1.1//EN" "http://www.w3.org/Graphics/SVG/1.1/DTD/svg11.dtd">
<svg width="100%" height="100%" viewBox="0 0 582 234" version="1.1" xmlns="http://www.w3.org/2000/svg" xmlns:xlink="http://www.w3.org/1999/xlink" xml:space="preserve" xmlns:serif="http://www.serif.com/" style="fill-rule:evenodd;clip-rule:evenodd;stroke-linejoin:round;stroke-miterlimit:2;">
    <g transform="matrix(1,0,0,1,0,-341.794)">
        <g id="Logo_Mckinsey" transform="matrix(1,0,0,0.693255,-199.083,816.19)">
            <rect x="199.083" y="-684.304" width="581.562" height="336.314" style="fill:none;"/>
            <g transform="matrix(1.90452,0,0,2.74722,257.434,-595.389)">
                <path d="M24.117,39.277L24.117,38.422C26.282,38.172 27.09,37.264 26.937,34.341L26.082,15.464L17.023,39.077L15.862,39.077L6.598,15.464L5.791,33.187C5.64,36.913 6.441,37.918 9.264,38.422L9.264,39.277L0,39.277L0,38.422C2.62,38.121 3.674,36.71 3.877,32.933L4.782,15.309C4.936,11.986 2.724,11.583 1.208,11.283L1.208,10.425L8.811,10.425L17.523,32.779L26.029,10.579L33.234,10.579L33.234,11.486C30.965,11.684 29.86,12.795 29.956,15.41L30.811,33.488C30.965,36.96 31.969,38.172 34.539,38.422L34.539,39.277L24.117,39.277" style="fill-rule:nonzero;"/>
            </g>
            <g transform="matrix(1.90452,0,0,2.74722,257.434,-564.826)">
                <path d="M44.205,28.655C38.012,28.655 35.647,24.325 35.647,20.097C35.647,14.758 39.671,9.922 45.06,9.922C47.275,9.922 49.19,10.479 50.449,11.49C50.396,12.542 49.845,13.956 49.288,14.657L48.94,14.71C47.477,12.795 45.464,12.095 43.699,12.095C42.493,12.095 41.284,12.391 40.429,13.245C39.521,14.153 39.023,15.668 39.023,17.73C39.023,22.162 40.885,26.389 45.867,26.389C47.629,26.389 49.491,25.889 51.153,24.882L51.557,25.739C49.845,27.595 46.772,28.655 44.205,28.655" style="fill-rule:nonzero;"/>
            </g>
            <g transform="matrix(1.90452,0,0,2.74722,257.434,-595.389)">
                <path d="M72.294,39.277C68.316,34.795 64.642,30.162 61.217,25.936L59.857,27.443L59.857,29.055C59.857,37.713 59.857,37.969 63.134,38.422L63.134,39.277L52.807,39.277L52.807,38.422C55.78,38.172 56.083,37.665 56.083,29.61L56.083,19.639C56.083,12.187 55.932,11.536 52.807,11.283L52.807,10.425L63.134,10.425L63.134,11.283C60.211,11.684 59.857,12.14 59.857,19.542L59.857,24.975L67.459,16.568C69.325,14.556 69.475,13.498 69.475,12.894C69.475,11.986 68.968,11.536 67.712,11.283L67.712,10.425L77.377,10.425L77.377,11.283C74.558,11.386 72.949,13.048 69.925,16.371L63.735,23.22C65.648,25.688 68.921,29.61 70.88,31.928C75.969,37.815 77.586,38.268 79.191,38.422L79.191,39.277L72.294,39.277" style="fill-rule:nonzero;"/>
            </g>
            <g transform="matrix(1.90452,0,0,2.74722,257.434,-592.207)">
                <path d="M79.092,38.119L79.092,37.264C82.262,37.114 82.312,37.114 82.312,30.717L82.312,26.285C82.312,21.253 81.958,21.101 79.039,21L79.039,20.142L85.784,20.142L85.784,30.77C85.784,37.114 85.883,37.061 88.703,37.264L88.703,38.119L79.092,38.119ZM83.87,15.059C82.557,15.059 81.608,14.052 81.608,12.744C81.608,11.433 82.557,10.425 83.87,10.425C85.182,10.425 86.187,11.433 86.187,12.744C86.187,14.052 85.182,15.059 83.87,15.059" style="fill-rule:nonzero;"/>
            </g>
            <g transform="matrix(1.90452,0,0,2.74722,257.434,-566.208)">
                <path d="M103.002,28.655L103.002,27.8C105.572,27.646 105.771,27.597 105.771,21.603L105.771,17.982C105.771,13.647 104.01,12.694 101.796,12.694C99.077,12.694 96.806,14.755 96.806,16.422L96.806,21.306C96.806,27.646 96.912,27.597 99.731,27.8L99.731,28.655L90.114,28.655L90.114,27.8C93.282,27.646 93.338,27.646 93.338,21.253L93.338,16.821C93.338,11.786 92.981,11.637 90.063,11.536L90.063,10.678L96.806,10.678L96.806,13.905C98.671,11.536 101.087,10.425 103.409,10.425C106.275,10.425 109.249,12.14 109.249,17.579L109.249,21.603C109.249,27.597 109.249,27.646 112.418,27.8L112.418,28.655L103.002,28.655" style="fill-rule:nonzero;"/>
            </g>
            <g transform="matrix(1.90452,0,0,2.74722,257.434,-565.364)">
                <path d="M120.367,28.802C118,28.802 115.131,28.2 114.427,27.04C114.173,26.637 113.974,24.22 113.974,22.909L115.028,22.909C115.736,26.133 117.901,27.495 120.468,27.495C123.081,27.495 124.648,26.484 124.648,24.827C124.648,19.887 114.324,21.101 114.324,15.054C114.324,12.288 116.49,9.971 120.217,9.971C122.733,9.971 125.302,10.676 125.503,10.879C125.706,11.076 126.007,12.742 126.007,15.357L125.197,15.357C124.896,14.297 123.39,11.18 120.016,11.18C118.352,11.18 116.993,11.931 116.993,13.443C116.993,17.728 127.261,16.716 127.261,23.364C127.261,26.336 124.648,28.802 120.367,28.802" style="fill-rule:nonzero;"/>
            </g>
            <g transform="matrix(1.90452,0,0,2.74722,257.434,-565.224)">
                <path d="M146.297,25.878L145.894,25.024C144.235,26.033 142.369,26.536 140.604,26.536C135.622,26.536 133.557,22.055 133.709,17.977L146.297,17.977C146.501,13.845 144.332,9.92 139.146,9.92C133.913,9.92 130.386,14.101 130.386,19.889C130.386,24.419 132.702,28.802 138.948,28.802C141.511,28.802 144.587,27.74 146.297,25.878M143.023,16.619L133.76,16.619C134.061,13.291 135.571,11.43 138.441,11.43C141.261,11.43 142.97,13.291 143.023,16.619" style="fill-rule:nonzero;"/>
            </g>
            <g transform="matrix(1.90452,0,0,2.74722,257.434,-536.17)">
                <path d="M163.308,4.129L159.729,14.296C157.365,20.994 156.057,25.425 149.353,28.146C148.857,27.688 147.898,26.177 147.64,25.326C152.729,24.165 155.251,21.952 156.861,17.823L152.178,7.4C149.408,1.256 149.206,0.953 147.14,0.852L147.14,0L155.546,0L155.546,0.852C154.241,1.004 153.837,1.409 153.837,2.114C153.837,2.868 154.19,3.725 155.096,5.89L158.472,13.796L161.942,3.574C162.547,1.811 161.692,0.953 160.131,0.852L160.131,0L166.628,0L166.628,0.852C165.369,0.852 164.109,1.811 163.308,4.129" style="fill-rule:nonzero;"/>
            </g>
            <g transform="matrix(1.90452,0,0,2.74722,257.434,-589.576)">
                <path d="M199.057,37.161L199.057,36.303C197.038,36.103 194.015,34.439 190.794,32.075C191.952,30.166 192.203,27.393 192.506,25.327C192.759,23.569 194.065,23.618 194.922,23.516L194.922,22.715L186.767,22.715L186.767,23.516C188.685,23.767 190.547,24.02 190.547,26.992C190.547,28.548 190.288,30.109 189.583,31.171C182.438,25.581 175.842,17.826 175.842,13.949C175.842,12.037 177,11.129 178.861,11.129C181.178,11.129 183.393,12.693 184.451,15.714L185.257,15.714L185.154,10.275L184.347,10.275C184.297,10.629 183.95,10.879 183.746,10.879C182.742,10.879 181.333,9.771 178.861,9.771C176.148,9.771 173.323,11.486 173.323,15.203C173.323,16.62 173.779,17.927 174.535,19.438C170.809,20.599 168.844,23.82 168.844,27.494C168.844,34.19 173.93,37.815 179.668,37.815C183.245,37.815 186.062,36.708 188.685,34.495C190.288,35.654 191.899,36.756 192.86,37.161L199.057,37.161ZM187.371,33.587C185.86,34.748 183.292,35.099 181.234,35.099C175.941,35.099 171.763,31.372 171.763,26.383C171.763,23.261 173.121,21.303 175.184,20.747C177.706,25.227 182.438,29.96 187.371,33.587" style="fill-rule:nonzero;"/>
            </g>
            <g transform="matrix(1.90452,0,0,2.74722,257.434,-595.386)">
                <path d="M213.345,39.982C204.996,39.982 199.704,34.443 199.704,25.63C199.704,16.419 205.449,9.719 214.05,9.719C218.333,9.719 219.946,10.928 221.657,10.928C222.415,10.928 222.913,10.627 223.219,10.023L224.026,10.023L224.327,18.632L223.469,18.632C222.058,13.65 219.186,11.131 214.206,11.131C207.759,11.131 203.837,15.662 203.837,23.768C203.837,32.175 207.86,37.814 214.607,37.814C218.387,37.814 222.058,36.152 223.773,33.839L224.577,34.744C223.013,37.313 218.785,39.982 213.345,39.982" style="fill-rule:nonzero;"/>
            </g>
            <g transform="matrix(1.90452,0,0,2.74722,257.434,-565.359)">
                <path d="M245.863,19.383C245.863,15.908 244.455,12.988 241.887,11.379C240.378,10.422 238.467,9.969 236.352,9.969C230.709,9.969 226.731,14.097 226.731,19.383C226.731,22.909 228.146,25.827 230.709,27.438C232.221,28.399 234.184,28.802 236.298,28.802C241.887,28.802 245.863,24.771 245.863,19.383M242.292,20.541C242.292,24.722 240.429,27.291 236.652,27.291C233.377,27.291 230.311,24.267 230.311,18.177C230.311,13.842 232.371,11.477 235.848,11.477C239.071,11.477 242.292,14.601 242.292,20.541" style="fill-rule:nonzero;"/>
            </g>
        </g>
    </g>
</svg>
