<?xml version="1.0" encoding="UTF-8" standalone="no"?>
<!DOCTYPE svg PUBLIC "-//W3C//DTD SVG 1.1//EN" "http://www.w3.org/Graphics/SVG/1.1/DTD/svg11.dtd">
<svg width="100%" height="100%" viewBox="0 0 582 234" version="1.1" xmlns="http://www.w3.org/2000/svg" xmlns:xlink="http://www.w3.org/1999/xlink" xml:space="preserve" xmlns:serif="http://www.serif.com/" style="fill-rule:evenodd;clip-rule:evenodd;stroke-linejoin:round;stroke-miterlimit:2;">
    <g transform="matrix(1,0,0,1,0,-670.745)">
        <g id="Logo_Mindfuel" transform="matrix(1,0,0,0.693255,-199.083,1145.14)">
            <rect x="199.083" y="-684.304" width="581.562" height="336.314" style="fill:none;"/>
            <g transform="matrix(1.72571,0,0,2.48928,251.573,-568.653)">
                <path d="M32.187,39.423L31.765,18.69L27.025,39.423L16.795,39.423L12.073,18.69L11.651,39.423L0,39.423L2.098,3.207L17.308,3.207L21.863,22.889L26.506,3.207L41.725,3.207L43.826,39.423L32.187,39.423Z" style="fill-rule:nonzero;"/>
            </g>
            <g transform="matrix(1.72571,0,0,2.48928,251.573,-568.653)">
                <rect x="51.317" y="3.207" width="11.873" height="36.216" style="fill-rule:nonzero;"/>
            </g>
            <g transform="matrix(1.72571,0,0,2.48928,251.573,-568.653)">
                <path d="M93.58,39.423L82.557,19.215C82.557,19.215 82.818,23.163 82.818,25.777L82.818,39.423L71.279,39.423L71.279,3.207L84.136,3.207L94.633,23.415C94.633,23.415 94.372,19.467 94.372,16.853L94.372,3.207L105.911,3.207L105.911,39.423L93.58,39.423Z" style="fill-rule:nonzero;"/>
            </g>
            <g transform="matrix(1.72571,0,0,2.48928,251.573,-568.653)">
                <path d="M163.364,12.55L163.364,18.167L175.963,18.167L175.963,27.508L163.364,27.508L163.364,39.423L151.564,39.423L151.564,3.207L176.768,3.207L176.768,12.55L163.364,12.55Z" style="fill-rule:nonzero;"/>
            </g>
            <g transform="matrix(1.72571,0,0,2.48928,251.573,-568.653)">
                <path d="M211.186,35.749C208.563,38.372 204.363,40 198.591,40C192.818,40 188.616,38.372 185.992,35.749C183.369,33.125 182.045,29.712 182.045,23.94L182.045,3.207L193.972,3.207L193.972,24.462C193.972,27.559 195.229,29.709 198.591,29.709C201.952,29.709 203.146,27.559 203.146,24.462L203.146,3.207L215.113,3.207L215.113,23.94C215.122,29.712 213.81,33.125 211.186,35.749Z" style="fill-rule:nonzero;"/>
            </g>
            <g transform="matrix(1.72571,0,0,2.48928,251.573,-568.653)">
                <path d="M221.058,39.423L221.058,3.207L246.777,3.207L246.777,12.55L232.87,12.55L232.87,16.497L245.991,16.497L245.991,25.777L232.861,25.777L232.861,29.977L247.294,29.977L247.294,39.423L221.058,39.423Z" style="fill-rule:nonzero;"/>
            </g>
            <g transform="matrix(1.72571,0,0,2.48928,251.573,-568.653)">
                <path d="M253.853,39.423L253.853,3.207L265.662,3.207L265.662,29.712L277.996,29.712L277.996,39.429L253.853,39.423Z" style="fill-rule:nonzero;"/>
            </g>
            <g transform="matrix(1.72571,0,0,2.48928,251.573,-568.653)">
                <path d="M127.009,39.411L113.387,39.411L113.387,3.258L127.009,3.258C139.009,3.258 147.444,8.341 147.444,21.335C147.444,34.328 139.009,39.411 127.009,39.411Z" style="fill-rule:nonzero;"/>
            </g>
            <g transform="matrix(1.72571,0,0,2.48928,251.573,-568.653)">
                <path d="M133.628,1.822C133.866,1.581 134.149,1.389 134.462,1.258C134.775,1.127 135.111,1.06 135.45,1.06C135.68,1.059 135.91,1.089 136.133,1.148C136.575,1.264 136.978,1.496 137.3,1.819C137.623,2.143 137.854,2.546 137.97,2.988L138.65,5.523C139.084,5.733 139.503,5.961 139.91,6.201L138.981,2.703C138.815,2.086 138.49,1.523 138.038,1.072C137.586,0.62 137.023,0.295 136.406,0.13C135.789,-0.035 135.14,-0.036 134.522,0.129C133.905,0.294 133.342,0.618 132.89,1.069L130.54,3.422C130.986,3.465 131.426,3.516 131.857,3.574L133.628,1.822Z" style="fill-rule:nonzero;"/>
            </g>
            <g transform="matrix(1.72571,0,0,2.48928,251.573,-568.653)">
                <path d="M147.72,35.327L146.093,29.254C145.893,29.764 145.666,30.262 145.412,30.748L146.715,35.606C146.816,35.99 146.828,36.392 146.75,36.781C146.672,37.17 146.505,37.535 146.264,37.85C146.022,38.165 145.712,38.42 145.356,38.597C145.001,38.773 144.61,38.866 144.213,38.867C143.983,38.867 143.755,38.836 143.533,38.776L138.228,37.349L113.386,30.699L112.567,30.48L110.909,30.037C110.524,29.935 110.167,29.745 109.867,29.483C109.567,29.221 109.331,28.894 109.177,28.526C109.023,28.159 108.955,27.761 108.979,27.363C109.003,26.966 109.118,26.579 109.314,26.232C109.432,26.034 109.574,25.852 109.736,25.689L113.38,22.045L113.38,20.572L109.011,24.951C108.557,25.402 108.231,25.964 108.063,26.581C107.982,26.886 107.941,27.199 107.942,27.514C107.946,28.325 108.215,29.113 108.707,29.758C109.194,30.391 109.878,30.845 110.65,31.048L136.61,38.005L143.263,39.778C143.42,39.82 143.581,39.851 143.742,39.872C143.901,39.894 144.062,39.905 144.222,39.906C144.779,39.902 145.328,39.771 145.826,39.523C146.325,39.274 146.759,38.915 147.097,38.472C147.435,38.029 147.667,37.515 147.775,36.969C147.883,36.422 147.864,35.859 147.72,35.321L147.72,35.327Z" style="fill-rule:nonzero;"/>
            </g>
        </g>
    </g>
</svg>
