<?xml version="1.0" encoding="UTF-8" standalone="no"?>
<!DOCTYPE svg PUBLIC "-//W3C//DTD SVG 1.1//EN" "http://www.w3.org/Graphics/SVG/1.1/DTD/svg11.dtd">
<svg width="100%" height="100%" viewBox="0 0 582 234" version="1.1" xmlns="http://www.w3.org/2000/svg" xmlns:xlink="http://www.w3.org/1999/xlink" xml:space="preserve" xmlns:serif="http://www.serif.com/" style="fill-rule:evenodd;clip-rule:evenodd;stroke-linejoin:round;stroke-miterlimit:2;">
    <rect id="Logo_Samsung" x="0" y="0" width="581.562" height="233.151" style="fill:none;"/>
    <g>
        <path d="M480.084,112.654L480.084,121.436L486.256,121.436L486.256,130.149C486.275,130.928 486.233,131.768 486.099,132.439C485.854,134.065 484.31,136.832 479.929,136.832C475.574,136.832 474.058,134.065 473.795,132.439C473.685,131.768 473.637,130.928 473.637,130.149L473.637,102.629C473.637,101.655 473.703,100.59 473.91,99.783C474.209,98.317 475.509,95.424 479.896,95.424C484.502,95.424 485.652,98.474 485.916,99.783C486.089,100.651 486.099,102.106 486.099,102.106L486.099,105.448L501.264,105.448L501.264,103.472C501.264,103.472 501.333,101.411 501.149,99.487C500.009,88.192 490.702,84.618 480.03,84.618C469.339,84.618 460.221,88.225 458.893,99.487C458.773,100.517 458.589,102.37 458.589,103.472L458.589,128.788C458.589,129.891 458.625,130.745 458.829,132.76C459.819,143.744 469.339,147.638 479.988,147.638C490.702,147.638 500.157,143.744 501.163,132.76C501.342,130.745 501.36,129.891 501.384,128.788L501.384,112.654L480.084,112.654ZM375.521,86.238L360.292,86.238L360.292,130.784C360.316,131.56 360.292,132.432 360.158,133.072C359.84,134.567 358.573,137.445 354.372,137.445C350.224,137.445 348.924,134.567 348.63,133.072C348.478,132.432 348.458,131.56 348.478,130.784L348.478,86.238L333.253,86.238L333.253,129.402C333.234,130.514 333.321,132.787 333.387,133.383C334.438,144.63 343.303,148.282 354.372,148.282C365.462,148.282 374.322,144.63 375.392,133.383C375.476,132.787 375.587,130.514 375.521,129.402L375.521,86.238ZM235.595,86.238L227.999,133.307L220.407,86.238L195.841,86.238L194.539,146.453L209.588,146.453L209.996,90.71L220.35,146.453L235.619,146.453L245.983,90.71L246.392,146.453L261.48,146.453L260.133,86.238L235.595,86.238ZM144.643,86.238L133.489,146.453L149.755,146.453L158.16,90.71L166.364,146.453L182.517,146.453L171.409,86.238L144.643,86.238ZM428.743,134.718L414.563,86.238L392.217,86.238L392.217,145.825L406.999,145.825L406.141,95.794L421.37,145.825L442.801,145.825L442.801,86.238L427.922,86.238L428.743,134.718ZM292.012,101.909C291.745,100.72 291.822,99.456 291.961,98.796C292.391,96.868 293.686,94.766 297.418,94.766C300.896,94.766 302.935,96.934 302.935,100.188L302.935,103.87L317.78,103.87L317.78,99.673C317.78,86.699 306.148,84.66 297.726,84.66C287.12,84.66 278.458,88.157 276.876,97.919C276.457,100.576 276.354,102.934 277.019,105.944C279.599,118.116 300.79,121.647 303.866,129.345C304.408,130.803 304.253,132.663 303.976,133.759C303.515,135.762 302.168,137.777 298.173,137.777C294.426,137.777 292.17,135.623 292.17,132.376L292.166,126.597L276.187,126.597L276.187,131.191C276.187,144.501 286.612,148.517 297.842,148.517C308.596,148.517 317.479,144.842 318.904,134.88C319.583,129.733 319.071,126.381 318.798,125.118C316.308,112.633 293.722,108.878 292.012,101.909M96.182,101.761C95.891,100.547 95.959,99.266 96.121,98.598C96.533,96.68 97.835,94.54 101.633,94.54C105.155,94.54 107.228,96.729 107.228,100.009L107.228,103.736L122.248,103.736L122.248,99.506C122.248,86.407 110.438,84.319 101.924,84.319C91.228,84.319 82.489,87.87 80.89,97.703C80.452,100.402 80.377,102.776 81.01,105.819C83.617,118.13 105.018,121.69 108.131,129.48C108.714,130.928 108.538,132.787 108.249,133.926C107.755,135.95 106.396,137.993 102.368,137.993C98.606,137.993 96.356,135.802 96.356,132.511L96.335,126.716L80.177,126.716L80.177,131.321C80.177,144.784 90.751,148.832 102.067,148.832C112.947,148.832 121.881,145.125 123.339,135.047C124.063,129.853 123.52,126.473 123.275,125.191C120.734,112.553 97.897,108.81 96.182,101.761" style="fill-rule:nonzero;"/>
    </g>
</svg>
