<?xml version="1.0" encoding="UTF-8" standalone="no"?>
<!DOCTYPE svg PUBLIC "-//W3C//DTD SVG 1.1//EN" "http://www.w3.org/Graphics/SVG/1.1/DTD/svg11.dtd">
<svg width="100%" height="100%" viewBox="0 0 582 234" version="1.1" xmlns="http://www.w3.org/2000/svg" xmlns:xlink="http://www.w3.org/1999/xlink" xml:space="preserve" xmlns:serif="http://www.serif.com/" style="fill-rule:evenodd;clip-rule:evenodd;stroke-linejoin:round;stroke-miterlimit:2;">
    <rect id="Logo_Signia" x="0" y="0" width="581.562" height="233.151" style="fill:none;"/>
    <path d="M245.367,85.928C227.278,85.928 212.796,99.638 212.796,116.779C212.796,133.92 227.639,147.622 244.997,147.622C253.684,147.622 260.571,144.19 265.256,138.71L265.256,143.853C265.256,154.131 256.585,162.336 245.359,162.336L242.835,162.336L242.835,174.703L245.359,174.703C263.456,174.703 277.921,160.994 277.921,143.861L277.921,116.787C277.921,99.646 263.456,85.944 245.351,85.944M245.351,133.928C235.225,133.928 227.269,126.382 227.269,116.795C227.269,107.208 235.225,99.654 245.359,99.654C255.806,99.654 263.44,107.883 263.44,116.795C263.44,126.382 255.484,133.928 245.351,133.928M321.332,85.952C336.521,85.952 348.824,97.605 348.824,111.997L348.824,146.272L334.359,146.272L334.359,111.997C334.359,105.143 328.211,99.662 321.34,99.662C314.47,99.662 307.952,105.143 307.952,111.997L307.952,146.272L293.487,146.272L293.487,111.997C293.487,97.605 306.152,85.952 321.348,85.952M425.898,85.952C407.801,85.952 393.344,99.67 393.344,116.803C393.344,133.936 408.171,147.646 425.537,147.646C434.224,147.646 441.103,144.222 445.804,138.734L445.804,146.28L458.831,146.28L458.831,116.803C458.469,99.67 443.996,85.96 425.882,85.96M425.882,133.952C415.757,133.952 407.785,126.406 407.785,116.811C407.785,107.216 415.757,99.67 425.882,99.67C434.931,99.67 443.972,106.525 443.972,116.811C443.972,126.406 436.016,133.952 425.882,133.952M198.034,85.928L198.034,146.705L183.288,146.705L183.288,85.928L198.034,85.928ZM173.443,85.968L173.443,100.016L164.266,100.016C159.911,99.959 156.31,103.407 156.182,107.762L156.182,124.968C156.182,136.917 145.904,146.738 133.416,146.738L124.238,146.738L124.238,132.674L133.078,132.674C137.426,132.731 141.018,129.307 141.162,124.96L141.162,107.706C141.162,95.764 151.441,85.944 164.298,85.944L173.476,85.944L173.443,85.968ZM380.301,87.294L380.301,146.336L365.836,146.336L365.836,87.294L380.301,87.294Z" style="fill-rule:nonzero;"/>
</svg>
