<?xml version="1.0" encoding="UTF-8" standalone="no"?>
<!DOCTYPE svg PUBLIC "-//W3C//DTD SVG 1.1//EN" "http://www.w3.org/Graphics/SVG/1.1/DTD/svg11.dtd">
<svg width="100%" height="100%" viewBox="0 0 582 234" version="1.1" xmlns="http://www.w3.org/2000/svg" xmlns:xlink="http://www.w3.org/1999/xlink" xml:space="preserve" xmlns:serif="http://www.serif.com/" style="fill-rule:evenodd;clip-rule:evenodd;stroke-linejoin:round;stroke-miterlimit:2;">
    <rect id="Logo_SuperUsefulStudio" x="0" y="0" width="581.562" height="233.151" style="fill:none;"/>
    <g>
        <path d="M51.577,135.639C44.926,135.639 39.222,133.173 34.465,128.239L40.015,121.368C41.689,123.306 43.561,124.77 45.631,125.762C47.701,126.753 49.727,127.248 51.709,127.248C53.912,127.248 55.586,126.797 56.731,125.894C57.876,124.991 58.449,123.79 58.449,122.293C58.449,120.663 57.854,119.419 56.665,118.56C55.475,117.701 53.339,116.743 50.256,115.686C48.141,114.937 46.38,114.221 44.97,113.538C43.561,112.856 42.107,111.942 40.609,110.796C39.112,109.651 37.989,108.264 37.24,106.634C36.491,105.004 36.116,103.132 36.116,101.018C36.116,97.274 37.57,94.124 40.477,91.57C43.384,89.015 46.952,87.693 51.181,87.605C56.907,87.561 62.171,89.543 66.972,93.552L61.62,100.555C57.92,97.472 54.506,95.93 51.379,95.93C49.705,95.93 48.351,96.349 47.316,97.186C46.28,98.023 45.763,99.168 45.763,100.621C45.719,101.987 46.269,103.077 47.415,103.892C48.56,104.707 50.63,105.709 53.625,106.898C58.471,108.792 61.642,110.246 63.14,111.259C66.487,113.549 68.161,116.875 68.161,121.236C68.161,125.949 66.487,129.528 63.14,131.972C59.792,134.417 55.938,135.639 51.577,135.639Z" style="fill-rule:nonzero;"/>
        <path d="M92.938,102.868L101.593,102.868L101.593,135.111L92.938,135.111L92.938,131.146L92.806,131.146C90.339,134.142 87.146,135.639 83.225,135.639C75.341,135.639 71.399,131.19 71.399,122.293L71.399,102.868L79.988,102.868L79.988,119.98C79.988,122.887 80.439,124.936 81.342,126.125C82.245,127.314 83.732,127.909 85.802,127.909C87.784,127.909 89.469,127.083 90.857,125.431C92.244,123.779 92.938,121.478 92.938,118.527L92.938,102.868Z" style="fill-rule:nonzero;"/>
        <path d="M125.313,102.339C129.674,102.339 133.297,103.914 136.182,107.063C139.067,110.213 140.509,114.21 140.509,119.055C140.509,123.989 139.067,127.986 136.182,131.047C133.297,134.109 129.586,135.639 125.049,135.639C121.084,135.639 117.913,134.252 115.534,131.477L115.402,131.477L115.402,148.193L106.747,148.193L106.747,102.868L115.402,102.868L115.402,106.568L115.534,106.568C118.001,103.749 121.261,102.339 125.313,102.339ZM123.463,127.909C125.93,127.909 127.923,127.094 129.442,125.464C130.962,123.834 131.722,121.72 131.722,119.121C131.722,116.39 130.94,114.199 129.376,112.547C127.813,110.895 125.841,110.07 123.463,110.07C120.996,110.07 118.981,110.928 117.417,112.646C115.854,114.364 115.072,116.523 115.072,119.121C115.072,121.72 115.876,123.834 117.483,125.464C119.091,127.094 121.084,127.909 123.463,127.909Z" style="fill-rule:nonzero;"/>
        <path d="M174.272,118.659C174.272,120.377 174.206,121.412 174.074,121.764L151.411,121.764C151.94,123.702 152.931,125.222 154.384,126.323C155.838,127.424 157.6,127.975 159.67,127.975C162.797,128.019 165.374,126.808 167.4,124.341L173.016,129.561C169.801,133.613 165.154,135.639 159.075,135.639C154.274,135.639 150.31,134.098 147.183,131.014C144.055,127.931 142.491,123.9 142.491,118.923C142.491,114.078 144,110.103 147.017,106.997C150.035,103.892 153.856,102.339 158.481,102.339C163.15,102.339 166.949,103.87 169.878,106.931C172.807,109.992 174.272,113.902 174.272,118.659ZM158.745,109.937C156.939,109.937 155.397,110.422 154.12,111.391C152.843,112.36 151.962,113.748 151.477,115.553L165.683,115.553C164.714,111.809 162.401,109.937 158.745,109.937Z" style="fill-rule:nonzero;"/>
        <path d="M196.406,102.339C196.758,102.339 196.978,102.361 197.066,102.405L197.066,111.787C196.494,111.743 195.745,111.721 194.82,111.721C192.221,111.721 190.195,112.503 188.741,114.067C187.288,115.631 186.561,117.646 186.561,120.112L186.561,135.111L177.906,135.111L177.906,102.868L186.561,102.868L186.561,107.625L186.627,107.625C189.138,104.101 192.397,102.339 196.406,102.339Z" style="fill-rule:nonzero;"/>
        <path d="M234.463,102.868L243.118,102.868L243.118,135.111L234.463,135.111L234.463,131.146L234.331,131.146C231.864,134.142 228.671,135.639 224.75,135.639C216.866,135.639 212.924,131.19 212.924,122.293L212.924,102.868L221.513,102.868L221.513,119.98C221.513,122.887 221.964,124.936 222.867,126.125C223.77,127.314 225.257,127.909 227.327,127.909C229.309,127.909 230.994,127.083 232.382,125.431C233.769,123.779 234.463,121.478 234.463,118.527L234.463,102.868Z" style="fill-rule:nonzero;"/>
        <path d="M258.711,135.639C253.646,135.639 249.285,134.075 245.629,130.948L249.858,124.936C252.5,127.446 255.474,128.702 258.777,128.702C260.011,128.702 260.98,128.459 261.684,127.975C262.389,127.49 262.741,126.852 262.741,126.059C262.741,125.354 262.323,124.759 261.486,124.275C260.649,123.79 259.108,123.196 256.861,122.491C253.734,121.434 251.3,120.123 249.56,118.56C247.82,116.996 246.95,114.805 246.95,111.986C246.95,109.123 248.052,106.799 250.254,105.015C252.456,103.231 255.231,102.339 258.579,102.339C262.984,102.339 266.904,103.683 270.34,106.37L266.177,112.712C263.755,110.422 261.178,109.277 258.447,109.277C257.654,109.277 256.927,109.486 256.266,109.904C255.606,110.323 255.275,110.928 255.275,111.721C255.275,112.338 255.661,112.9 256.432,113.406C257.202,113.913 258.447,114.496 260.165,115.157C261.927,115.818 263.226,116.313 264.063,116.644C264.9,116.974 265.891,117.459 267.036,118.097C268.181,118.736 268.985,119.353 269.448,119.947C269.91,120.542 270.329,121.324 270.703,122.293C271.077,123.262 271.265,124.363 271.265,125.596C271.265,128.592 270.197,131.014 268.06,132.864C265.924,134.714 262.808,135.639 258.711,135.639Z" style="fill-rule:nonzero;"/>
        <path d="M304.366,118.659C304.366,120.377 304.3,121.412 304.168,121.764L281.506,121.764C282.034,123.702 283.025,125.222 284.479,126.323C285.933,127.424 287.694,127.975 289.765,127.975C292.892,128.019 295.469,126.808 297.495,124.341L303.111,129.561C299.896,133.613 295.249,135.639 289.17,135.639C284.369,135.639 280.405,134.098 277.277,131.014C274.15,127.931 272.586,123.9 272.586,118.923C272.586,114.078 274.095,110.103 277.112,106.997C280.129,103.892 283.95,102.339 288.575,102.339C293.244,102.339 297.044,103.87 299.973,106.931C302.902,109.992 304.366,113.902 304.366,118.659ZM288.84,109.937C287.034,109.937 285.492,110.422 284.215,111.391C282.937,112.36 282.056,113.748 281.572,115.553L295.777,115.553C294.808,111.809 292.496,109.937 288.84,109.937Z" style="fill-rule:nonzero;"/>
        <path d="M308.727,135.111L308.727,110.003L305.358,110.003L305.358,102.868L308.727,102.868L308.727,97.318C308.727,93.574 309.608,90.733 311.37,88.795C313.132,86.856 315.643,85.887 318.902,85.887C322.118,85.887 324.893,86.68 327.227,88.266L325.509,95.005C323.659,94.08 322.052,93.618 320.686,93.618C318.484,93.618 317.383,95.049 317.383,97.912L317.383,102.868L324.584,102.868L324.584,110.003L317.383,110.003L317.383,135.111L308.727,135.111Z" style="fill-rule:nonzero;"/>
        <path d="M347.643,102.868L356.299,102.868L356.299,135.111L347.643,135.111L347.643,131.146L347.511,131.146C345.044,134.142 341.851,135.639 337.931,135.639C330.046,135.639 326.104,131.19 326.104,122.293L326.104,102.868L334.693,102.868L334.693,119.98C334.693,122.887 335.145,124.936 336.048,126.125C336.951,127.314 338.437,127.909 340.508,127.909C342.49,127.909 344.175,127.083 345.562,125.431C346.95,123.779 347.643,121.478 347.643,118.527L347.643,102.868Z" style="fill-rule:nonzero;"/>
        <rect x="361.849" y="86.482" width="8.655" height="48.629" style="fill-rule:nonzero;"/>
        <path d="M400.831,135.639C395.765,135.639 391.405,134.075 387.749,130.948L391.977,124.936C394.62,127.446 397.593,128.702 400.897,128.702C402.13,128.702 403.099,128.459 403.804,127.975C404.509,127.49 404.861,126.852 404.861,126.059C404.861,125.354 404.443,124.759 403.606,124.275C402.769,123.79 401.227,123.196 398.981,122.491C395.853,121.434 393.42,120.123 391.68,118.56C389.94,116.996 389.07,114.805 389.07,111.986C389.07,109.123 390.171,106.799 392.374,105.015C394.576,103.231 397.351,102.339 400.699,102.339C405.103,102.339 409.024,103.683 412.459,106.37L408.297,112.712C405.874,110.422 403.297,109.277 400.566,109.277C399.774,109.277 399.047,109.486 398.386,109.904C397.725,110.323 397.395,110.928 397.395,111.721C397.395,112.338 397.78,112.9 398.551,113.406C399.322,113.913 400.566,114.496 402.284,115.157C404.046,115.818 405.346,116.313 406.183,116.644C407.019,116.974 408.011,117.459 409.156,118.097C410.301,118.736 411.105,119.353 411.567,119.947C412.03,120.542 412.448,121.324 412.823,122.293C413.197,123.262 413.384,124.363 413.384,125.596C413.384,128.592 412.316,131.014 410.18,132.864C408.044,134.714 404.927,135.639 400.831,135.639Z" style="fill-rule:nonzero;"/>
        <path d="M426.731,135.639C423.868,135.639 421.621,134.736 419.991,132.93C418.362,131.124 417.547,128.459 417.547,124.936L417.547,110.003L413.715,110.003L413.715,102.868L417.547,102.868L417.547,92.296L426.136,91.371L426.136,102.868L434.924,102.868L434.924,110.003L426.136,110.003L426.136,123.746C426.136,126.477 427.083,127.843 428.977,127.843C430.211,127.843 431.576,127.468 433.074,126.72L435.32,133.657C432.853,134.978 429.99,135.639 426.731,135.639Z" style="fill-rule:nonzero;"/>
        <path d="M459.04,102.868L467.695,102.868L467.695,135.111L459.04,135.111L459.04,131.146L458.908,131.146C456.441,134.142 453.247,135.639 449.327,135.639C441.443,135.639 437.5,131.19 437.5,122.293L437.5,102.868L446.09,102.868L446.09,119.98C446.09,122.887 446.541,124.936 447.444,126.125C448.347,127.314 449.834,127.909 451.904,127.909C453.886,127.909 455.571,127.083 456.958,125.431C458.346,123.779 459.04,121.478 459.04,118.527L459.04,102.868Z" style="fill-rule:nonzero;"/>
        <path d="M496.172,86.482L504.827,86.482L504.827,135.111L496.568,135.111L496.568,131.212L496.436,131.212C494.102,134.164 490.798,135.639 486.525,135.639C482.033,135.639 478.333,134.109 475.425,131.047C472.518,127.986 471.065,123.989 471.065,119.055C471.065,114.21 472.507,110.213 475.392,107.063C478.277,103.914 481.9,102.339 486.261,102.339C490.358,102.339 493.595,103.727 495.974,106.502L496.172,106.502L496.172,86.482ZM482.165,125.464C483.706,127.094 485.688,127.909 488.111,127.909C490.534,127.909 492.56,127.094 494.19,125.464C495.819,123.834 496.634,121.72 496.634,119.121C496.634,116.523 495.83,114.364 494.223,112.646C492.615,110.928 490.578,110.07 488.111,110.07C485.733,110.07 483.761,110.895 482.198,112.547C480.634,114.199 479.852,116.39 479.852,119.121C479.852,121.72 480.623,123.834 482.165,125.464Z" style="fill-rule:nonzero;"/>
        <path d="M515.002,98.309C513.549,98.309 512.293,97.791 511.236,96.756C510.179,95.721 509.65,94.477 509.65,93.023C509.65,91.57 510.179,90.325 511.236,89.29C512.293,88.255 513.549,87.737 515.002,87.737C516.5,87.737 517.777,88.255 518.834,89.29C519.891,90.325 520.42,91.57 520.42,93.023C520.42,94.477 519.891,95.721 518.834,96.756C517.777,97.791 516.5,98.309 515.002,98.309ZM510.641,135.111L510.641,102.868L519.297,102.868L519.297,135.111L510.641,135.111Z" style="fill-rule:nonzero;"/>
        <path d="M540.506,135.639C535.44,135.639 531.322,134.075 528.15,130.948C524.979,127.821 523.393,123.834 523.393,118.989C523.393,114.144 524.979,110.158 528.15,107.03C531.322,103.903 535.44,102.339 540.506,102.339C545.527,102.339 549.646,103.881 552.861,106.964C556.077,110.048 557.684,114.056 557.684,118.989C557.684,123.923 556.077,127.931 552.861,131.014C549.646,134.098 545.527,135.639 540.506,135.639ZM540.506,127.909C542.884,127.909 544.877,127.072 546.485,125.398C548.093,123.724 548.897,121.588 548.897,118.989C548.897,116.346 548.104,114.199 546.518,112.547C544.933,110.895 542.928,110.07 540.506,110.07C538.039,110.07 536.024,110.917 534.46,112.613C532.897,114.309 532.115,116.434 532.115,118.989C532.115,121.5 532.908,123.614 534.493,125.332C536.079,127.05 538.083,127.909 540.506,127.909Z" style="fill-rule:nonzero;"/>
    </g>
</svg>
