<?xml version="1.0" encoding="UTF-8" standalone="no"?>
<!DOCTYPE svg PUBLIC "-//W3C//DTD SVG 1.1//EN" "http://www.w3.org/Graphics/SVG/1.1/DTD/svg11.dtd">
<svg width="100%" height="100%" viewBox="0 0 582 234" version="1.1" xmlns="http://www.w3.org/2000/svg" xmlns:xlink="http://www.w3.org/1999/xlink" xml:space="preserve" xmlns:serif="http://www.serif.com/" style="fill-rule:evenodd;clip-rule:evenodd;stroke-linejoin:round;stroke-miterlimit:2;">
    <g id="Logo_Widex" transform="matrix(1,0,0,0.693255,-199.083,474.397)">
        <rect x="199.083" y="-684.304" width="581.562" height="336.314" style="fill:none;"/>
        <g transform="matrix(0.406629,0,0,0.586551,311.346,-594.951)">
            <path d="M2.488,165.012C5.499,184.35 9.411,208.235 28.181,218.983C55.27,234.493 86.549,236.439 117.336,236.439C143.537,236.439 190.255,236.255 210.388,216.146C226.103,200.448 231.814,181.452 233.3,159.446C234.911,135.577 234.373,111.925 233.307,87.974L206.746,87.974C199.031,87.974 197.767,105.315 195.97,112.356L181.963,174.585C179.583,185.156 176.39,193.217 166.462,193.293L148.387,193.433C140.942,193.49 134.85,190.671 133.686,185.316L125.403,147.225C124.229,141.823 124.381,130.98 118.459,130.98L115.84,130.98C111.138,130.98 110.413,142.891 109.449,147.404L101.425,185.006C100.306,190.248 94.241,193.433 87.034,193.433L70.2,193.433C59.011,193.433 54.363,184.251 52.243,174.361L35.739,97.368C34.825,93.102 32.151,87.602 26.804,87.601L1.595,87.594C0.147,113.242 -1.484,139.485 2.488,165.012ZM501.161,61.797L501.161,186.328C501.161,190.281 505.695,193.807 510.14,193.807L651.548,193.807C655.245,193.807 659.779,190.233 659.779,186.702L659.779,167.255C659.779,163.116 655.567,160.122 650.804,160.146C645.444,160.173 640.076,160.15 634.714,160.15L569.621,160.15C563.328,160.15 540.441,162.388 540.441,156.784L540.441,144.817C540.441,139.713 547.786,141.078 552.787,141.078L634.34,141.078C639.439,141.078 645.871,141.429 650.804,141.081C655.184,140.772 659.779,137.878 659.779,133.598L659.779,113.778C659.779,110.503 654.647,107.032 650.435,107.037C644.946,107.044 639.456,107.047 633.966,107.047L552.787,107.047C547.024,107.047 540.441,108.629 540.441,102.933L540.441,92.088C540.441,86.837 547.196,87.974 552.412,87.974L634.34,87.974C639.826,87.974 645.316,87.953 650.801,87.975C655.741,87.994 659.779,85.126 659.779,80.495L659.779,64.415C659.779,59.303 657.547,54.691 652.671,54.691L508.269,54.691C504.988,54.691 501.161,58.791 501.161,61.797ZM352.27,92.836C352.27,89.645 353.941,87.974 357.133,87.974L419.608,87.974C427.479,87.974 435.803,92.096 438.689,96.948C441.879,102.313 445.42,109.349 445.42,117.892L445.42,130.606C445.42,138.635 441.251,148.067 437.468,152.574C432.494,158.5 426.163,160.15 415.493,160.15L357.507,160.15C354.808,160.15 352.27,158.727 352.27,156.036L352.27,92.836ZM312.989,65.162L312.989,186.328C312.989,190.336 317.63,193.807 321.968,193.807L438.313,193.807C454.375,193.807 468.678,182.478 474.413,171.93C481.225,159.398 485.075,143.388 485.075,124.249C485.075,104.599 481.641,91.442 475.235,77.991C472.629,72.521 467.144,66.096 462.323,62.851C457.82,59.82 449.26,54.691 442.053,54.691L319.723,54.691C317.784,54.691 315.352,56.819 314.477,58.047C313.18,59.866 312.989,62.076 312.989,65.162ZM674.369,63.293L703.267,93.117C708.284,98.132 713.028,102.873 718.045,107.888C721.252,111.093 731.232,119.183 731.232,124.249C731.232,129.357 720.754,137.901 717.483,141.171C712.217,146.435 707.224,151.426 701.959,156.691C696.797,161.852 691.634,166.636 686.433,171.836C683.785,174.482 681.412,176.857 678.765,179.503C674.349,183.918 672.907,184.064 674.369,190.067C674.996,192.644 677.128,193.807 681.476,193.807L716.267,193.807C723.147,193.807 734.794,179.587 739.18,175.202C742.763,171.62 746.073,168.312 749.655,164.731C751.995,162.391 757.448,155.289 761.159,155.289L763.03,155.289C767.276,155.289 781.761,171.583 785.194,175.016C789.864,179.684 801.14,193.807 808.67,193.807L843.087,193.807C845.874,193.807 849.689,191.342 850.195,188.945C850.656,186.76 850.414,184.845 848.409,182.815L821.67,155.755C816.654,150.74 811.909,145.999 806.892,140.985C804.072,138.166 793.332,129.018 793.332,124.997L793.332,123.501C793.332,119.435 804.224,110.183 807.08,107.328C812.159,102.251 816.965,97.446 822.044,92.369C827.123,87.292 831.929,82.487 837.008,77.41C840.658,73.762 850.195,66.869 850.195,60.675C850.195,57.809 847.397,54.691 845.331,54.691L807.173,54.691C801.497,54.691 788.772,69.91 784.82,73.857C781.375,77.298 777.409,80.83 774.281,84.263C771.747,87.044 766.871,93.125 762.346,92.995C756.339,92.821 743.858,77.971 739.743,73.857C736.16,70.275 732.85,66.967 729.268,63.386C726.326,60.445 722.372,54.691 717.016,54.691L679.606,54.691C674.662,54.691 671.595,60.431 674.369,63.293ZM39.807,11.22C23.413,17.534 7.712,36.877 6.229,54.691L34.661,54.691C45.056,54.691 58.307,56.519 64.186,66.541C72.152,80.136 72.107,95.193 76.503,109.721C77.604,113.359 78.008,117.518 82.545,117.518C88.722,117.518 89.314,107.851 90.541,102.699L99.318,65.849C100.62,60.383 104.755,54.691 111.351,54.691L123.696,54.691C130.163,54.691 134.059,60.177 135.442,65.761L144.503,102.328C145.737,107.308 147.329,117.518 152.127,117.518C157.315,117.312 159.334,104.465 161.037,98.377C163.139,90.87 164.095,82.424 166.669,75.585C169.28,68.648 172.1,62.095 178.635,59.126C185.088,56.193 193.193,54.691 202.631,54.691L228.443,54.691C228.443,47.427 220.269,32.39 216.917,27.696C207.795,14.923 189.958,7.508 173.827,4.654C149.131,0.286 122.552,-0.266 97.366,1.03C77.795,2.036 58.256,4.115 39.807,11.22ZM255.005,61.049L255.005,187.076C255.005,190.487 259.581,193.807 263.235,193.807L285.681,193.807C289.245,193.807 293.911,189.87 293.911,187.076L293.911,64.415C293.911,59.571 291.659,54.691 287.177,54.691L261.364,54.691C258.795,54.691 255.005,58.413 255.005,61.049Z"/>
        </g>
    </g>
</svg>
